<svg id="Capa_1" data-name="Capa 1" xmlns="http://www.w3.org/2000/svg" viewBox="0 0 512 512"><defs><style>.cls-1{fill:#a9c6cc;}.cls-2{fill:#fff;}</style></defs><rect class="cls-1" width="512" height="512"/><path class="cls-2" d="M377,312.18V130.68a12.93,12.93,0,0,0-13-13H186.86A51.87,51.87,0,0,0,135,169.57V342.43a51.87,51.87,0,0,0,51.86,51.86H364a12.93,12.93,0,0,0,13-13v-8.64a13,13,0,0,0-4.81-10.1c-2.27-8.32-2.27-32,0-40.35A12.88,12.88,0,0,0,377,312.18ZM204.14,190.1a3.25,3.25,0,0,1,3.24-3.24H321.9a3.25,3.25,0,0,1,3.24,3.24v10.8a3.25,3.25,0,0,1-3.24,3.24H207.38a3.25,3.25,0,0,1-3.24-3.24Zm0,34.57a3.25,3.25,0,0,1,3.24-3.24H321.9a3.25,3.25,0,0,1,3.24,3.24v10.8a3.25,3.25,0,0,1-3.24,3.24H207.38a3.25,3.25,0,0,1-3.24-3.24ZM341,359.71H186.86a17.29,17.29,0,1,1,0-34.57H341A195.66,195.66,0,0,0,341,359.71Z"/></svg>