<svg xmlns="http://www.w3.org/2000/svg" viewBox="0 0 1304.33 144.51" preserveAspectRatio="xMinYMid"><path d="M353.47,58.24s0-.13,0-.2l-.15-.58c-.07-.29-.24-.57,0-.89a1.53,1.53,0,0,0,.2-.94.32.32,0,0,1,.09-.25,1.39,1.39,0,0,0,.17-1c-.16-.34-.31-.69-.45-1a6.64,6.64,0,0,1-.3-.81c-.13-.55-.23-1.11-.33-1.67,0-.09,0-.18,0-.27,0-.41.2-.89,0-1.2-.29-.59-.19-1.23-.43-1.8a4,4,0,0,1-.19-.48c0-.14-.09-.37,0-.43a.73.73,0,0,0,.23-.72c-.12-.58-.32-1.13-.4-1.73a7,7,0,0,1,0-1.21,2.35,2.35,0,0,0-.16-1.22,1.36,1.36,0,0,1-.22-.65.49.49,0,0,0,0-.21,3.6,3.6,0,0,1-.52-1.39.91.91,0,0,0-.21-.43,4.34,4.34,0,0,1-.91-1.54,6.76,6.76,0,0,1-.34-2c0-.69,0-1.38,0-2.06a3.37,3.37,0,0,0-.25-.8c-.07-.2-.17-.39-.23-.59-.1-.39-.16-.8-.28-1.18a2.08,2.08,0,0,0-.32-.53,5,5,0,0,0-.74-1.09,2.49,2.49,0,0,1-.67-1.16,2.19,2.19,0,0,1,0-1,1.62,1.62,0,0,0-.27-1.25c-.13-.15-.29-.26-.42-.41-.29-.33-.57-.67-.85-1a1.9,1.9,0,0,1-.37-.58,9.49,9.49,0,0,1-.22-1.06.52.52,0,0,0-.05-.23,1.8,1.8,0,0,1-.44-1.4c0-.1-.07-.2-.1-.31-.13-.37-.47-.66-.41-1.12,0-.13-.14-.29-.24-.42l-.79-1c-.2-.26-.37-.55-.58-.79s-.55-.52-.55-1c0-.06-.09-.12-.15-.17a7.65,7.65,0,0,1-1.56-1.5c-.34-.45-.61-1-.93-1.41s-.56-.76-.86-1.12a2.09,2.09,0,0,0-.41-.43c-.25-.2-.52-.38-.78-.56s-.43-.26-.62-.42c-.42-.35-.81-.71-1.22-1.06s-.55-.44-.79-.69a6.43,6.43,0,0,0-1.82-1,3.32,3.32,0,0,1-1.26-1.1,2.56,2.56,0,0,0-1.13-1,4.16,4.16,0,0,1-1.35-.67,3,3,0,0,0-.49-.29L327.81,5a1.59,1.59,0,0,0-.32-.16l-1.29-.21a.71.71,0,0,1-.25-.11c-.29-.2-.56-.43-.87-.61A5.18,5.18,0,0,0,324,3.34c-.61-.18-1.27-.24-1.88-.43a15.8,15.8,0,0,1-1.87-.74c-.32-.15-.59-.41-.91-.58a2,2,0,0,0-.66-.14c-.47-.07-1-.07-1.43-.18S316.1.89,315.53.68a2.83,2.83,0,0,0-.43-.2c-.45-.09-.92-.15-1.38-.21L312.53.12a4.85,4.85,0,0,0-.75-.11h-7.17a1.93,1.93,0,0,0-.67.12,3.63,3.63,0,0,1-1.56.35,1.55,1.55,0,0,0-.53.14,3.6,3.6,0,0,1-.87.26,8.93,8.93,0,0,0-2.23.58l-1.17.35c-.32.08-.65.13-1,.22a6,6,0,0,1-1.19.35,3.38,3.38,0,0,0-1.11.43l-1.18.52a5.62,5.62,0,0,0-.61.29,4.14,4.14,0,0,1-.87.53,7.18,7.18,0,0,0-2.19,1.11,2.24,2.24,0,0,1-1.29.45,2.58,2.58,0,0,0-.74.21,4.18,4.18,0,0,1-.56.2c-.41.06-.59.38-.82.64s-.32.58-.72.67c-.22.05-.39.25-.6.38s-.49.28-.74.43a3.36,3.36,0,0,0-.69.4c-.53.52-1,1.08-1.54,1.6a1.17,1.17,0,0,1-.68.36,4.14,4.14,0,0,0-1.61.65,2.57,2.57,0,0,0-.62.41c-.29.26-.55.54-.83.8s-.35.26-.48.42-.33.56-.54.79a9.79,9.79,0,0,1-.94.88,9.13,9.13,0,0,0-1.36,1,11.35,11.35,0,0,0-1.08,1.79c-.27.47-.39,1-.66,1.5-.44.77-.93,1.51-1.41,2.25-.16.24-.34.45-.51.67a5.52,5.52,0,0,1-.32.47c-.12.14-.29.25-.41.4a2.13,2.13,0,0,0-.39.53,9.9,9.9,0,0,0-.69,1.6,6.23,6.23,0,0,1-.6,1.25,4.25,4.25,0,0,0-.21.43c-.09.21-.15.44-.26.64a2.38,2.38,0,0,0-.4,1.19,2,2,0,0,1-.16.66c0,.13-.11.25-.16.38s-.1.58-.27.71a.88.88,0,0,0-.38.86.57.57,0,0,1-.14.42c-.19.17-.37.33-.34.63a.72.72,0,0,1-.11.24c-.1.19-.29.36-.31.56-.05.61,0,1.22-.07,1.84a.84.84,0,0,1-.14.4c-.19.28-.5.52-.6.83a4.56,4.56,0,0,0-.21,1.51c0,.51-.29.84-.44,1.25a3.45,3.45,0,0,0-.33.81c-.1,1.1-.2,2.22-.2,3.33a4.12,4.12,0,0,1-.4,1.33,3.4,3.4,0,0,0-.4,1.47c0,.13,0,.27,0,.41a1.5,1.5,0,0,1-.23,1.06,1.68,1.68,0,0,0-.26,1.19c0,1.75,0,3.5,0,5.26a1.67,1.67,0,0,1-.11.41,4.31,4.31,0,0,0-.38,1.48c.06.93,0,1.86,0,2.79,0,.13,0,.28,0,.37a1.1,1.1,0,0,0,.07,1.1,2.79,2.79,0,0,1,.24,1.38,6.41,6.41,0,0,1-.22.89s.1.07.12.14c.11.46.21.93.31,1.4,0,.09,0,.21,0,.27a2.22,2.22,0,0,1,.45,1.49,9.73,9.73,0,0,0,0,1.08,1.26,1.26,0,0,0,.15.45c.16.29.34.56.49.85a.27.27,0,0,1,0,.23,5.76,5.76,0,0,1-.37.63c-.19.28-.43.6-.25.91a2.06,2.06,0,0,1,.24.64,10.27,10.27,0,0,0,.47,1.42,3.13,3.13,0,0,0,.28.91,1.36,1.36,0,0,1,.24.82,1.61,1.61,0,0,0,.14.52c.06.16.17.3.24.46s-.12.42-.15.61a1.82,1.82,0,0,0,.38,1.82c.36.3.45.73.74,1.05a.27.27,0,0,1,0,.29c-.27.21-.14.4,0,.62s0,.21,0,.34a3.8,3.8,0,0,1,.16.51,3.84,3.84,0,0,0,.29,1.06,1.28,1.28,0,0,1,.21.58,1.19,1.19,0,0,0,.17.49c.12.16.34.24.35.51s.15.26.23.39a1.82,1.82,0,0,1,.21.45,1.74,1.74,0,0,0,.42,1.09.29.29,0,0,1,.07.18,7.06,7.06,0,0,0,.61,2.3c.09.33-.1.78.36,1,0,0,0,0,0,0a10.63,10.63,0,0,0,.5,1.92,7.44,7.44,0,0,0,.66,1.53c.19.3.53.52.52.93,0,0,.06.07.08.1.12.24.23.48.35.73s.14.33.22.5a4.45,4.45,0,0,0,.26.48,1.79,1.79,0,0,0,.3.42,2.42,2.42,0,0,1,.71,1.26,4.76,4.76,0,0,0,.52,1.73c.1.14.12.32.22.45a4.15,4.15,0,0,0,.52.59,5.91,5.91,0,0,1,1.06,1.17,6.24,6.24,0,0,0,1.11,1.13c.4.37.8.74,1.23,1.08.27.22.61.36.86.6.53.5,1,1.06,1.54,1.58a2,2,0,0,0,.8.62,5.33,5.33,0,0,1,1.77,1.18c.4.31.77.65,1.17,1a3.78,3.78,0,0,0,.61.44c.53.29,1.09.55,1.62.84.24.14.43.35.66.5s.61.34.89.55a1.49,1.49,0,0,0,1.21.5.83.83,0,0,1,.49.09c.47.3.9.65,1.36,1a2,2,0,0,0,1.12.48.27.27,0,0,1,.21.09,1.17,1.17,0,0,0,.77.33.38.38,0,0,1,.19,0,1.83,1.83,0,0,0,1.19.37.61.61,0,0,1,.26.12c.35.26.69.54,1.07.77a7.86,7.86,0,0,0,.84.36l.26.08c.18.08.37.15.55.24s.21.13.32.17a4.54,4.54,0,0,0,1.9.29,4.07,4.07,0,0,1,.89.16,7.6,7.6,0,0,1,1.08.17,4.75,4.75,0,0,1,1.26.56,1.71,1.71,0,0,0,1,.35h1.74a.58.58,0,0,1,.3,0,2.35,2.35,0,0,0,1.26.4,10.23,10.23,0,0,1,1.45.17,9.16,9.16,0,0,0,1.12.21c.27,0,.53-.17.8-.2.88-.08,1.76-.13,2.64-.19.28,0,.56,0,.83,0a.47.47,0,0,0,.24,0,2.18,2.18,0,0,1,1.35-.39.61.61,0,0,0,.27,0,4.05,4.05,0,0,1,1.91-.4,2.33,2.33,0,0,0,.59,0c.82-.06,1.65-.19,2.47-.19a3.21,3.21,0,0,0,2.15-.62,1,1,0,0,1,.18-.09,2.32,2.32,0,0,0,.77-.32,2.44,2.44,0,0,1,1.69-.7,4.41,4.41,0,0,0,2.25-.63c.67-.34,1.33-.71,2-1.06.3-.17.62-.33.92-.51s.66-.45,1-.65c.13-.07.35,0,.47-.06a10.4,10.4,0,0,0,1.08-.91,2.78,2.78,0,0,1,1.27-.77.49.49,0,0,0,.16,0,13.46,13.46,0,0,1,1.25-1,4.45,4.45,0,0,1,1.84-.89.84.84,0,0,0,.6-.37,3.62,3.62,0,0,1,1.14-1.29,7.26,7.26,0,0,0,1-1c.22-.31.14-.82.64-.94.27-.56,1-.81,1-1.59a.09.09,0,0,1,0-.06c.31-.33.63-.66.94-1s.47-.49.68-.76a10.19,10.19,0,0,0,.64-.93c.13-.2.32-.41.32-.62,0-.45.34-.68.56-1s.67-.73.94-1.14.58-.55.49-1c0-.05,0-.1.08-.15a11.13,11.13,0,0,0,.87-1.32,5,5,0,0,0,.61-1.71c0-.61.48-1,.68-1.46a2.32,2.32,0,0,0,.38-1.18,1.12,1.12,0,0,1,.12-.46c.12-.35.25-.69.39-1,0-.09.09-.18.13-.27a4.94,4.94,0,0,0,.33-.88c.1-.57.13-1.15.23-1.73a3.66,3.66,0,0,1,.24-.59c.18-.56.35-1.12.5-1.69a3.61,3.61,0,0,0,.08-.67c0-.47-.13-1,.35-1.35a.29.29,0,0,0,.05-.13c.06-.35.1-.7.17-1a2.17,2.17,0,0,1,.17-.63c.13-.26.22-.47,0-.73a.33.33,0,0,1,0-.29,3.29,3.29,0,0,0,.34-1.77.35.35,0,0,1,.05-.25A1.58,1.58,0,0,0,352,73.6c0-.43,0-.86,0-1.29a.44.44,0,0,1,0-.26,1.34,1.34,0,0,0,0-1.81.4.4,0,0,1,.05-.59.76.76,0,0,0,.17-.32,7.29,7.29,0,0,1,.39-1.14,2.21,2.21,0,0,0,.3-1.07,3.1,3.1,0,0,1,.12-1.51.33.33,0,0,0,0-.17,4.69,4.69,0,0,1-.12-.61c0-.59,0-1.19,0-1.78,0-.28-.09-.6.24-.8,0,0,0-.15,0-.23.07-.61.13-1.22.21-1.83,0-.06,0-.14.06-.16.29-.17.24-.46.22-.72S353.88,58.52,353.47,58.24Zm-4,.46a.79.79,0,0,1,0,.13c0,.68-.09,1.37-.11,2.05,0,.23.09.47.1.7s-.06.48-.06.72,0,.58,0,.87a5.77,5.77,0,0,1,0,.72c0,.14-.08.28-.09.43a1.85,1.85,0,0,1-.33,1.11,1.2,1.2,0,0,0-.15.63c0,.39,0,.79,0,1.18,0,.84-.1,1.67-.15,2.51,0,.37,0,.74-.06,1.11s-.16.78-.22,1.18-.15.85-.2,1.28,0,.74,0,1.11a2.57,2.57,0,0,1-.2.77,2.9,2.9,0,0,0-.23,1.39,3.69,3.69,0,0,0,.11.45c.08.44-.2.75-.38,1.1a6.37,6.37,0,0,0-.29.72,8.51,8.51,0,0,0-.29.85,5.44,5.44,0,0,0-.18,1.21,2.88,2.88,0,0,1-.31,1.46,2.46,2.46,0,0,0-.19.82,7.11,7.11,0,0,1-.25,1.69c-.19.44-.14.9-.32,1.32-.06.15-.17.28-.22.43A6.13,6.13,0,0,1,345,87.7c-.27.42-.4.9-.7,1.32a7.23,7.23,0,0,0-.67,1.64,1.41,1.41,0,0,1-.24.57c-.2.2-.24.5-.52.67s-.23.5-.38.73a6.75,6.75,0,0,0-.43,1.53l-.39.61a5.05,5.05,0,0,1-.53.75c-.08.09-.31.06-.46,0a.65.65,0,0,1-.33-.14,12.3,12.3,0,0,1-1-.84A1.31,1.31,0,0,1,339,94a10.21,10.21,0,0,1-.29-1.12,1.83,1.83,0,0,1,.39-1.54.58.58,0,0,0,.1-.36,3.08,3.08,0,0,0-.18-1.37c-.09-.21,0-.52.08-.78a2.23,2.23,0,0,0,0-.23c0-1,0-2,.07-3A.64.64,0,0,0,339,85a2,2,0,0,0-1.41-.54,6.38,6.38,0,0,0-2.12.36,3.64,3.64,0,0,1-1.05.08c-.5,0-1,0-1.5,0-.28,0-.56,0-.83,0-1.3,0-2.6,0-3.9,0a2,2,0,0,1-.86-.36c-.62-.34-.54-.88-.54-1.42,0-.27,0-.53,0-.8,0-.55.27-.72.7-.75,1.33-.08,2.66-.1,4-.12.41,0,.82.1,1.23.09s1-.12,1.43-.09,1,.23,1.5.29a5.56,5.56,0,0,0,1.29,0c.41,0,.81-.25,1.23-.28a1.64,1.64,0,0,0,1-.53,9.87,9.87,0,0,0,.9-1,1,1,0,0,0,.13-.48c0-.83,0-1.67,0-2.5a5.86,5.86,0,0,1,.35-1.2,2,2,0,0,0,.06-.23c0-.82.05-1.64.06-2.46A1.15,1.15,0,0,0,339.6,72a1.73,1.73,0,0,0-1.75,1,1,1,0,0,1-.89.54c-.42,0-.84,0-1.25,0s-1,0-1.46,0c-.86,0-1.73,0-2.6,0-.46,0-.93-.1-1.4-.13-.69,0-1.38,0-2.06-.09a2.38,2.38,0,0,1-.76-.13,1.12,1.12,0,0,1-.67-1.07,1.14,1.14,0,0,0-1.46-1.15c-.43.13-1,.14-1.23.65a3.71,3.71,0,0,0-.27.65,1.43,1.43,0,0,1-1.28,1.19c-.14,0-.29-.11-.44-.11a2.85,2.85,0,0,0-1.45.11.37.37,0,0,1-.19.07c-.74,0-1.48.07-2.22,0a2.13,2.13,0,0,1-1.44-.36c-.09-.07-.29,0-.43,0a2.46,2.46,0,0,1-.86,0c-.21-.07-.44,0-.67-.23-.43-.35-.64-.87-1.06-1.22a1.16,1.16,0,0,0-.22-.13l-.4-.17c-.06,0-.13-.07-.18-.06-.69.18-1.47.17-1.87.94a1.52,1.52,0,0,0-.25,1,4.54,4.54,0,0,1-.1.7c0,.38,0,.76,0,1.14a3,3,0,0,1,0,.42c0,.33-.12.65-.13,1,0,.55,0,1.11,0,1.67a2.23,2.23,0,0,0,1.06,2,2.27,2.27,0,0,1,.56.51c.27.37.72.38,1.06.58a3.39,3.39,0,0,0,1.88.22c1.84,0,3.69,0,5.53,0a3,3,0,0,1,1.25.29,1.76,1.76,0,0,0,.71.17.9.9,0,0,1,1,.73,4,4,0,0,1,.16.76,1,1,0,0,1-1.07,1.14c-.8,0-1.6,0-2.4,0a6.09,6.09,0,0,0-.81.22,8.94,8.94,0,0,1-1.16.12,8.31,8.31,0,0,1-1.32,0,6.64,6.64,0,0,1-1-.22,1.74,1.74,0,0,0-.47-.16c-.88,0-1.76,0-2.64,0-.44,0-.65.4-.9.69s-.5.53-.39.94a1.23,1.23,0,0,0,.13.41c.24.3.46.74.76.83a4.85,4.85,0,0,0,1.47,0c.3,0,.61-.06.91,0s.35.1.53.1c1,0,2,.05,3,0a6.85,6.85,0,0,1,1.81,0,3.78,3.78,0,0,0,1.3-.22,2.92,2.92,0,0,1,.5-.09c1.09,0,2.18,0,3.27,0a9.25,9.25,0,0,1,1.51.32,1.84,1.84,0,0,0,.41,0c1.52,0,3,.07,4.56,0a5.31,5.31,0,0,0,1.44-.35,1.13,1.13,0,0,1,.85.14c.2.07.4.11.6.16h.14c.72,0,.71.06.95.74.11.3.24.6.32.9s.15.54-.18.73c-.1.06-.11.29-.14.44a.6.6,0,0,1-.92.49c-.31-.15-.67-.21-1-.39a3.16,3.16,0,0,0-2.07-.23,8.35,8.35,0,0,1-1.5.22,5.74,5.74,0,0,1-1.83-.19,1.72,1.72,0,0,0-1.43.09,1.57,1.57,0,0,1-.4.09l-.8.16a.65.65,0,0,1-.31,0,3.42,3.42,0,0,0-1.85,0,3.17,3.17,0,0,1-.69,0,10.32,10.32,0,0,0-2.93.2,3.89,3.89,0,0,1-1.05-.1c-.28,0-.57,0-.86,0l-.49-.05a2.48,2.48,0,0,0-.27,0c-.63,0-1.26.12-1.89.11a8.28,8.28,0,0,1-1.72-.23,1.78,1.78,0,0,0-1.61.42c-.08.08-.22.09-.3.16a1,1,0,0,0-.11,1.45,1.46,1.46,0,0,0,1.26.64c1-.07,2,0,3-.05.24,0,.48-.09.72-.09.52,0,1.05.06,1.58.1a8,8,0,0,0,3.05-.24,2.85,2.85,0,0,1,1,0c.9,0,1.81.11,2.72.11.39,0,.78-.16,1.18-.2s.69,0,1,0H329c1,0,2,0,2.95,0,.19,0,.37.16.56.22.52.15,1.05.26,1.56.43a.59.59,0,0,1,.43.71.69.69,0,0,1-.5.64,3.31,3.31,0,0,0-1.31.63,3.54,3.54,0,0,1-1.06.48,5.21,5.21,0,0,1-2,.32c-.75,0-1.5.09-2.24.1-1.05,0-2.1,0-3.15,0h-2.44c-1.21,0-2.41,0-3.62,0-.13,0-.25-.12-.38-.14a1.57,1.57,0,0,0-.74,0,5.65,5.65,0,0,1-2.24.21c-.87,0-1.74,0-2.61,0a.26.26,0,0,0-.19.06,7.75,7.75,0,0,0-.85,1.15.72.72,0,0,0,.68,1.12,1.27,1.27,0,0,1,.57.23,4.88,4.88,0,0,0,1.44.38,16.53,16.53,0,0,1,1.84-.34c.36,0,.75.14,1.12.12a4.63,4.63,0,0,0,1-.24,3.5,3.5,0,0,1,.62-.15,17.42,17.42,0,0,1,1.77,0c.27,0,.52.22.79.25a2.21,2.21,0,0,0,1.17,0,2.45,2.45,0,0,1,2-.12,1.24,1.24,0,0,0,1,0,1.16,1.16,0,0,1,.53-.09c.84,0,1.68,0,2.51,0a5.57,5.57,0,0,0,1.11-.31,1.26,1.26,0,0,1,1.05.07c.23.14.62,0,.93,0a4.92,4.92,0,0,0,.55-.14l1.11-.21.56-.14a.7.7,0,0,0,.3-.14,3.48,3.48,0,0,1,1.6-.81,5,5,0,0,1,.76-.21c.31-.06.62-.1.85.21.07.1.2.14.29.2.08.36.15.72.24,1.07,0,.12.14.22.19.34a3.66,3.66,0,0,1,.29,1.87,2.15,2.15,0,0,1-.68,1.08,10.45,10.45,0,0,1-.81.82c-.31.27-.67.49-1,.75s-.5.46-.75.7-.45.44-.69.65a.35.35,0,0,1-.25.1,2.19,2.19,0,0,0-1.31.54,7.73,7.73,0,0,0-1,.66,8,8,0,0,0-.64.76,2,2,0,0,1-.51.41c-.29.14-.61.23-.91.35a.8.8,0,0,0-.19.13c-.31.24-.6.48-.91.71a.57.57,0,0,1-.25.08,1.8,1.8,0,0,0-1.21.49c-.44.48-1,.45-1.54.64-.67.24-1.33.47-2,.72-.35.14-.67.33-1,.47a1,1,0,0,1-.41.05,3.2,3.2,0,0,0-2.14.63,1.42,1.42,0,0,1-.67.23,2.43,2.43,0,0,0-1.21.38s-.06,0-.09,0c-.76-.07-1.45.39-2.25.2a6.41,6.41,0,0,0-1.44.06c-.41,0-.82-.09-1.23-.07s-1,.14-1.48.19a3.82,3.82,0,0,1-1.56.11,11.36,11.36,0,0,0-4.29-.45,7.52,7.52,0,0,1-1.77-.36,2.5,2.5,0,0,0-.26-.07,20.91,20.91,0,0,1-2.24-.18,14.69,14.69,0,0,1-1.93-.57.74.74,0,0,0-.22-.08,2,2,0,0,1-1-.35c-.22-.16-.59-.13-.82-.29-.54-.38-1.21-.2-1.76-.49s-1.1-.58-1.64-.89a3.57,3.57,0,0,0-2-.8,1.45,1.45,0,0,1-.79-.25c-.53-.33-1.12-.57-1.65-.91-.38-.25-.65-.68-1.05-.91a5.1,5.1,0,0,0-1.46-.77c-.18,0-.34-.24-.49-.38s-.46-.51-.85-.54c0,0-.07-.1-.12-.14l-.34-.26-.47-.32c-.1-.07-.19-.21-.29-.21-.43,0-.64-.35-.92-.57-.73-.59-1.41-1.24-2.14-1.83a9.24,9.24,0,0,0-1.11-.73,1.11,1.11,0,0,1-.38-1.18,1.61,1.61,0,0,0,.1-.36c.05-.39.09-.79.15-1.19a.71.71,0,0,1,.17-.24s-.14-.07-.15-.13a8.89,8.89,0,0,1-.27-1.83A3.81,3.81,0,0,1,280.2,93a.87.87,0,0,0,.08-.4c.05-.44.1-.88.13-1.33,0-.29,0-.6,0-.89a.48.48,0,0,1,.77-.36.72.72,0,0,0,.88,0,1.59,1.59,0,0,1,.5-.11c.37-.06.75-.09,1.11-.18a2.32,2.32,0,0,1,1.2,0,3.88,3.88,0,0,0,1.93-.23,10.2,10.2,0,0,0,1.35-.32,3.85,3.85,0,0,0,1-.6,10.82,10.82,0,0,0,1.26-1.09,1.79,1.79,0,0,0,.34-.69c.09-.32.14-.65.2-1a2.26,2.26,0,0,1,.1-.53,4.61,4.61,0,0,0,.21-1.8,18.19,18.19,0,0,1,0-2.22c.1-.66.2-1.32.24-2a1.84,1.84,0,0,1,.4-.94c.13-.17.49-.15.69-.29A2.25,2.25,0,0,1,294,77.8h10.54a4.11,4.11,0,0,0,.86-.08c.56-.14.85-.62,1.19-1a.32.32,0,0,0,0-.3,1.92,1.92,0,0,0-1.61-1c-.82,0-1.64-.2-2.46-.22s-1.44.1-2.17.14a2.07,2.07,0,0,1-.42-.08,2.38,2.38,0,0,0-.37-.06c-1,0-2,0-3,0a8.55,8.55,0,0,0-.86.14,8.45,8.45,0,0,1-1.23.06c-.59,0-1.16-.13-1.74-.21s-.88-.15-1.32-.19a5.24,5.24,0,0,0-1.12,0,2.21,2.21,0,0,1-1.43-.18c-.1-.06-.29,0-.44,0-.57.06-1.09.39-1.71.27a5.56,5.56,0,0,0-1.29-.06c-.31,0-.61.21-.93.25A6.39,6.39,0,0,1,282,75.3a3.57,3.57,0,0,0-2,.1c-.47.14-1,.17-1.47.28a2.1,2.1,0,0,0-1.39.7.78.78,0,0,0-.14.87,2.43,2.43,0,0,0,.53.85.49.49,0,0,1,.09.28c0,.55,0,1.1,0,1.64a1.22,1.22,0,0,1-.24.59,1.81,1.81,0,0,0-.29,1.28c0,.65,0,1.3,0,1.94,0,.46,0,.92,0,1.37,0,.15.16.29.25.43a1,1,0,0,1,0,.94,1.47,1.47,0,0,0,0,.88,1.05,1.05,0,0,1,0,1,1.61,1.61,0,0,0,.05,1.32,1.75,1.75,0,0,1,0,.85,9.62,9.62,0,0,0-.28,1.15c-.05.71,0,1.42,0,2.12a4.44,4.44,0,0,1-.24,1.08.41.41,0,0,1-.33.19.48.48,0,0,1-.34-.18c-.2-.27-.34-.57-.55-.84s-.53-.62-.79-.94a.43.43,0,0,1-.13-.27,1.62,1.62,0,0,0-.37-1,13.49,13.49,0,0,1-1-1.76,11.48,11.48,0,0,1-.43-1.33,2.56,2.56,0,0,1,.07-1,1.06,1.06,0,0,0,0-.35,8.17,8.17,0,0,1-.38-1c-.09-.47-.5-.66-.72-1s-.47-.47-.65-.74a3.78,3.78,0,0,1-.33-.83c0-.11,0-.26-.09-.35a2.05,2.05,0,0,1-.27-1.25c0-.21,0-.42,0-.63a3.84,3.84,0,0,0-.38-1.66,1.1,1.1,0,0,1-.11-.35,4.54,4.54,0,0,0-.44-1.66,2.15,2.15,0,0,1-.08-1.74,1.66,1.66,0,0,0-.35-1.19c-.36-.35-.72-.69-1-1.06a1.06,1.06,0,0,1-.18-.56c0-.25,0-.51,0-.77s-.11-.53-.13-.79a7,7,0,0,1,0-1,3.11,3.11,0,0,0-.22-1.48.94.94,0,0,1-.1-.28,4.19,4.19,0,0,0-.24-1.2c-.44-.79-.11-1.62-.23-2.42a2.8,2.8,0,0,0-.43-1.38.34.34,0,0,1,0-.17c-.07-.42-.13-.84-.2-1.26a.75.75,0,0,0-.13-.32,1,1,0,0,1,0-1.26,1.4,1.4,0,0,0,.08-.47c.07-.47.14-.95.17-1.43a3.35,3.35,0,0,0-.12-.68,3.1,3.1,0,0,1-.1-.68,6.31,6.31,0,0,0-.34-1.78,6,6,0,0,1-.11-1.47A13.82,13.82,0,0,1,266,52.8a5.58,5.58,0,0,1,.28-.67,6.28,6.28,0,0,0,.19-.86.35.35,0,0,0,0-.23c-.33-.34-.12-.68,0-1a2,2,0,0,0,.06-.26,3.67,3.67,0,0,1,.17-1.12,1.27,1.27,0,0,0-.09-1.16.4.4,0,0,1,0-.35,2.09,2.09,0,0,0,0-1.68c0-.07-.07-.17-.05-.22a4.44,4.44,0,0,0,.46-2,7.58,7.58,0,0,1,.36-1.4c.1-.3.31-.56.42-.86a2.79,2.79,0,0,0,.14-.71c0-.38,0-.76,0-1.14a1.37,1.37,0,0,1,.22-.84,1.56,1.56,0,0,0,.26-.94,1.73,1.73,0,0,1,.34-1,5.77,5.77,0,0,0,.68-2c.11-.6,0-1.25.41-1.8.18-.21.1-.62.18-.93a15.29,15.29,0,0,1,.54-1.9c.22-.54.61-1,.85-1.56s.71-.81.63-1.42c0-.11.15-.22.19-.35.16-.47.29-.95.47-1.41a9.49,9.49,0,0,1,.7-1.67c.45-.72,1-1.38,1.51-2.06a2.37,2.37,0,0,0,.25-.47,1.15,1.15,0,0,1,.76-.43c.29,0,.36.18.47.44.45,1,0,2.1.1,3.14a13.41,13.41,0,0,1-.11,1.4c-.08,1-.14,2.07-.22,3.1A4.25,4.25,0,0,1,276,29a1.07,1.07,0,0,0,0,.5,6,6,0,0,0,.27.92c.11.32.24.63.35.95a.45.45,0,0,1,.05.19,4,4,0,0,1-.31,2,7.1,7.1,0,0,0-.39,1.62c-.08.33-.2.64-.29,1a3.6,3.6,0,0,0-.1,2,3,3,0,0,0,.8,1.21c.26.26.51.53.83.87L278.38,39a3.83,3.83,0,0,0,.28-.29.65.65,0,0,0,.16-.22c.07-.52.12-1,.21-1.56a1.63,1.63,0,0,1,.2-.45.78.78,0,0,0,.07-.25c0-.84,0-1.67,0-2.51a4.81,4.81,0,0,0-.12-.75c.27-.35.08-.82.11-1.27a1,1,0,0,1-.18-1.31,8.85,8.85,0,0,0,.19-3,.25.25,0,0,0,0-.13,1.05,1.05,0,0,1-.06-1.29.59.59,0,0,0,.09-.31c0-.52,0-1,0-1.54,0-1.4,0-2.79,0-4.18a1.35,1.35,0,0,1,1.29-1.33,2.09,2.09,0,0,0,.46-.12,4.32,4.32,0,0,1,.86-.21c1.66,0,3.31-.06,5-.08a.61.61,0,0,1,.33,0c.65.37,1.11,0,1.55-.38.28-.26.6-.5.61-.95a.82.82,0,0,0-.8-.84,3.34,3.34,0,0,1-1.4-.25.45.45,0,0,0-.3,0,1.4,1.4,0,0,1-1.15.08,2.52,2.52,0,0,0-1.49,0c-.28,0-.57,0-.86,0a7.91,7.91,0,0,0-1.46.1,7.13,7.13,0,0,1-1.77.25c-.27,0-.49-.46-.31-.65a2.21,2.21,0,0,1,.45-.47A5.64,5.64,0,0,0,281.39,14a2.66,2.66,0,0,1,1.21-.95,5.51,5.51,0,0,0,1.12-.73l1.5-.91a5.5,5.5,0,0,0,1.3-1.2,1.73,1.73,0,0,1,.41-.4A14,14,0,0,1,288.4,9a4.47,4.47,0,0,0,1.08-.84c.09-.08.23-.17.32-.15.47.08.73-.26,1.06-.45s.71-.38,1.07-.56l1.34-.66a.75.75,0,0,1,.12-.07,8.86,8.86,0,0,1,1.61-.2,2.2,2.2,0,0,0,1.79-.67,1,1,0,0,1,.35-.2,14.92,14.92,0,0,0,1.48-.46A10.3,10.3,0,0,0,299.78,4,.23.23,0,0,1,299.9,4c.7.05,1.24-.47,1.91-.51a7.92,7.92,0,0,1,2.33-.11,1.88,1.88,0,0,0,1.32-.26,1.39,1.39,0,0,1,.46-.09,5.89,5.89,0,0,1,1.92,0,3.49,3.49,0,0,0,1.85-.3,1.06,1.06,0,0,1,.53,0c.47.09.94.21,1.42.32l2.35.48a8.73,8.73,0,0,0,2.07.52c.11,0,.21.13.33.17l1.6.43c.28.07.56.17.83.26l1,.32.66.17,1.64.37a1.12,1.12,0,0,1,.24.13c.21.09.43.17.63.28s.57.33.86.47c.57.27,1.15.51,1.72.78s1.43.37,2,1a7.14,7.14,0,0,0,.75.53c.25.2.44.47.7.64.47.33,1,.6,1.48.91a9.06,9.06,0,0,1,.92.6c.71.58,1.4,1.16,2.09,1.77.43.37.82.78,1.23,1.18.15.15.06.33-.07.47-.58.6-1.33.43-2,.51-.47.06-.92.19-1.39.24a1.79,1.79,0,0,1-.59-.13,2.67,2.67,0,0,0-.26-.09c-.59,0-1.19-.09-1.79-.12s-1.2,0-1.8-.07a1,1,0,0,0-1,.62,2.11,2.11,0,0,0-.24,1.13.64.64,0,0,0,.45.71c.29.1.55.28.83.4a2.73,2.73,0,0,0,2,0,1,1,0,0,1,.68,0,4,4,0,0,0,1.84.16,2.32,2.32,0,0,0,1.25-.33,2.48,2.48,0,0,1,2.33-.17c.23.1.53,0,.78.11a2.17,2.17,0,0,1,.67.36c.18.15.31.36.47.52a1.13,1.13,0,0,1,.21,1.13c-.08.18-.16.45-.3.5a2.18,2.18,0,0,1-1.16.18,2.36,2.36,0,0,0-1.49.07,6.3,6.3,0,0,1-2.11.25l-3.27,0a1.55,1.55,0,0,0-1.09.43,9.24,9.24,0,0,0-1.83,2.11,1.32,1.32,0,0,0-.2.79A1.82,1.82,0,0,1,325.1,25a.7.7,0,0,0-.09.44c0,1,0,2.08,0,3.13,0,.42,0,.85,0,1.28,0,.94,0,1.88.07,2.82a.68.68,0,0,0,.09.22c0,.07.07.18,0,.21-.27.28-.16.62-.18.94A11.56,11.56,0,0,0,325,35.6a2.08,2.08,0,0,0,.25,1.12,1.18,1.18,0,0,1,.11,1.22,1.79,1.79,0,0,0,.37,1.74c.28.24.56.47.86.68a.62.62,0,0,0,.39,0,2,2,0,0,0,1.54-.95,1.67,1.67,0,0,0,.31-1.26,4.31,4.31,0,0,0-.27-.73c-.06-.24-.1-.49-.14-.73a3.82,3.82,0,0,0-.23-1.35,1.76,1.76,0,0,1-.25-1.12,2.65,2.65,0,0,1,.23-.56,1,1,0,0,0,.05-.16c0-.59.05-1.18.05-1.77a3.42,3.42,0,0,0-.18-.6,1,1,0,0,1,.06-.93.83.83,0,0,0-.06-.84.52.52,0,0,1,0-.37,4.53,4.53,0,0,0,.27-.81c.06-.75,0-1.5.09-2.25a1.38,1.38,0,0,1,.22-.48.61.61,0,0,0,0-.12l.21-1.36a.72.72,0,0,1,.08-.22c.18-.28.38-.55.57-.82a6.76,6.76,0,0,1,1.15-.2c.55,0,1.1.09,1.64.12a6.92,6.92,0,0,0,1.21,0,5.64,5.64,0,0,0,.78-.29.56.56,0,0,1,.53.09,1.39,1.39,0,0,0,.79,0c.23,0,.45-.16.68-.2.42-.07.84-.09,1.25-.18a6,6,0,0,0,.91-.29c.26-.1.52-.21.77-.33a.81.81,0,0,0,.53-.56.4.4,0,0,1,.51-.31c.25.09.6.09.65.46a.2.2,0,0,1,0,.07,2.06,2.06,0,0,0,.67,1.63.56.56,0,0,1,.1.29,3,3,0,0,0,.76,1.44.84.84,0,0,1,.22.5,2.17,2.17,0,0,0,.47,1.37c.3.42.36,1,.7,1.4.53.57.22,1.25.44,1.84.07.18.14.36.19.54s.13.59.21.88.13.39.2.58a3.41,3.41,0,0,1,.28.77,3.19,3.19,0,0,0,.43,1.28A4.05,4.05,0,0,1,345.8,35a1.51,1.51,0,0,1,0,.52,3.3,3.3,0,0,0,.38,2,.48.48,0,0,0,.13.16c.26.34.55.66.78,1a1,1,0,0,1,0,1.11.79.79,0,0,0-.06.83,5.17,5.17,0,0,1,.19.64c.12.46.06,1,.44,1.33,0,0,0,.11,0,.16.07.45.12.91.22,1.36.05.21.28.39.31.61.09.61.12,1.23.16,1.85,0,.23,0,.44.22.61s.12.31.13.48c0,1.15.09,2.32.15,3.47a.89.89,0,0,0,.15.52c.25.3.17.63.19,1s0,.54,0,.8c.05,1.16.08,2.31.17,3.46,0,.3.25.58.28.88A3.13,3.13,0,0,1,349.5,58.7ZM326.92,76.37c.07-.14.33-.23.52-.29a2.23,2.23,0,0,1,.45,0c.31,0,.62-.11.93-.13.52,0,1.05-.06,1.58-.07a13.64,13.64,0,0,1,1.43,0c.24,0,.47.15.71.16s.49-.09.74-.1c.51,0,1,0,1.54,0l.83,0c.57,0,1.11,0,1.4.65,0,.06.16.07.25.1a3.34,3.34,0,0,1-.59,1.94,1,1,0,0,1-.63.44,12.23,12.23,0,0,1-1.46.31.57.57,0,0,1-.36-.07,4.54,4.54,0,0,0-1.9-.18c-1.52-.08-3.05-.06-4.58-.1a4.12,4.12,0,0,1-.76-.16.22.22,0,0,1-.11-.15A3.28,3.28,0,0,1,326.92,76.37Zm-3.46,2.15A.44.44,0,0,1,323,79c-.26,0-.51,0-.77,0a1.66,1.66,0,0,0-.68.17,1.57,1.57,0,0,1-1.53,0,1.22,1.22,0,0,0-.57,0c-.42.06-.84.17-1.27.2a.87.87,0,0,1-.49-.18,2.61,2.61,0,0,0-1.45-.24,3.69,3.69,0,0,1-1.82-.25c-.58-.29-.65-.32-.65-1V77a.93.93,0,0,1,.87-.93c.66-.08,1.31-.2,2-.3v.17c.79,0,1.57,0,2.36,0,.55,0,1.1-.15,1.66-.2a6.15,6.15,0,0,1,.85,0,2.4,2.4,0,0,0,.65.07c.58-.08.89.32,1.23.66a.47.47,0,0,1,.09.32C323.46,77.39,323.46,78,323.46,78.52ZM281.14,84.3c.31,0,.63,0,.94,0h0a3.49,3.49,0,0,0,.56,0c.48-.09.94-.21,1.42-.28a12.45,12.45,0,0,1,1.37-.12c.37,0,.74,0,1.11,0A1.38,1.38,0,0,1,288,85.05a1,1,0,0,1-.07.47,1.5,1.5,0,0,1-1.1,1c-.28.06-.54.22-.82.3s-.43,0-.64.1-.42.15-.63.21a6.52,6.52,0,0,1-.72.21c-.33.07-.66.11-1,.15a1.3,1.3,0,0,1-.34,0l-1-.13a8.17,8.17,0,0,1-.84-.14.54.54,0,0,1-.39-.58c0-.57,0-1.14,0-1.7S280.66,84.34,281.14,84.3Zm0-6.3a2.12,2.12,0,0,1,1.64-.15,4.53,4.53,0,0,0,1.35.16c.1,0,.2-.09.31-.14a.65.65,0,0,1,.24-.06H287a.46.46,0,0,1,.48.35c.11.33.28.64.41,1a.77.77,0,0,1,.06.3c0,.3,0,.6,0,.9a1.24,1.24,0,0,1-1,1.07c-.23,0-.47,0-.78,0a1.74,1.74,0,0,0-1.34.32.31.31,0,0,1-.17,0c-.85,0-1.71,0-2.57,0a1.21,1.21,0,0,1-1.17-1.13c0-.44-.09-.88-.14-1.32a1,1,0,0,0-.05-.16C280.44,78.59,280.62,78.29,281.17,78Z" fill="#c15254"/><path d="M340.71,46.14c-.07-.38.09-.81-.48-1a11.65,11.65,0,0,1-1.25-.67,2,2,0,0,0-.81-.23c-.53,0-1-.35-1.58-.22a4.9,4.9,0,0,1-1.92-.19,2.17,2.17,0,0,0-1.26-.09,3.74,3.74,0,0,1-.74.15c-1,.1-2-.21-3,.21a.87.87,0,0,0-.52.49.69.69,0,0,0,.19.82,2.68,2.68,0,0,0,1.51.6,1.38,1.38,0,0,1,.67.11,2.28,2.28,0,0,0,1.38.17c.45,0,.89-.2,1.33-.27.2,0,.51-.05.6.07s.49.21.74.22a2.45,2.45,0,0,1,2,.81,2,2,0,0,1,.38,1,.84.84,0,0,1-.71.84c-.28.06-.55.14-.81.22a3.44,3.44,0,0,1-1.71.16,17.25,17.25,0,0,0-3.66-.24h-.24c-.6,0-1.22-.18-1.78.2-.09.06-.25,0-.38,0-.48-.07-1-.13-1.45-.21a.63.63,0,0,1-.35-.09,2,2,0,0,1-.6-1.47c0-.39.07-.78.06-1.17a2.67,2.67,0,0,0-1-2.09A1.11,1.11,0,0,0,325,44a1.52,1.52,0,0,0-.81-.06,1,1,0,0,0-.71.78,8.89,8.89,0,0,1-.13.88c-.05.27-.21.61-.11.8a1.22,1.22,0,0,1,0,1.07,10,10,0,0,0-.28,2.13c0,.45,0,.91,0,1.36a5.77,5.77,0,0,0,0,.83c.08.36.22.71.33,1.06a.3.3,0,0,1,0,.21c-.22.37-.32.8-.78,1a2,2,0,0,1-1.91.15,1.11,1.11,0,0,1-.62-.56,10.06,10.06,0,0,1-.21-1.65c0-.29,0-.58,0-.87,0-.13-.13-.26-.14-.39a3.86,3.86,0,0,1,0-.76c0-.12.14-.22.15-.34a5.34,5.34,0,0,1,.07-1.14,2.4,2.4,0,0,0,0-1.67c-.12-.31-.22-.62-.32-.94,0-.1,0-.24-.07-.33a1.79,1.79,0,0,0-1.53-.88,3.13,3.13,0,0,1-.68-.06c-.52-.1-1-.25-1.54-.34a6.19,6.19,0,0,0-2,.22,4.7,4.7,0,0,1-1.63,0,1.62,1.62,0,0,0-.62,0c-.21,0-.41.12-.62.13a1.23,1.23,0,0,0-1.17,1.14c0,.24,0,.47,0,.7a.82.82,0,0,0,.33.75c.26.23.66.39.58.85,0,0,0,.06.05.09a4,4,0,0,1,.4.69.57.57,0,0,1-.08.45,1.78,1.78,0,0,0-.38,1.2c0,.44,0,.88,0,1.32,0,.23.1.46.13.69a2,2,0,0,1,0,.49,5.47,5.47,0,0,1-.15.58c0,.15,0,.33-.1.43-.45.48-.22,1-.05,1.45a1.46,1.46,0,0,1,0,1.14,3,3,0,0,0,0,1c0,.2,0,.39,0,.59s-.07.5,0,.66a1.53,1.53,0,0,1,.1,1.37,3.06,3.06,0,0,0-.22,1.29c0,.49-.09,1-.12,1.47,0,.3,0,.6,0,.9a4.32,4.32,0,0,0,.1,1.75.58.58,0,0,1,0,.34,1.91,1.91,0,0,0,.68,2.24c.36.24.75.46,1.1.68a2.22,2.22,0,0,0,.41-.24,3,3,0,0,0,.81-.78,2.45,2.45,0,0,0,.17-1c0-.59,0-1.18,0-1.78a1.47,1.47,0,0,1,.13-.66.77.77,0,0,0,0-1,.23.23,0,0,1-.07-.15c0-.36,0-.72,0-1.07s.07-.48.06-.72c0-.42-.06-.85-.08-1.27s0-.95,0-1.42a1.56,1.56,0,0,1,.18-.71c.14-.23.22-.4,0-.6,0,0-.05-.07-.07-.11a3.78,3.78,0,0,1,.14-2.28,2.13,2.13,0,0,0,.2-.62c0-.8,0-1.6,0-2.4a16.32,16.32,0,0,0,0-2c-.1-.7.3-1.26.41-1.89a2.92,2.92,0,0,1,.14-.6c0-.11.11-.25.2-.28a3.81,3.81,0,0,1,.93-.22c.67,0,.83.11,1,.73a4.75,4.75,0,0,1,.27.94c0,1,0,2,0,3a.58.58,0,0,1-.06.3,3,3,0,0,0-.4,1.78c0,.8,0,1.6,0,2.4a2.32,2.32,0,0,0,.29,1.22.93.93,0,0,1,0,.94,1.06,1.06,0,0,0,0,.59c0,.4.27.87.15,1.2a5.14,5.14,0,0,0-.21,1.73,3.27,3.27,0,0,1-.15.69.8.8,0,0,0,.05.72c.1.19.17.54.06.68a1.6,1.6,0,0,0-.18,1c0,.51,0,1-.05,1.53a3.45,3.45,0,0,0,0,1.28,2.8,2.8,0,0,0,.83,1,1.44,1.44,0,0,0,1.92-.64c0-.06,0-.14.08-.18a1,1,0,0,0,.34-.85c0-.46-.13-.92-.19-1.38a3.5,3.5,0,0,1,.15-1.07,15.82,15.82,0,0,0,.05-2c0-.52-.12-1.06.25-1.54,0-.06,0-.22-.06-.34s-.14-.43-.08-.47c.23-.18.15-.4.16-.6.06-.75.09-1.49.15-2.24,0-.25.12-.46.44-.48.77,0,1.54-.12,2.31-.09.54,0,.75.37.75.92s0,1,.05,1.53c0,.28.08.55.09.82a4.88,4.88,0,0,0,.36,2.56s0,0,0,.07a5.75,5.75,0,0,0,.8,1.63,3.53,3.53,0,0,1,.33.71c0,.06,0,.14,0,.2a7,7,0,0,0,1.15,1.41,4.84,4.84,0,0,0,1.9,1,11.91,11.91,0,0,1,1.36.41,2.7,2.7,0,0,0,1.33.25,2.89,2.89,0,0,1,.59,0c.69.13,1.38.27,2.07.44a3.67,3.67,0,0,1,1.37.33c.12.09.37,0,.55,0s.32-.12.49-.14c.77-.07,1.54-.15,2.31-.17a4.51,4.51,0,0,0,1.69-.41.42.42,0,0,0,.32-.43c0-.31,0-.62,0-.92,0,0,0-.14-.06-.16a5.15,5.15,0,0,0-1-.46,7.48,7.48,0,0,0-1.26-.14,5.15,5.15,0,0,0-1.87.24,2.33,2.33,0,0,1-.79,0,4.77,4.77,0,0,0-.9-.13,5.6,5.6,0,0,1-2.94-.47,8.6,8.6,0,0,0-1.08-.37c-.22-.08-.44-.12-.65-.2-.39-.16-.77-.32-1.13-.51a1.92,1.92,0,0,1-1.2-1.39,1.47,1.47,0,0,0-.3-.48,1.51,1.51,0,0,1-.1-.17c-.14-.36-.13-.78-.5-1a.75.75,0,0,1-.14-.47c0-.22,0-.45,0-.66-.06-.48.1-1-.24-1.42,0,0,0-.19,0-.29s.14-.2.15-.31c0-.38,0-.76,0-1.14a1.2,1.2,0,0,1,1-1c.75,0,1.51,0,2.26,0a1.27,1.27,0,0,1,.92.19c.1.08.37,0,.53,0a3.1,3.1,0,0,1,2,0,2.38,2.38,0,0,0,.38,0c.31,0,.61,0,.92,0s.54.18.81.2c.73.05,1.46.05,2.19.08a.76.76,0,0,1,.39.1,1.31,1.31,0,0,0,1.06.05c.22-.06.44-.1.66-.17a2.15,2.15,0,0,0,.76-.27,1.2,1.2,0,0,0,.56-1.28.71.71,0,0,1,0-.14c0-.08,0-.21-.07-.25-.3-.21-.61-.4-.91-.58a.37.37,0,0,0-.21,0,2.1,2.1,0,0,1-.54.12c-.55,0-1.1-.15-1.64-.15-1.61,0-3.23.06-4.84,0a37.36,37.36,0,0,1-5.39-.18.88.88,0,0,1-.83-.9c0-.5.07-1,.11-1.46a1.6,1.6,0,0,1,.35-.17c.38-.07.71-.33,1.17-.13a1.74,1.74,0,0,0,1.19,0,2.52,2.52,0,0,1,.75-.16h2.23a4.48,4.48,0,0,1,.82.1,1.6,1.6,0,0,0,1.1,0c.21-.1.56-.17.69-.06.55.45,1.11.17,1.67.13.25,0,.55-.15.75-.06a1.91,1.91,0,0,0,1.41,0c.26-.09.59-.08.78-.24a2.27,2.27,0,0,0,.91-1.71c0-.62.53-1,.78-1.53a1.1,1.1,0,0,0,.09-.85A4.53,4.53,0,0,1,340.71,46.14Z" fill="#c15254"/><path d="M306.72,67.76a2,2,0,0,0-.21-1,1,1,0,0,1,0-1.21.65.65,0,0,0,.17-.3,6.1,6.1,0,0,0,.06-1.28,2.14,2.14,0,0,1,.34-1.12.78.78,0,0,0,0-.74,1.93,1.93,0,0,1-.3-.86c0-.84,0-1.69,0-2.53a.33.33,0,0,1,0-.2c.24-.34.07-.65,0-1a22.53,22.53,0,0,1,0-2.6,1.11,1.11,0,0,0,.26-1.3c-.07-.15.11-.41.15-.63a2.37,2.37,0,0,0-.34-1.79.55.55,0,0,1-.05-.48,1.9,1.9,0,0,0,.22-1.12c0-.21.11-.41.12-.61,0-.42.19-.85-.1-1.25a1.11,1.11,0,0,1-.27-.61c0-.57-.41-.82-.71-1.16-.15-.18-.42-.26-.59-.43a1.11,1.11,0,0,0-.74-.32.4.4,0,0,1-.22-.06,2.62,2.62,0,0,0-1.46-.43,2.31,2.31,0,0,1-.52-.12,3.06,3.06,0,0,0-1.34-.31c-.52.08-1,.12-1.56.16-.68,0-1.36.05-2,.07a5.69,5.69,0,0,1-1.23-.17,3,3,0,0,0-1.39.24c-.58.2-.81.23-1.19-.22a13.3,13.3,0,0,1-.87-1.25c-.28-.42-.48-.91-1-1.14a1.12,1.12,0,0,0-1.43.66,2.3,2.3,0,0,1-1.05,1.58c-.11.08-.29.06-.41.13a2.3,2.3,0,0,1-1.25.38h-3a1.65,1.65,0,0,1-.46-.15c-.19-.08-.36-.24-.55-.25a7.3,7.3,0,0,0-1.4.07,12.82,12.82,0,0,0-1.36.33l-1.1.23a10.7,10.7,0,0,0-1.11.3,1.45,1.45,0,0,0-.71.36,4.67,4.67,0,0,0-1,1.47,9.05,9.05,0,0,0-.47,1.14c-.12.75-.27,1.5-.36,2.25,0,.35,0,.71,0,1.06,0,.19-.14.37-.12.54,0,.46.14.91.21,1.37a4.91,4.91,0,0,1,.06.67c0,.22-.09.45-.1.67,0,.94,0,1.88-.05,2.82,0,.07-.05.14-.06.21a2.11,2.11,0,0,0-.05.82,3.4,3.4,0,0,1,.14,1.23,7.5,7.5,0,0,0,0,1.42c.07.49.23,1,.33,1.45a.5.5,0,0,1,0,.36c-.14.26-.33.48-.47.74a.84.84,0,0,0-.06.88,1.64,1.64,0,0,1-.07,1.73,1.52,1.52,0,0,0-.18,1.26,8.71,8.71,0,0,1,.26,1,1.92,1.92,0,0,0,.93,1.56,1.7,1.7,0,0,0,.84.33,1.54,1.54,0,0,0,1-.52c.25-.27.56-.48.57-.93,0-.23.22-.46.31-.7a.42.42,0,0,0,0-.33,1.4,1.4,0,0,1-.31-1.26,3.92,3.92,0,0,0,.22-1.31c0-.27.14-.52.17-.79a2.21,2.21,0,0,0,0-.77c-.1-.39-.39-.76-.39-1.14q0-2.94,0-5.88a5.87,5.87,0,0,1,.36-1.33.81.81,0,0,1-.09-.31c0-.53.14-1,.15-1.57,0-.77,0-.71.72-1.1a3.39,3.39,0,0,1,1.75-.34,4.11,4.11,0,0,0,.7-.13,6.05,6.05,0,0,1,1.75-.29,11.75,11.75,0,0,0,1.78,0,1.63,1.63,0,0,0,.87-.24,9.37,9.37,0,0,0,1.25-1.19,1.71,1.71,0,0,0,.6-1.34.83.83,0,0,1,.09-.36,4.69,4.69,0,0,0,.37-.83,1.45,1.45,0,0,1,1.14-1.09,3.59,3.59,0,0,1,2.24.38,1.78,1.78,0,0,1,.8,1.36,1,1,0,0,0,.35.88.87.87,0,0,1,.28.46,2.65,2.65,0,0,0,1,1.62c.55.38,1.07.87,1.84.61a.52.52,0,0,1,.37,0,2.51,2.51,0,0,0,1.75,0,1.45,1.45,0,0,1,.51,0,8.85,8.85,0,0,0,.87.16c.28,0,.56-.15.83-.14.44,0,.86.13,1.3.18a.53.53,0,0,1,.48.41c.11.33.26.64.35,1a1,1,0,0,1,0,.51c-.11.3-.3.59-.14.9a3.16,3.16,0,0,1,.19,2c-.08.49-.36,1-.39,1.44a23.81,23.81,0,0,0,0,2.67,7.75,7.75,0,0,0,.24.78,4.1,4.1,0,0,1,0,1.05c0,.27-.25.51-.25.77,0,1.1,0,2.2,0,3.3a1.34,1.34,0,0,0,0,.35c.15.56.3,1.12.46,1.67a3.34,3.34,0,0,0,.17.44,3.69,3.69,0,0,0,.33.62,1.34,1.34,0,0,0,.51.52.72.72,0,0,0,1-.4,5.26,5.26,0,0,1,.49-.65,1.16,1.16,0,0,0,.39-.87C306.71,68.48,306.75,68.12,306.72,67.76ZM286.35,48.2c-.07.41-.39.6-.64.85a2.2,2.2,0,0,1-1.14.51,8.22,8.22,0,0,1-.82.21,6.49,6.49,0,0,1-.77,0c-.08,0-.16.07-.25.09a3.37,3.37,0,0,1-1.91-.13,2.22,2.22,0,0,0-.45-.07.62.62,0,0,1-.58-.68,1.12,1.12,0,0,1,.57-1.19c.35-.17.73-.3,1.08-.46s.43-.26.66-.36a1.53,1.53,0,0,1,.52-.13c.32,0,.65,0,1,0v0c.48,0,1,0,1.43.13a4.51,4.51,0,0,1,1,.33C286.28,47.41,286.39,47.88,286.35,48.2Zm17.48.16a1.43,1.43,0,0,1-.42,1.06,1.24,1.24,0,0,1-.93.46c-.29,0-.58-.11-.87-.1s-.81.13-1.21.12a8.41,8.41,0,0,1-1.88-.22,1.55,1.55,0,0,1-1.18-.92.71.71,0,0,0-.18-.28.67.67,0,0,1,.08-1.08,4.12,4.12,0,0,1,1.4-.71,1.73,1.73,0,0,1,1.06,0c.42.09.86.11,1.29.18s.59.14.88.2a6.72,6.72,0,0,1,1,.22C303.4,47.51,304,47.79,303.83,48.36Z" fill="#c15254"/><path d="M291.74,25.1a1.85,1.85,0,0,1,1.35.4,1,1,0,0,0,.46.2.53.53,0,0,1,.44.63c0,.37,0,.75,0,1.12a1.15,1.15,0,0,1-.29.85.39.39,0,0,0,0,.52,1.66,1.66,0,0,1,.15,1.63,3.05,3.05,0,0,0-.26,1.21c0,.72,0,1.44,0,2.16a4.05,4.05,0,0,1-.26,1.69c-.06.13-.2.23-.2.35,0,1,0,1.9-.06,2.85a.81.81,0,0,0,.33.63,1,1,0,0,0,1,.15c.45-.13.69-.5,1-.76s.68-.59.57-1.12c0,0,.08-.13.11-.19a1.77,1.77,0,0,0,.3-.62c0-1.16,0-2.32.07-3.48a1,1,0,0,1,.14-.47c.17-.32.46-.61.09-1a.35.35,0,0,1,0-.21,5,5,0,0,0,.2-.76c0-.49,0-1,0-1.48,0-.87.06-1.74.05-2.61a1.16,1.16,0,0,1,.28-.79c.09-.11.16-.25.25-.36s.34-.43.55-.49a8,8,0,0,1,1.54-.28c.18,0,.37.15.56.2a.94.94,0,0,1,.83.82,1.47,1.47,0,0,0,.2.7A1.34,1.34,0,0,1,301.1,28c-.17.18-.17.31,0,.48a.58.58,0,0,1,0,.78,1.28,1.28,0,0,0-.11,1.11,1.34,1.34,0,0,1,.23.6c0,.59,0,1.18,0,1.77a3.6,3.6,0,0,0,.25,1.48,1.41,1.41,0,0,1,.09,1.19,3.13,3.13,0,0,0-.15.88,3.42,3.42,0,0,0,0,.45,6,6,0,0,0,0,1.2,8.13,8.13,0,0,0,.4,1.27.89.89,0,0,0,.57.73,1.42,1.42,0,0,0,1.85-.74,1.42,1.42,0,0,1,.08-.18,2.79,2.79,0,0,0,.17-1.71c0-.32-.22-.63-.24-1-.06-.86-.07-1.73-.09-2.59,0-.29.05-.57.07-.86,0-.86.09-1.72.15-2.59,0-.07.07-.14.07-.21,0-.4.18-.89,0-1.19a1.82,1.82,0,0,1-.13-1.72.59.59,0,0,0,0-.37,1.43,1.43,0,0,1,.31-1.48c.19-.21.41-.19.59-.33.34-.28.73-.5,1.09-.76a1.22,1.22,0,0,0,.64-.81,1,1,0,0,0-.64-1,4.23,4.23,0,0,0-1.93-.26.74.74,0,0,1-.81-1,4.23,4.23,0,0,1,.32-1.49,1.18,1.18,0,0,0,.11-.5,1.38,1.38,0,0,1,1.21-1.49.67.67,0,0,1,.12-.06,8.41,8.41,0,0,1,1-.31c.84-.16,1-.2.89-1,0,0,0,0,0,0a1.35,1.35,0,0,0-.19-.42,3.83,3.83,0,0,0-1.21-.83,1.46,1.46,0,0,0-1.18-.09,3.68,3.68,0,0,1-1.38.18,3.49,3.49,0,0,0-.79.1,2.9,2.9,0,0,1-2.13-.19,1.44,1.44,0,0,0-1-.07,2.76,2.76,0,0,1-.8.15c-1.27,0-2.53,0-3.79,0a4.4,4.4,0,0,0-1,.14,3.72,3.72,0,0,0-1.49,1,1,1,0,0,0,0,1.19,1.07,1.07,0,0,0,.85.28,1.53,1.53,0,0,1,1.35,1.93,2.11,2.11,0,0,0,0,1.17,1.83,1.83,0,0,1-.15,1.36c-.25.48-.74.55-1.14.72a5.6,5.6,0,0,0-1.48.65.71.71,0,0,0-.19.31,1.4,1.4,0,0,0,.19,1.17Zm5.59-6.51c0-.07.06-.14.1-.22.13-.27.25-.56.4-.83.05-.09.17-.21.26-.21a16.31,16.31,0,0,1,2,.05c.25,0,.48.31.69.5a1.4,1.4,0,0,1,.4.52,1.28,1.28,0,0,1,0,.8,1,1,0,0,0-.17.43,5.33,5.33,0,0,0,0,.8c0,.11.14.21.19.32a1.53,1.53,0,0,1-.51,1.81.63.63,0,0,1-.31.05c-.28,0-.57,0-.86,0a2.32,2.32,0,0,1-1.82-.45,1,1,0,0,1-.33-.55C297.31,20.6,297.33,19.6,297.33,18.59Z" fill="#c15254"/><path d="M301.42,68.47s-.05-.07-.08-.1a1,1,0,0,0-1.19-.28,3.82,3.82,0,0,1-.53.2,9,9,0,0,1-2.74.15c-1.23-.11-2.48,0-3.72-.09a2.57,2.57,0,0,1-.79-.24c-.08,0-.12-.21-.19-.22-.45-.08-.37-.44-.41-.73a.93.93,0,0,1,.3-.88c.35-.28.73-.52,1.1-.77a1.33,1.33,0,0,1,.43-.17,5.63,5.63,0,0,0,1.18-.26,2.91,2.91,0,0,1,1.33-.24,1.19,1.19,0,0,0,.32-.1,3.82,3.82,0,0,1,.7-.23c.63-.06,1.27-.08,1.9-.13a.88.88,0,0,0,.81-.43.62.62,0,0,1,.23-.25.88.88,0,0,0,.4-.82c0-.42,0-.83,0-1.25a.54.54,0,0,1,.06-.29,1.22,1.22,0,0,0,.28-1,1.94,1.94,0,0,1,0-.59c0-.45.1-.91.13-1.37a1.07,1.07,0,0,0-.12-.37,3.4,3.4,0,0,1-.33-.94,2.52,2.52,0,0,0-.75-1.65,3.74,3.74,0,0,0-2.17-.93,7.39,7.39,0,0,0-1.42-.07.47.47,0,0,1-.24,0,1.08,1.08,0,0,0-.86-.13,4.86,4.86,0,0,1-.93.07c-.28,0-.83-.45-.83-.72a2.28,2.28,0,0,0-.41-1.14,1.75,1.75,0,0,0-1.18-.77c-.47-.13-1.18.53-1.26,1.05a1.78,1.78,0,0,1-.13.45c-.11.2-.28.38-.37.59a.84.84,0,0,1-.88.66c-.71,0-1.42,0-2.12,0h-1.5a4,4,0,0,0-2.27.51,2.81,2.81,0,0,0-.86.89.82.82,0,0,0,.47,1.25,5.08,5.08,0,0,0,1.29.25,4.24,4.24,0,0,0,1-.15c.23-.05.45-.14.68-.18a7.78,7.78,0,0,0,1.47-.25,3.23,3.23,0,0,1,1.49-.2c.25,0,.68.26.69.42,0,.47.33,1.07-.35,1.38a.33.33,0,0,0,0,.06c-.25.66-.85.76-1.41.89a5.52,5.52,0,0,0-1.54.48c-.41.24-.82.48-1.25.69s-.78.31-1.16.48a.46.46,0,0,0-.26.21c-.2.67-.77,1.17-.83,1.91-.05.47-.26.91-.32,1.38s-.09,1.26-.13,1.89a.61.61,0,0,1-.08.26,1.87,1.87,0,0,0,0,1.45,3,3,0,0,1,0,1,4.91,4.91,0,0,1-.15.51c-.06.36.18.62.32.92a1.12,1.12,0,0,0,1.14.74,6.36,6.36,0,0,0,1.11-.32c.52-.17.57-.72.83-1.09a1.41,1.41,0,0,0,.17-.85,12.62,12.62,0,0,1,0-2.3,1.33,1.33,0,0,0-.23-.83c-.21-.33-.25-.44,0-.7a.3.3,0,0,0,.07-.15c0-.26.1-.52.14-.77s0-.5.1-.68a2.44,2.44,0,0,1,.6-.6,14.85,14.85,0,0,1,1.28-.92,2.07,2.07,0,0,1,1.37-.52c.07,0,.14,0,.22-.08.29-.1.6-.19.89-.32.71-.33,1.52-.39,2.11-1.06a3.49,3.49,0,0,0,.79-2.65.84.84,0,0,1,.9-.9l1,0a3.19,3.19,0,0,1,.61.08c.34.09.68.2,1,.31a2.36,2.36,0,0,1,.59.24c.51.33.51.83.45,1.37a2.59,2.59,0,0,0,.11,1.53.67.67,0,0,1,0,.46c-.14.35-.35.67-.46,1a1.28,1.28,0,0,1-1,.84,6.58,6.58,0,0,0-1.75.37,1,1,0,0,1-.71,0A2.08,2.08,0,0,0,292,63a14.71,14.71,0,0,1-1.26.78,3.76,3.76,0,0,0-.46.2c-.41.31-.81.65-1.21,1-.05,0-.06.12-.08.18-.06.23,0,.5-.39.53-.06,0-.13.23-.14.35,0,.29,0,.58,0,.87a.73.73,0,0,1-.05.3,1.53,1.53,0,0,0,.14,1.72A2.67,2.67,0,0,0,289.75,70a3.26,3.26,0,0,0,1.83.47,1.23,1.23,0,0,1,.4.08,9.87,9.87,0,0,0,1.84.38,15.79,15.79,0,0,1,2.91.3c.16,0,.34.14.49.1.42-.09.81-.27,1.23-.36.85-.2,1.72-.35,2.57-.54.55-.13.73-.44.66-.9A7.63,7.63,0,0,0,301.42,68.47Z" fill="#c15254"/><path d="M311.39,41a2.17,2.17,0,0,0,.87.13c.49,0,1-.17,1.47-.19.84,0,1.69,0,2.53,0a2.53,2.53,0,0,0,1-.21A2.75,2.75,0,0,1,319,40.5c.52.07,1,.25,1.53.33a1.7,1.7,0,0,0,1.68-.84,1,1,0,0,0,.22-.73,1.57,1.57,0,0,0-.56-.9,2,2,0,0,0-1.62-.49,10.3,10.3,0,0,1-2.15,0,.85.85,0,0,1-.59-.56,6.74,6.74,0,0,1,0-1.62,1,1,0,0,1,1.15-.89c.41,0,.83,0,1.24.09a2.29,2.29,0,0,0,1.41-.46.8.8,0,0,0,.37-.38c.19-.5.31-1,.5-1.53.12-.35.31-.69.45-1a.44.44,0,0,0,0-.3,6.4,6.4,0,0,0-.46-1,1.91,1.91,0,0,0-.58-.51,1.65,1.65,0,0,0-.46-.15,2,2,0,0,0-.66.17,2.45,2.45,0,0,0-1,1.42,1.14,1.14,0,0,1-.65,1,1,1,0,0,1-1.16-.2,5,5,0,0,1-.1-2.33,4.65,4.65,0,0,0,.39-1.08.49.49,0,0,1,.31-.43c.28-.13.56-.24.83-.38s.43-.3.65-.43c.48-.28,1-.48,1.17-1.11,0,0,.09-.07.12-.12a4.3,4.3,0,0,0,.6-1.19c.15-.8.16-1.62.23-2.44A2.38,2.38,0,0,1,322,22a1.2,1.2,0,0,0-1.13-1.64,1.45,1.45,0,0,1-.3-.06,1.55,1.55,0,0,0-1.06-.12,3.16,3.16,0,0,1-.69,0l-1.89.1a5.06,5.06,0,0,1-.87,0c-.68-.09-1.35-.23-2-.31a7.36,7.36,0,0,0-.8.12c-.47,0-.93-.09-1.39-.13a2.81,2.81,0,0,0-1.57.45.85.85,0,0,0-.34.27,1.84,1.84,0,0,0-.25,1.19c.08.52.45.66.73.83a2.23,2.23,0,0,0,1.86.09,1.15,1.15,0,0,1,.52,0,3.21,3.21,0,0,0,.52.11c.58-.05,1.16-.12,1.74-.19.2,0,.39-.11.59-.12a1.79,1.79,0,0,1,.83,0,1.2,1.2,0,0,0,1,0,.74.74,0,0,1,1.05.57,3.38,3.38,0,0,0,.13.42,1.5,1.5,0,0,1-.44,1.25,4.34,4.34,0,0,1-1.05.44,12.55,12.55,0,0,1-1.5.19c-.1,0-.21,0-.31,0-.8-.08-1.6-.18-2.4-.2s-1.4.07-2.1.1c-.33,0-.67,0-1,0a1.22,1.22,0,0,0-.86.8c0,.05,0,.1.05.15a1.21,1.21,0,0,1,.08.25,1.39,1.39,0,0,0,.93,1.27,7.79,7.79,0,0,0,1.79.43,11.12,11.12,0,0,0,1.53.06.75.75,0,0,1,.68.5,3.13,3.13,0,0,1,.27,1.63c0,1.43,0,2.85,0,4.27,0,.91,0,1.81,0,2.72a.69.69,0,0,1-.29.55,1.65,1.65,0,0,1-1.41,0,1.23,1.23,0,0,1-.61-1.6,3.21,3.21,0,0,0,.1-.88,1.86,1.86,0,0,1,.15-1.29s0-.13,0-.19a1.63,1.63,0,0,1,0-1.17c.13-.33.32-.68.07-1a2.58,2.58,0,0,1-.3-.54,1.11,1.11,0,0,0-1.13-.78c-.39,0-.79-.1-1.15.3A1.84,1.84,0,0,0,308.9,32a5.73,5.73,0,0,1-.14.91c0,.24-.17.45-.06.71a6.45,6.45,0,0,1,.2.87,2.8,2.8,0,0,0,.13.41.71.71,0,0,1,0,.8,1.39,1.39,0,0,0-.16.57c-.07.55-.13,1.09-.2,1.64a.18.18,0,0,1,0,.1.78.78,0,0,0,.13,1.07,5.83,5.83,0,0,0,1.37,1.25C310.59,40.55,311,40.79,311.39,41Z" fill="#c15254"/><path d="M281.34,37.93a2.33,2.33,0,0,0,1.51,1.2,6.12,6.12,0,0,0,2.41.32,3.18,3.18,0,0,1,1,.07,2.3,2.3,0,0,0,1.79-.29.8.8,0,0,1,.46-.19c.35,0,.51-.22.73-.38s.15-.23.25-.26c.26-.08.21-.28.24-.47s.1-.57.14-.86a3.88,3.88,0,0,0,0-.76,1.81,1.81,0,0,1,.25-1.5.21.21,0,0,0,0-.19,1.13,1.13,0,0,1,0-1.2.79.79,0,0,0-.07-.65,1.72,1.72,0,0,1,0-1.7.49.49,0,0,0,.06-.46,2.63,2.63,0,0,1-.45-1.72c0-.59,0-1.19,0-1.78,0-.12-.12-.23-.13-.35a5,5,0,0,1,0-.77c0-.16.14-.3.15-.45,0-.4,0-.79,0-1.19h0c0-.43,0-.86,0-1.28a.49.49,0,0,0-.05-.3,2.75,2.75,0,0,0-.95-.84,1.36,1.36,0,0,0-1.68.75,16.25,16.25,0,0,0-.21,1.69,3.33,3.33,0,0,0,.16.86c0,.17.07.35.12.53a2.34,2.34,0,0,1,.18.48,7.47,7.47,0,0,1,0,1.42,1.38,1.38,0,0,1-.44.87,1.87,1.87,0,0,1-1.87.19c-.23-.1-.49-.18-.49-.56a3,3,0,0,0-.24-.77,1.39,1.39,0,0,1-.12-.59c0-.33.18-.64.24-1a3.67,3.67,0,0,0,.05-.66c0-.79.09-1.58.08-2.38,0-.37-.65-.77-1-.74a2.38,2.38,0,0,0-1.47.81.68.68,0,0,0-.21.44c0,.81,0,1.62-.05,2.43a15.94,15.94,0,0,1-.14,3.16,20.13,20.13,0,0,0-.35,2.06c0,.06-.07.1-.07.15a8.7,8.7,0,0,0,0,1.35,5.3,5.3,0,0,1,.28,1.37c-.05.5-.08,1-.14,1.49,0,.24-.12.47-.18.71a.22.22,0,0,0,0,.14c0,.29.09.59.13.88A3.6,3.6,0,0,0,281.34,37.93ZM284,32.85a2.18,2.18,0,0,1,.53-1.22.92.92,0,0,1,1.22-.29,5.5,5.5,0,0,1,.81.27,1.8,1.8,0,0,1,.64.55.72.72,0,0,1-.06.6.93.93,0,0,0,0,1,2.07,2.07,0,0,1-.06,2,3,3,0,0,0-.19.82.68.68,0,0,1-.78.53,1.71,1.71,0,0,1-1.29-1,2.59,2.59,0,0,0-.53-.7,1.06,1.06,0,0,1-.32-.81C284,34,284,33.44,284,32.85Z" fill="#c15254"/><path d="M307.75,87.82a.44.44,0,0,0-.2,0h-1.32c-.31,0-.63,0-.94,0a1.91,1.91,0,0,0-.91.22c-.22.08-.43.12-.52.39a.66.66,0,0,1-.28.32,1.67,1.67,0,0,0-.72,1.24,1.56,1.56,0,0,1-.16.69.81.81,0,0,0,0,1,1.07,1.07,0,0,1,.13.48c.14.87-.41,1.58-.56,2.39-.05.26-.31.48-.35.74a2.08,2.08,0,0,1-.89,1.32.41.41,0,0,1-.15.07c-.25.09-.51.19-.77.27a2,2,0,0,1-.58.14,3.47,3.47,0,0,0-1.69.23,2.42,2.42,0,0,1-1.17.24c-.5,0-1,0-1.49,0a.47.47,0,0,1-.27,0,1.17,1.17,0,0,0-1.3-.22,13.37,13.37,0,0,1-1.79.3,3.82,3.82,0,0,1-.68.07c-.2,0-.4-.09-.61-.09-1,0-2,0-3,0a2.93,2.93,0,0,0-.75.18,7.7,7.7,0,0,0-1.07.3,2.93,2.93,0,0,0-.82.52.67.67,0,0,0,.14,1,10.72,10.72,0,0,1,1.25.68,2.8,2.8,0,0,0,2.44.22,4.78,4.78,0,0,1,1.47-.34c1.13.06,2.27,0,3.41,0a3.41,3.41,0,0,0,1.06-.1,2.77,2.77,0,0,1,1.51,0,2.5,2.5,0,0,0,1.09,0,2.9,2.9,0,0,1,1.84-.2,1.86,1.86,0,0,0,1,0,7.1,7.1,0,0,1,1.66-.26,2,2,0,0,0,.78-.19,2.73,2.73,0,0,0,1.18-.67.15.15,0,0,1,.09,0,1.92,1.92,0,0,0,1.33-1.45,11,11,0,0,0,.31-1.84c0-.14.11-.28.16-.43A3.22,3.22,0,0,0,306,94a5.18,5.18,0,0,1,.25-1.78c.15-.34-.07-.84.44-1.06,0,0,0,0,0-.06a2.12,2.12,0,0,1,1.39-1.27c.54-.12.69-.32.72-.89a.83.83,0,0,0-.3-.74A4.2,4.2,0,0,0,307.75,87.82Z" fill="#c15254"/><path d="M287.1,94.65c.2,0,.4.06.6,0,.65-.06,1.3-.16,1.95-.22.3,0,.6,0,.9,0a2.18,2.18,0,0,0,.47-.16,3.78,3.78,0,0,1,.89-.27,9.92,9.92,0,0,0,2.77-.22c.5-.15,1-.23,1.53-.36a.77.77,0,0,0,.34-.19,11.47,11.47,0,0,0,.81-.91c.25-.33.44-.71.68-1a2.52,2.52,0,0,0,.48-1.52,3.64,3.64,0,0,1,0-.66,5.34,5.34,0,0,0,.16-.53,4.57,4.57,0,0,0,0-.83c0-.12-.11-.23-.12-.34a1.34,1.34,0,0,1,.16-.71,3,3,0,0,0,.11-1c.07-.58.14-1.13.8-1.44a2.17,2.17,0,0,1,1.53-.25,18.11,18.11,0,0,0,2.86.28,1.76,1.76,0,0,0,1.18-.22c.45-.29,1-.48,1.4-.78a.88.88,0,0,0,.06-1.32,2.45,2.45,0,0,0-1.15-.57c-1.32-.07-2.64,0-4,0v-.06h-3.37c-.49,0-1-.08-1.36.4,0,0-.1,0-.16.07a1.89,1.89,0,0,0-1,1.29,18,18,0,0,1-.18,4.27,12.94,12.94,0,0,1-.48,2.37,2.59,2.59,0,0,1-1.38,1.36c-.23.1-.44.24-.67.33a3.29,3.29,0,0,1-1.54.52,6.23,6.23,0,0,0-1.83.06,5.63,5.63,0,0,1-1.92,0,4.18,4.18,0,0,0-1.13.19c-.14,0-.27.11-.41.13a1.85,1.85,0,0,0-1.47.78.84.84,0,0,0-.15.59,2,2,0,0,0,1.28,1Z" fill="#c15254"/><path d="M330.84,31a2,2,0,0,0,.11.54c.16.41.48.78.39,1.28,0,0,.05.12.08.18a2.16,2.16,0,0,1,.46,1.16.75.75,0,0,0,.15.5c.3.26.23.59.29.91a2.13,2.13,0,0,0,.33.74c.15.22.42.37.54.61.21.43.6.78.66,1.3,0,.32.34.41.55.56.66.48,1.33.94,2,1.38a4.24,4.24,0,0,0,1.34.68,17.59,17.59,0,0,0,1.94.11.78.78,0,0,0,.84-.34.61.61,0,0,0,0-.72c-.25-.3-.48-.62-.77-.91a4.21,4.21,0,0,0-1.49-1,1.78,1.78,0,0,1-.75-.59c-.28-.35-.49-.75-.77-1.11a5.29,5.29,0,0,0-.61-.65c-.13-.12-.32-.19-.42-.33a3,3,0,0,1-.56-1.48,1.82,1.82,0,0,0-.11-.3c-.2-.57-.4-1.13-.59-1.7,0-.1-.05-.2-.08-.3a1.24,1.24,0,0,1,0-1.08,4.42,4.42,0,0,0,.32-1.16c.12-.45.21-.92.73-1.1a4.67,4.67,0,0,1,.76-.17c.45-.07.91-.1,1.36-.18a8.28,8.28,0,0,1,1.2-.26,4.61,4.61,0,0,0,1.05-.34c.43-.12.42-.43.41-.77a2.09,2.09,0,0,1,0-.25.67.67,0,0,0-.53-.59,3.39,3.39,0,0,0-.9-.15c-.3,0-.66,0-.89-.11a2.74,2.74,0,0,0-1.21-.23,2,2,0,0,0-.67.06,20.94,20.94,0,0,1-2.36.61,5.82,5.82,0,0,0-1.73.81,2.13,2.13,0,0,0-.42.43,4.77,4.77,0,0,0-.45.94c-.11.38-.13.78-.22,1.17,0,.18-.18.34-.22.52s-.1.5,0,.59C330.86,30.42,330.82,30.68,330.84,31Z" fill="#c15254"/><path d="M311.25,17.66a8.29,8.29,0,0,0,2.06.09c.07,0,.13-.09.2-.14a2,2,0,0,1,1.85-.17,3.71,3.71,0,0,0,1.14.31c1.29,0,2.59,0,3.88,0,.67,0,1-.43,1.34-.86a3.92,3.92,0,0,0,.4-.76,1.89,1.89,0,0,0-.13-.33c-.11-.2-.19-.47-.36-.57a3.56,3.56,0,0,0-2.14-.25c-.34,0-.68.18-1,.19-1.07,0-2.15.05-3.23.05l-3.93,0a1.32,1.32,0,0,0-.68.17,2.5,2.5,0,0,0-.71.66c-.18.28.07.51.26.7C310.52,17.05,310.83,17.55,311.25,17.66Z" fill="#c15254"/><path d="M18,65.45V60.13c0-1.25,1-1.9,3-1.9,1.81,0,2.71.65,2.71,1.9v5.32h15c2.21,0,3.41,1.1,3.61,3.21V88.22c0,2.51-1.2,3.76-3.51,3.81H23.67v10.79c0,1.4-.9,2.15-2.71,2.25-2-.15-3-.8-3-2V92H3.51C1.2,91.93.05,90.78,0,88.47V68.76c.05-2.21,1.25-3.31,3.56-3.31Zm0,5.42H6.62a1,1,0,0,0-1.1.9V85.66a1.11,1.11,0,0,0,1.2,1H18Zm18.85,1.3a1.23,1.23,0,0,0-1.1-1.3h-12v15.8h12c.75,0,1.15-.51,1.15-1.56Z" fill="#231815"/><path d="M68.62,63.9V59.38c.2-1,1-1.5,2.65-1.6,1.91.1,2.91.8,2.91,2.15v4H88a2.14,2.14,0,0,1,2.35,2.45v13h2.86c1,.2,1.56,1.21,1.56,3,0,2-.6,3-1.71,3H76.79c2.71,5.77,7.88,10.08,15.5,13,1.3.4,2,1,2.16,1.76,0,2.81-1.06,4.21-3.06,4.21a8.56,8.56,0,0,1-3.51-1,30.45,30.45,0,0,1-15.8-15.65c-3,6.57-9,12-18.11,16.2a4.74,4.74,0,0,1-2.46.8c-1.6-.05-2.51-1.35-2.81-4A4.46,4.46,0,0,1,49.61,99c8.82-3.61,14.54-8.12,17.2-13.64H49.91c-1.31,0-2-1-2-3.21,0-1.45.5-2.36,1.51-2.71h3v-13c0-1.6.7-2.45,2.2-2.45Zm-.1,15.49c0-.65.1-1.3.1-2v-8H58.74c-.66,0-1,.4-1.06,1.11v8.82Zm5.66-2c0,.7-.05,1.35-.05,2H85v-9c0-.61-.3-.91-.86-.91h-10Z" fill="#231815"/><path d="M115.72,60.43A2.42,2.42,0,0,1,117.27,63c0,1.81-.65,2.66-1.86,2.66h-5a45.62,45.62,0,0,1-1.91,9h5.22c1.55.1,2.36,1,2.41,2.71l-.05,23.92c0,1.76-1,2.66-2.76,2.66h-7.83a2.52,2.52,0,0,1-2.76-2.71V84.81a1.8,1.8,0,0,1-.2.25,2.38,2.38,0,0,1-1.6.7,2.65,2.65,0,0,1-2.41-4.41c3.36-3.91,5.77-9.13,7.17-15.65h-4.91c-1.2,0-1.81-1-1.86-2.86a2.17,2.17,0,0,1,1.61-2.41ZM107.24,81.2V97.6c0,.8.25,1.25.75,1.3h2.56c.5-.1.75-.55.8-1.3V81.25c0-.65-.25-1-.75-1.15h-2.71A1.11,1.11,0,0,0,107.24,81.2Zm15.7-3.51V64.9h-3c-1.16,0-1.76-.91-1.81-2.76a2.27,2.27,0,0,1,1.51-2.41H142.8a2.45,2.45,0,0,1,1.55,2.61c0,1.71-.6,2.56-1.8,2.56h-2.36V77.69h3.16a2.39,2.39,0,0,1,1.51,2.56c0,1.7-.61,2.55-1.76,2.55h-2.91V103c0,1.2-.85,1.85-2.51,1.85-1.9,0-2.86-.6-2.86-1.8V82.8h-7c-.55,9-2.55,16-6,21a2.18,2.18,0,0,1-2,1,3.08,3.08,0,0,1-3-3,2.6,2.6,0,0,1,.5-1.55q4.59-6.33,5.42-17.46h-3.56c-1.16,0-1.76-.9-1.76-2.76a2.23,2.23,0,0,1,1.51-2.35Zm5,0h6.87V64.9H128Z" fill="#231815"/><path d="M165.62,82.55c.2-1.75.4-3.86.5-6.32a2.81,2.81,0,0,1,2.66-1.35c1.76.2,2.66.8,2.66,1.86a52.39,52.39,0,0,1-.3,5.81H182c2.26.1,3.41,1.31,3.41,3.71V96.8c0,.9.41,1.3,1.26,1.3h1.5c.81,0,1.41-2.31,1.86-7a2.48,2.48,0,0,1,2.26-1c1.65.1,2.5.7,2.5,1.85q-.37,11.9-6.17,11.89h-4.51a4.68,4.68,0,0,1-4.26-3.91V90.38A2.41,2.41,0,0,0,178,87.77h-7.77a22.52,22.52,0,0,1-3.06,7,17.05,17.05,0,0,1-6.92,6.42c-3.42,1.81-6.27,2.76-8.68,2.76a2.88,2.88,0,0,1-3.11-2.86A3.56,3.56,0,0,1,149,98.9a4.16,4.16,0,0,1,1.71-.65c7.77-1.4,12.33-4.91,13.69-10.48H153.13c-1.2,0-1.75-.9-1.75-2.56s.55-2.46,1.65-2.66Zm9-22.37v1h14a3.85,3.85,0,0,1,3.67,4.21,34.43,34.43,0,0,1-1.06,4.56,4.42,4.42,0,0,1,.86-.1c1.6.1,2.45.76,2.45,2a18.54,18.54,0,0,1-.4,4.16c-.6,2.31-2.51,3.41-5.72,3.41h-7.82c-3.21,0-5.12-1.15-5.72-3.56V66.15h-7.72c0,.25.05.5.05.7,0,4.52-1.21,7.68-3.51,9.43C161,79,156.9,80.4,151.48,80.4c-1.61,0-2.36-1.26-2.36-3.82a3,3,0,0,1,2.16-1.65c5.11-.3,8.22-1.31,9.28-3,.85-.65,1.3-2.56,1.4-5.77h-5.72a1.69,1.69,0,0,0-1.2.75v4.47c0,1.35-.85,2-2.56,2-1.4,0-2.2-.45-2.51-1.4V63.24c.51-1.4,1.31-2.1,2.51-2.1h16.6V60.08c0-1.1.86-1.75,2.61-2C173.65,58.18,174.65,58.88,174.65,60.18ZM180,73c0,.91.8,1.36,2.5,1.36h5.22c1.26,0,1.91-.4,1.91-1.26.05-.25.1-.5.15-.7a1.91,1.91,0,0,1-1.11.3c-2.3-.45-3.46-1.3-3.46-2.61a9.25,9.25,0,0,1,1.46-2.65,1.24,1.24,0,0,0-.9-1.26H180Z" fill="#231815"/><path d="M211.22,58.93c2.2.1,3.36,1.15,3.51,3.16,0,1.6-1.16,5.67-3.41,12.14a1.17,1.17,0,0,0,.45,1c2.41,3.86,3.66,7.22,3.66,10.13-.1,4.87-2.56,7.27-7.42,7.27a14.51,14.51,0,0,1-3-.4v10.89c-.15,1.1-1,1.7-2.36,1.7s-2.31-.6-2.41-1.7V61.89c0-1.71,1-2.66,3.06-3Zm-2.41,29c1,0,1.5-1,1.5-2.91a16.82,16.82,0,0,0-3.51-8.12,2.19,2.19,0,0,1-.8-1.76,5.49,5.49,0,0,1,.6-2.26c.91-2.61,1.81-5.21,2.76-7.87a1,1,0,0,0-.9-1H206.1a1,1,0,0,0-1,1V87.12C206.15,87.37,207.41,87.62,208.81,87.92Zm34-7.93c.9.21,1.35,1,1.35,2.51,0,1.71-.5,2.56-1.51,2.56h-6.92V97.4c0,1.2.35,1.75,1.11,1.75h1.9c.91,0,1.41-1.05,1.41-3.26,0-.7.05-1.9.05-3.56.3-.65,1.1-1,2.45-1.1,1.51,0,2.31.5,2.31,1.5,0,3.06-.1,5.52-.25,7.43-.35,2.61-1.75,4-4.26,4h-6.37c-1.81,0-2.91-1.15-3.26-3.31V85.06h-3.46q-.15,6.47-.91,8.43a18.28,18.28,0,0,1-7,10,6.17,6.17,0,0,1-3.06.8c-1.45,0-2.3-.85-2.6-2.51a3.17,3.17,0,0,1,.7-2.3c4.06-1.91,6.52-4.67,7.37-8.18a25.57,25.57,0,0,0,.8-6.27h-5c-1.11,0-1.66-.9-1.66-2.71,0-1.3.4-2,1.31-2.36ZM231.63,60.58v2.56h9.78c2.16.35,3.26,1.71,3.26,4.12q-.82,7.21-1.65,7.67a1.45,1.45,0,0,1-1.26.55c-2.1-.4-3.16-1.2-3.16-2.36a24.92,24.92,0,0,1,1-4.06c0-.5-.36-.85-1-1h-17.3a1.68,1.68,0,0,0-1.16.7v5.07c0,1.35-.85,2-2.45,2-1.36,0-2.16-.45-2.46-1.4V65.25c.45-1.41,1.25-2.11,2.46-2.11h8.67V60.48c0-1,.81-1.7,2.46-1.95C230.68,58.58,231.63,59.28,231.63,60.58Zm4.87,11c.8.2,1.25,1,1.25,2.41,0,1.65-.5,2.45-1.46,2.45H222.85c-1.1,0-1.6-.85-1.6-2.6,0-1.21.4-2,1.25-2.26Z" fill="#231815"/><path d="M379.73,82.7V92.88c.7,4.12,6.82,6.27,18.35,6.37l15.2-.1c1.16.15,1.76,1,1.76,2.66s-.6,2.46-1.76,2.56l-12.34.1c-11.78,0-19.36-1.7-22.77-5-4.11,4.12-6.57,6.17-7.32,6.17a1.54,1.54,0,0,1-1.25-.5,3.89,3.89,0,0,1-1.61-2.66,3.3,3.3,0,0,1,.75-1.9c2.26-1.91,4.22-3.56,5.92-5V86.21q0-1-.9-1h-4c-1.21,0-1.76-1-1.76-2.66s.5-2.55,1.56-2.66h7.67A2.52,2.52,0,0,1,379.73,82.7Zm-6.42-13.84a33.54,33.54,0,0,1,5,2.76c1.11.9,1.66,1.65,1.66,2.26,0,2.1-.85,3.16-2.56,3.16a3.23,3.23,0,0,1-2.26-.91,38.53,38.53,0,0,0-4.26-2.6,2.52,2.52,0,0,1-1.56-2.31,3.15,3.15,0,0,1,1.91-2.91A4.74,4.74,0,0,1,373.31,68.86Zm.6-9.28a46.34,46.34,0,0,1,5.17,2.91c1.1.85,1.7,1.61,1.7,2.26,0,2.1-.85,3.11-2.56,3.11A3.14,3.14,0,0,1,376,67a30.72,30.72,0,0,0-4.57-2.75,2.49,2.49,0,0,1-1.5-2.31A3.15,3.15,0,0,1,371.8,59,4.74,4.74,0,0,1,373.91,59.58Zm17.3,19.91c-.35,8.13-1.75,13.45-4.26,16a2.84,2.84,0,0,1-1.81.91,2.92,2.92,0,0,1-3.06-2.61,5.22,5.22,0,0,1,.31-1.76c2.3-3.46,3.51-8.07,3.56-13.89V64.65a3.76,3.76,0,0,1,3.26-4.06c8.82-.26,15-1.06,18.6-2.36,1.91,0,2.91.85,3,2.46,0,1.8-.45,2.75-1.3,2.8q-2.41,1.37-17.61,2.26a1,1,0,0,0-.7.9v4.57h22.32c1,.1,1.51,1,1.51,2.51,0,2-.6,2.9-1.71,2.9h-8.12v20c0,1.3-.86,1.9-2.56,1.9-1.91,0-2.86-.6-2.86-1.85v-20h-8.58Z" fill="#231815"/><path d="M433.65,59.68a9.58,9.58,0,0,1-.4,2.86c-.91,2.91-1.81,5.52-2.71,7.93v33.2c0,1.2-.91,1.8-2.66,1.8s-2.61-.6-2.81-1.7V81.25a24.65,24.65,0,0,1-2.31,2.91,2.43,2.43,0,0,1-2.1.85c-1.41,0-2.36-.85-2.81-2.61a5,5,0,0,1,1.35-2.51,58.64,58.64,0,0,0,8.88-20,2.43,2.43,0,0,1,2.16-1.75C432.34,58.13,433.5,58.68,433.65,59.68Zm14.29.45c.1,4.12.3,8.08.6,11.84l13.7-1.6c1.2.2,1.85,1.15,1.85,2.75,0,1.91-.6,2.91-1.75,3L449.1,77.59c0,.4.1.8.15,1.1,1.2,6.22,2.55,10.83,4.06,13.94,1.7,3.82,3.11,5.72,4.21,5.72.6,0,.9-.65.9-2a35.54,35.54,0,0,1,1-4.82,3.64,3.64,0,0,1,2.86-1.2,2.79,2.79,0,0,1,2.4,2.45,22.52,22.52,0,0,1-1.9,8.88c-1.11,2.36-2.56,3.56-4.37,3.56-2.91,0-5.86-2.6-8.77-7.77-2.41-4.46-4.37-10.88-5.87-19.21l-9.53,1c-1.66,0-2.46-.9-2.46-2.76a2.59,2.59,0,0,1,1.36-2.65L443,72.62c-.41-4.21-.66-8.47-.66-12.69.25-1.1,1.21-1.65,2.86-1.75C447,58.38,447.94,59,447.94,60.13Zm5.92-.7a54,54,0,0,1,7.87,6.27,2.16,2.16,0,0,1,.61,1.2c-.1,2-1,3-2.76,3.21a2.44,2.44,0,0,1-1.76-.85c-1.7-1.5-3.91-3.36-6.57-5.52-.9-.9-1.35-1.55-1.35-2.05A3.7,3.7,0,0,1,452.61,59,1.83,1.83,0,0,1,453.86,59.43Z" fill="#231815"/><path d="M489.67,64V60.63c.16-1.3,1-2,2.51-2.05,2,0,3.06.8,3.06,2.31V64h13c2.16,0,3.31,1.1,3.51,3.16V81.25c0,2.41-1.15,3.66-3.46,3.71H494.74a28.64,28.64,0,0,1-3.31,10.78q9.1,3.17,21.92,3.16c1.1,0,1.65.76,1.65,2.36a3.63,3.63,0,0,1-.65,2.46,2.52,2.52,0,0,1-2.26.9c-10-.05-18.25-1.4-24.77-4.06-3,2-8,3.51-15.15,4.51a5.94,5.94,0,0,1-2.11-.3,2.69,2.69,0,0,1-1.35-2.41,6.52,6.52,0,0,1,.35-2.45,3,3,0,0,1,1.86-.86,52.79,52.79,0,0,0,10.38-1.6,27.79,27.79,0,0,1-8.48-8.23,3.94,3.94,0,0,1,.55-2.15,6.23,6.23,0,0,1,1.86-1.26,3.32,3.32,0,0,1,2,.56,27.85,27.85,0,0,0,9.12,7.22,19.3,19.3,0,0,0,3-8.63H476.08c-2.25-.1-3.41-1.25-3.46-3.51V67.21c.05-2.16,1.21-3.26,3.46-3.26Zm0,15.54V69.26H479.14a1,1,0,0,0-1.1.9v8.53a1.11,1.11,0,0,0,1.2,1h10.43Zm16.66-8.92a1.24,1.24,0,0,0-1.11-1.31h-10v7.22c0,1.11-.05,2.21-.05,3.21h10c.75,0,1.16-.5,1.16-1.5Z" fill="#231815"/><path d="M536,60.43A2.42,2.42,0,0,1,537.53,63c0,1.81-.66,2.66-1.86,2.66h-5a46.36,46.36,0,0,1-1.9,9H534c1.56.1,2.36,1,2.41,2.71l0,23.92c0,1.76-1,2.66-2.76,2.66h-7.82a2.51,2.51,0,0,1-2.76-2.71V84.81a1.8,1.8,0,0,1-.2.25,2.38,2.38,0,0,1-1.61.7,2.65,2.65,0,0,1-2.4-4.41c3.36-3.91,5.77-9.13,7.17-15.65H521c-1.2,0-1.8-1-1.85-2.86a2.18,2.18,0,0,1,1.6-2.41ZM527.5,81.2V97.6c0,.8.25,1.25.75,1.3h2.55c.51-.1.76-.55.81-1.3V81.25c0-.65-.25-1-.75-1.15h-2.71A1.11,1.11,0,0,0,527.5,81.2Zm15.69-3.51V64.9h-3c-1.15,0-1.75-.9-1.8-2.76a2.27,2.27,0,0,1,1.5-2.41h23.17a2.44,2.44,0,0,1,1.56,2.61c0,1.71-.6,2.56-1.81,2.56h-2.35V77.69h3.16a2.38,2.38,0,0,1,1.5,2.56c0,1.7-.6,2.55-1.75,2.55h-2.91V103c0,1.2-.86,1.85-2.51,1.85-1.91,0-2.86-.6-2.86-1.8V82.8h-7c-.55,9-2.56,16-6,21a2.18,2.18,0,0,1-2,1,3.09,3.09,0,0,1-3-3,2.55,2.55,0,0,1,.51-1.55q4.59-6.33,5.41-17.46h-3.56c-1.15,0-1.75-.9-1.75-2.76a2.23,2.23,0,0,1,1.5-2.35Zm5,0h6.87V64.9h-6.87Z" fill="#231815"/><path d="M585.88,82.55c.2-1.75.4-3.86.5-6.32A2.8,2.8,0,0,1,589,74.88c1.75.2,2.66.8,2.66,1.86a52.39,52.39,0,0,1-.3,5.81h10.83c2.26.1,3.41,1.31,3.41,3.71V96.8c0,.9.4,1.3,1.25,1.3h1.51c.8,0,1.4-2.31,1.85-7a2.5,2.5,0,0,1,2.26-1c1.66.1,2.51.7,2.51,1.85q-.37,11.9-6.17,11.89h-4.51a4.69,4.69,0,0,1-4.27-3.91V90.38a2.4,2.4,0,0,0-1.85-2.61h-7.78a22.06,22.06,0,0,1-3.06,7,17,17,0,0,1-6.92,6.42c-3.41,1.81-6.27,2.76-8.67,2.76a2.88,2.88,0,0,1-3.11-2.86,3.56,3.56,0,0,1,.55-2.16,4.16,4.16,0,0,1,1.7-.65c7.78-1.4,12.34-4.91,13.69-10.48H573.39c-1.2,0-1.76-.9-1.76-2.56s.56-2.46,1.66-2.66Zm9-22.37v1h14a3.84,3.84,0,0,1,3.66,4.21,33.16,33.16,0,0,1-1.05,4.56,4.4,4.4,0,0,1,.85-.1c1.61.1,2.46.76,2.46,2a18.54,18.54,0,0,1-.4,4.16c-.6,2.31-2.51,3.41-5.72,3.41h-7.82c-3.21,0-5.12-1.15-5.72-3.56V66.15h-7.73c0,.25,0,.5,0,.7,0,4.52-1.2,7.68-3.51,9.43-2.81,2.76-6.87,4.12-12.28,4.12-1.61,0-2.36-1.26-2.36-3.82a3,3,0,0,1,2.16-1.65c5.11-.3,8.22-1.31,9.27-3,.86-.65,1.31-2.56,1.41-5.77H576.5a1.69,1.69,0,0,0-1.2.75v4.47c0,1.35-.86,2-2.56,2-1.41,0-2.21-.45-2.51-1.4V63.24c.5-1.4,1.31-2.1,2.51-2.1h16.6V60.08c0-1.1.85-1.75,2.61-2C593.9,58.18,594.91,58.88,594.91,60.18ZM600.22,73c0,.91.81,1.36,2.51,1.36H608c1.25,0,1.9-.4,1.9-1.26,0-.25.1-.5.15-.7a1.9,1.9,0,0,1-1.1.3c-2.31-.45-3.46-1.3-3.46-2.61a9.36,9.36,0,0,1,1.45-2.65,1.24,1.24,0,0,0-.9-1.26h-5.77Z" fill="#231815"/><path d="M642,61.09c0,1.25-.46,2-1.36,2.25-1.3.76-5.62,1.46-12.84,2.16a1.17,1.17,0,0,0-.75.7v3h10.83a2.39,2.39,0,0,1,2.71,2.36v13c0,1.85-.9,2.76-2.61,2.76H627c-.65,9.53-1.51,14.84-2.61,16.05a2,2,0,0,1-2.11,1.2,3.59,3.59,0,0,1-2.35-.6,2.42,2.42,0,0,1-.9-2.21,53.05,53.05,0,0,0,3-16.15V64.05a3.24,3.24,0,0,1,2.11-3c6.92-.71,12-1.61,15.25-2.71C641.1,58.38,642,59.28,642,61.09ZM633.88,82.4c1,0,1.45-.35,1.45-1.15V75.13c-.09-.55-.5-.85-1.25-.85h-7V82.4Zm14.7.85c-.61,10.54-3.06,17.41-7.38,20.67a3.37,3.37,0,0,1-1.75.85,2.83,2.83,0,0,1-3-2.51,4.67,4.67,0,0,1,.3-1.7c4.41-4.67,6.62-10.89,6.72-18.71V65a3.49,3.49,0,0,1,3.11-3.76c6.72-.3,11.44-1.16,14.14-2.61,1.81,0,2.76.75,2.81,2.21,0,1.7-.4,2.6-1.2,2.65-1.2,1-5.57,1.81-13.09,2.51a1,1,0,0,0-.7.85v4.37h15.54c1,.1,1.51,1,1.51,2.51,0,1.95-.6,2.9-1.71,2.9h-4.66v26.19c0,1.25-.85,1.9-2.56,1.9-1.9,0-2.86-.65-2.86-1.85V76.58h-5.26Z" fill="#231815"/><path d="M6.94,140v-18H9.31v18Z" fill="#231815"/><path d="M14.1,140v-18h2.44L26,136.15v-14.1h2.28v18H25.81l-9.43-14.1V140Z" fill="#231815"/><path d="M32.06,134.23,34.3,134a4.86,4.86,0,0,0,.74,2.21,4.07,4.07,0,0,0,1.8,1.39,6.8,6.8,0,0,0,2.76.54,6.56,6.56,0,0,0,2.4-.41,3.35,3.35,0,0,0,1.55-1.1,2.59,2.59,0,0,0,.51-1.54,2.39,2.39,0,0,0-.49-1.48A3.71,3.71,0,0,0,42,132.59a32.64,32.64,0,0,0-3.2-.87,16.73,16.73,0,0,1-3.46-1.12,4.9,4.9,0,0,1-1.92-1.67,4.12,4.12,0,0,1-.63-2.24,4.59,4.59,0,0,1,.77-2.54,4.74,4.74,0,0,1,2.26-1.79,8.46,8.46,0,0,1,3.29-.62,9,9,0,0,1,3.52.65,5.11,5.11,0,0,1,2.35,1.89,5.47,5.47,0,0,1,.88,2.83l-2.28.17a3.67,3.67,0,0,0-1.24-2.57,4.85,4.85,0,0,0-3.13-.87,5,5,0,0,0-3.14.79,2.35,2.35,0,0,0-1,1.9,2,2,0,0,0,.7,1.59,9.29,9.29,0,0,0,3.58,1.28,23.74,23.74,0,0,1,4,1.15,5.45,5.45,0,0,1,2.31,1.83,4.45,4.45,0,0,1,.75,2.55,4.91,4.91,0,0,1-.82,2.7,5.35,5.35,0,0,1-2.36,2,8.23,8.23,0,0,1-3.46.71,10.36,10.36,0,0,1-4.08-.71A5.81,5.81,0,0,1,33,137.46,6.05,6.05,0,0,1,32.06,134.23Z" fill="#231815"/><path d="M54.79,140V124.17H48.87v-2.12H63.1v2.12H57.16V140Z" fill="#231815"/><path d="M66.57,140v-18H69v18Z" fill="#231815"/><path d="M78.33,140V124.17H72.41v-2.12H86.64v2.12H80.7V140Z" fill="#231815"/><path d="M101.49,122.05h2.37v10.37a12.22,12.22,0,0,1-.61,4.3,5.25,5.25,0,0,1-2.21,2.59,7.76,7.76,0,0,1-4.19,1,8.61,8.61,0,0,1-4.13-.87,5,5,0,0,1-2.29-2.52,11.94,11.94,0,0,1-.69-4.5V122.05h2.38v10.36a10.14,10.14,0,0,0,.43,3.45,3.3,3.3,0,0,0,1.5,1.71,5.17,5.17,0,0,0,2.59.6,4.94,4.94,0,0,0,3.73-1.19c.75-.79,1.12-2.32,1.12-4.57Z" fill="#231815"/><path d="M113,140V124.17H107.1v-2.12h14.23v2.12h-5.94V140Z" fill="#231815"/><path d="M124.44,140v-18h13v2.12h-10.6v5.5h9.93v2.1h-9.93v6.11h11V140Z" fill="#231815"/><path d="M148.62,131.26a9.77,9.77,0,0,1,2.4-7,8.14,8.14,0,0,1,6.2-2.53,8.63,8.63,0,0,1,4.48,1.19,7.79,7.79,0,0,1,3,3.31,11.5,11.5,0,0,1-.05,9.71,7.59,7.59,0,0,1-3.13,3.26,8.89,8.89,0,0,1-4.36,1.11,8.46,8.46,0,0,1-4.53-1.23,7.81,7.81,0,0,1-3-3.34A10.08,10.08,0,0,1,148.62,131.26Zm2.45,0a7.21,7.21,0,0,0,1.74,5.11,6.09,6.09,0,0,0,8.8,0,7.65,7.65,0,0,0,1.73-5.35,9.28,9.28,0,0,0-.74-3.83,5.73,5.73,0,0,0-2.17-2.53,5.88,5.88,0,0,0-3.2-.9,6,6,0,0,0-4.34,1.73C151.67,126.66,151.07,128.59,151.07,131.3Z" fill="#231815"/><path d="M169.6,140v-18h12.11v2.12H172v5.56h8.43v2.12H172V140Z" fill="#231815"/><path d="M192.94,140v-18h3.58l4.25,12.71c.39,1.18.68,2.07.86,2.66.2-.65.52-1.61,1-2.88l4.3-12.49h3.2v18h-2.29V125l-5.22,15h-2.14l-5.2-15.28V140Z" fill="#231815"/><path d="M213.81,131.26a9.77,9.77,0,0,1,2.4-7,8.16,8.16,0,0,1,6.2-2.53,8.6,8.6,0,0,1,4.48,1.19,7.73,7.73,0,0,1,3,3.31,11.5,11.5,0,0,1-.05,9.71,7.62,7.62,0,0,1-3.12,3.26,8.92,8.92,0,0,1-4.36,1.11,8.46,8.46,0,0,1-4.53-1.23,7.89,7.89,0,0,1-3-3.34A10.21,10.21,0,0,1,213.81,131.26Zm2.45,0a7.17,7.17,0,0,0,1.75,5.11,6.08,6.08,0,0,0,8.79,0,7.65,7.65,0,0,0,1.73-5.35,9.12,9.12,0,0,0-.74-3.83,5.61,5.61,0,0,0-2.17-2.53,5.85,5.85,0,0,0-3.2-.9,6,6,0,0,0-4.34,1.73Q216.27,127.23,216.26,131.3Z" fill="#231815"/><path d="M234.67,140v-18h6.18a15,15,0,0,1,3.2.26,6,6,0,0,1,2.63,1.28,7.33,7.33,0,0,1,2.13,3.07,12.06,12.06,0,0,1,.7,4.27,12.45,12.45,0,0,1-.48,3.62,8.5,8.5,0,0,1-1.22,2.62,6.49,6.49,0,0,1-1.64,1.63,6.87,6.87,0,0,1-2.14.9,12.43,12.43,0,0,1-2.88.3Zm2.38-2.12h3.83a9.28,9.28,0,0,0,2.78-.33,3.94,3.94,0,0,0,1.61-.93,5.52,5.52,0,0,0,1.32-2.27,10.92,10.92,0,0,0,.47-3.46,8.42,8.42,0,0,0-.92-4.33,4.64,4.64,0,0,0-2.25-2,9.14,9.14,0,0,0-3.07-.37h-3.77Z" fill="#231815"/><path d="M253.46,140v-18h13v2.12H255.83v5.5h9.93v2.1h-9.93v6.11h11V140Z" fill="#231815"/><path d="M270.8,140v-18h8a10.66,10.66,0,0,1,3.65.48,4.09,4.09,0,0,1,2,1.71,5.18,5.18,0,0,1,.74,2.71,4.49,4.49,0,0,1-1.24,3.22,6.2,6.2,0,0,1-3.82,1.66,6.33,6.33,0,0,1,1.44.9,12.43,12.43,0,0,1,2,2.39l3.12,4.88h-3l-2.37-3.73c-.7-1.08-1.27-1.9-1.72-2.48a5.58,5.58,0,0,0-1.2-1.2,3.83,3.83,0,0,0-1.09-.47,6.79,6.79,0,0,0-1.32-.09h-2.75v8Zm2.38-10h5.1a7.8,7.8,0,0,0,2.55-.33,2.79,2.79,0,0,0,1.4-1.08,3,3,0,0,0,.47-1.61,2.71,2.71,0,0,0-.92-2.1,4.37,4.37,0,0,0-2.92-.82h-5.68Z" fill="#231815"/><path d="M289.48,140v-18h2.43l9.43,14.1v-14.1h2.28v18h-2.44l-9.43-14.1V140Z" fill="#231815"/><path d="M315.91,140v-18h2.37v7.37h9.33v-7.37H330v18h-2.38v-8.46h-9.33V140Z" fill="#231815"/><path d="M335,140v-18h2.37v18Z" fill="#231815"/><path d="M341.36,134.23l2.24-.19a5,5,0,0,0,.74,2.21,4,4,0,0,0,1.81,1.39,6.71,6.71,0,0,0,2.75.54,6.56,6.56,0,0,0,2.4-.41,3.3,3.3,0,0,0,1.55-1.1,2.59,2.59,0,0,0,.51-1.54,2.33,2.33,0,0,0-.49-1.48,3.65,3.65,0,0,0-1.62-1.06,32.15,32.15,0,0,0-3.19-.87,16.66,16.66,0,0,1-3.47-1.12,4.93,4.93,0,0,1-1.91-1.67,4.12,4.12,0,0,1-.63-2.24,4.51,4.51,0,0,1,.77-2.54,4.67,4.67,0,0,1,2.25-1.79,8.53,8.53,0,0,1,3.29-.62,8.91,8.91,0,0,1,3.52.65,5.11,5.11,0,0,1,2.35,1.89,5.38,5.38,0,0,1,.88,2.83l-2.28.17a3.63,3.63,0,0,0-1.24-2.57,4.85,4.85,0,0,0-3.13-.87,5,5,0,0,0-3.14.79,2.34,2.34,0,0,0-1,1.9,2,2,0,0,0,.69,1.59,9.29,9.29,0,0,0,3.59,1.28,23.54,23.54,0,0,1,4,1.15,5.39,5.39,0,0,1,2.31,1.83,4.45,4.45,0,0,1,.75,2.55,4.83,4.83,0,0,1-.82,2.7,5.3,5.3,0,0,1-2.36,2,8.2,8.2,0,0,1-3.46.71,10.39,10.39,0,0,1-4.08-.71,5.73,5.73,0,0,1-2.58-2.14A6,6,0,0,1,341.36,134.23Z" fill="#231815"/><path d="M364.09,140V124.17h-5.91v-2.12h14.23v2.12h-5.94V140Z" fill="#231815"/><path d="M374.29,131.26a9.77,9.77,0,0,1,2.4-7,8.16,8.16,0,0,1,6.2-2.53,8.6,8.6,0,0,1,4.48,1.19,7.73,7.73,0,0,1,3,3.31,11.5,11.5,0,0,1-.05,9.71,7.62,7.62,0,0,1-3.12,3.26,8.92,8.92,0,0,1-4.36,1.11,8.46,8.46,0,0,1-4.53-1.23,7.89,7.89,0,0,1-3-3.34A10.21,10.21,0,0,1,374.29,131.26Zm2.45,0a7.17,7.17,0,0,0,1.75,5.11,6.08,6.08,0,0,0,8.79,0A7.6,7.6,0,0,0,389,131a9.12,9.12,0,0,0-.74-3.83,5.61,5.61,0,0,0-2.17-2.53,5.85,5.85,0,0,0-3.2-.9,6,6,0,0,0-4.34,1.73Q376.75,127.23,376.74,131.3Z" fill="#231815"/><path d="M395.19,140v-18h8a10.7,10.7,0,0,1,3.65.48,4.07,4.07,0,0,1,2,1.71,5.1,5.1,0,0,1,.75,2.71,4.49,4.49,0,0,1-1.24,3.22,6.23,6.23,0,0,1-3.82,1.66,6,6,0,0,1,1.43.9,12.11,12.11,0,0,1,2,2.39L411,140h-3l-2.37-3.73c-.7-1.08-1.27-1.9-1.72-2.48a5.37,5.37,0,0,0-1.21-1.2,3.66,3.66,0,0,0-1.08-.47,6.79,6.79,0,0,0-1.32-.09h-2.76v8Zm2.37-10h5.11a7.88,7.88,0,0,0,2.55-.33,2.76,2.76,0,0,0,1.39-1.08,2.89,2.89,0,0,0,.48-1.61,2.71,2.71,0,0,0-.92-2.1,4.37,4.37,0,0,0-2.92-.82h-5.69Z" fill="#231815"/><path d="M418.49,140v-7.6l-6.92-10.35h2.89l3.54,5.41c.66,1,1.26,2,1.83,3,.54-.94,1.19-2,2-3.17l3.48-5.28H428l-7.16,10.35V140Z" fill="#231815"/><path d="M427.85,140v-2.51h2.51V140a4.43,4.43,0,0,1-.49,2.24,3.18,3.18,0,0,1-1.55,1.31l-.62-.94a2,2,0,0,0,1-.9,3.78,3.78,0,0,0,.37-1.71Z" fill="#231815"/><path d="M439.39,140l6.9-18h2.56l7.34,18h-2.7l-2.1-5.43h-7.5l-2,5.43Zm5.18-7.37h6.09l-1.88-5c-.57-1.51-1-2.75-1.27-3.72a22.41,22.41,0,0,1-1,3.42Z" fill="#231815"/><path d="M471.53,133.71l2.37.6a8,8,0,0,1-2.69,4.46,7.35,7.35,0,0,1-4.74,1.54,8.6,8.6,0,0,1-4.72-1.18A7.38,7.38,0,0,1,459,135.7a12.21,12.21,0,0,1-1-4.81A10.62,10.62,0,0,1,459.1,126a7.36,7.36,0,0,1,3-3.17,9,9,0,0,1,4.36-1.09,7.35,7.35,0,0,1,4.53,1.38A7.13,7.13,0,0,1,473.6,127l-2.34.55a5.61,5.61,0,0,0-1.81-2.85,4.82,4.82,0,0,0-3-.89,5.8,5.8,0,0,0-3.46,1,5.26,5.26,0,0,0-2,2.66,11.6,11.6,0,0,0,.11,7.45,5,5,0,0,0,2.07,2.55,5.87,5.87,0,0,0,3,.85,5.1,5.1,0,0,0,3.38-1.16A5.83,5.83,0,0,0,471.53,133.71Z" fill="#231815"/><path d="M475.48,140l6.9-18h2.56l7.35,18h-2.71l-2.09-5.43H480L478,140Zm5.18-7.37h6.09l-1.87-5c-.57-1.51-1-2.75-1.28-3.72a23.57,23.57,0,0,1-1,3.42Z" fill="#231815"/><path d="M494.81,140v-18H501a15,15,0,0,1,3.19.26,6,6,0,0,1,2.63,1.28,7.33,7.33,0,0,1,2.13,3.07,12.06,12.06,0,0,1,.7,4.27,12.45,12.45,0,0,1-.48,3.62,8.5,8.5,0,0,1-1.22,2.62,6.63,6.63,0,0,1-1.63,1.63,7,7,0,0,1-2.15.9,12.43,12.43,0,0,1-2.88.3Zm2.38-2.12H501a9.39,9.39,0,0,0,2.79-.33,4,4,0,0,0,1.61-.93,5.62,5.62,0,0,0,1.31-2.27,10.92,10.92,0,0,0,.47-3.46,8.32,8.32,0,0,0-.92-4.33,4.64,4.64,0,0,0-2.25-2,9.1,9.1,0,0,0-3.07-.37h-3.77Z" fill="#231815"/><path d="M513.6,140v-18h13v2.12H516v5.5h9.94v2.1H516v6.11h11V140Z" fill="#231815"/><path d="M530.83,140v-18h3.58l4.25,12.71c.39,1.18.67,2.07.85,2.66q.32-1,1-2.88l4.3-12.49H548v18h-2.29V125l-5.21,15h-2.15l-5.19-15.28V140Z" fill="#231815"/><path d="M552.83,140v-18h2.37v18Z" fill="#231815"/><path d="M558,140l6.9-18h2.56l7.35,18h-2.71l-2.09-5.43h-7.51l-2,5.43Zm5.19-7.37h6.08l-1.87-5c-.57-1.51-1-2.75-1.28-3.72a22.37,22.37,0,0,1-1,3.42Z" fill="#231815"/><path d="M582.78,134.23,585,134a4.86,4.86,0,0,0,.74,2.21,4,4,0,0,0,1.8,1.39,6.8,6.8,0,0,0,2.76.54,6.63,6.63,0,0,0,2.4-.41,3.35,3.35,0,0,0,1.55-1.1,2.59,2.59,0,0,0,.51-1.54,2.39,2.39,0,0,0-.49-1.48,3.71,3.71,0,0,0-1.62-1.06,32.64,32.64,0,0,0-3.2-.87A16.52,16.52,0,0,1,586,130.6a4.9,4.9,0,0,1-1.92-1.67,4.12,4.12,0,0,1-.63-2.24,4.59,4.59,0,0,1,.77-2.54,4.74,4.74,0,0,1,2.26-1.79,8.46,8.46,0,0,1,3.29-.62,9,9,0,0,1,3.52.65,5.11,5.11,0,0,1,2.35,1.89,5.47,5.47,0,0,1,.88,2.83l-2.28.17a3.67,3.67,0,0,0-1.24-2.57,4.85,4.85,0,0,0-3.13-.87,5,5,0,0,0-3.14.79,2.35,2.35,0,0,0-1,1.9,2,2,0,0,0,.7,1.59A9.29,9.29,0,0,0,590,129.4a23.25,23.25,0,0,1,4,1.15,5.42,5.42,0,0,1,2.32,1.83,4.45,4.45,0,0,1,.75,2.55,4.91,4.91,0,0,1-.82,2.7,5.35,5.35,0,0,1-2.36,2,8.23,8.23,0,0,1-3.46.71,10.41,10.41,0,0,1-4.09-.71,5.84,5.84,0,0,1-2.58-2.14A6.05,6.05,0,0,1,582.78,134.23Z" fill="#231815"/><path d="M601.34,140v-18h2.38v18Z" fill="#231815"/><path d="M608.51,140v-18H611l9.42,14.1v-14.1h2.28v18h-2.44l-9.42-14.1V140Z" fill="#231815"/><path d="M627.67,140v-18h2.38v18Z" fill="#231815"/><path d="M647.67,133.71l2.38.6a8,8,0,0,1-2.69,4.46,7.35,7.35,0,0,1-4.74,1.54,8.57,8.57,0,0,1-4.72-1.18,7.32,7.32,0,0,1-2.77-3.43,12.21,12.21,0,0,1-1-4.81,10.62,10.62,0,0,1,1.07-4.89,7.36,7.36,0,0,1,3-3.17,8.94,8.94,0,0,1,4.35-1.09,7.31,7.31,0,0,1,4.53,1.38,7.08,7.08,0,0,1,2.56,3.85l-2.33.55a5.62,5.62,0,0,0-1.82-2.85,4.8,4.8,0,0,0-3-.89,5.77,5.77,0,0,0-3.45,1,5.26,5.26,0,0,0-2,2.66,11.6,11.6,0,0,0,.11,7.45,4.91,4.91,0,0,0,2.07,2.55,5.87,5.87,0,0,0,3,.85,5.1,5.1,0,0,0,3.38-1.16A5.82,5.82,0,0,0,647.67,133.71Z" fill="#231815"/><path d="M651.63,140l6.9-18h2.56l7.34,18h-2.7l-2.1-5.43h-7.5l-2,5.43Zm5.18-7.37h6.09l-1.87-5c-.58-1.51-1-2.75-1.28-3.72a23.57,23.57,0,0,1-1,3.42Z" fill="#231815"/><path d="M888.65,135.58c-1.7-.69-.67-1.67-.38-2.33s.12-1.41-.35-1.46c-1.43-.13-3-.38-4.24.51a2.21,2.21,0,0,1-2.85,0,2.1,2.1,0,0,0-1.25-.54,36.66,36.66,0,0,1-10.7-1.33c-3.8-.95-7.79-1.27-11.64-2-9.4-1.86-18.83-3.69-27.91-6.9a24.72,24.72,0,0,1-5.63-2.93c-.64-.43-.73-.77-.37-1.44,1.12-2.09,1.93-4.36,3-6.41,1.8-3.3.61-5-1.49-6.58-1.66-1.22-1-1.81-.11-3,1.47-1.92,3.63-3.24,4.64-5.57a2.77,2.77,0,0,0-.24-2.79,7.26,7.26,0,0,0-4.1-3.07A27.93,27.93,0,0,0,819.55,88c-2.44-.43-4.84,1-7.2-.19-.25-.12-.69.13-1,.24a25.5,25.5,0,0,0-3.43,1.41c-3.1,1.55-4.18,6.83-1.86,9.45a2.5,2.5,0,0,0,1.35.74c3.4.9,6.11-1.21,9.07-2.11a4.55,4.55,0,0,1,3.09-.26,69.87,69.87,0,0,0-7.79,7.3c-2.34,2.47-1.16,4.78,1.41,6,1.56.76,3,0,4.52.09,1.13,0,2.12.16,2,1.57-.2,1.86-1.06,3.69-2.75,4.31a3.49,3.49,0,0,0-2.55,3.86c0,.67-.32.92-.68,1.32a23.25,23.25,0,0,1-10.36,6.7,1.65,1.65,0,0,0-1.11,2.48c.47,1.2,3.16,2.21,4.55,2,2.68-.35,4.47-2.23,6.48-3.73.43-.33.12-1.31.88-1.37a2.48,2.48,0,0,0,2-1.51c.87-1.44,1.79-1.54,3.1-.45a5.63,5.63,0,0,0,1.86,1,68.57,68.57,0,0,1,6.78,2.33c7.12,3.21,14.28,6.3,21.7,8.82,4.65,1.57,9.56,2.31,14,4.44a6.88,6.88,0,0,0,5.78.28,7.89,7.89,0,0,1,1.38-.31c3.39-.67,7.08-.15,10.07-2.47.07,0,.23,0,.35,0,.86.58,1.45-.22,2.16-.42,1.56-.82,2.55-2.53,4.51-2.77C888.41,136.81,889.26,135.82,888.65,135.58Z" fill="#231815" fill-rule="evenodd"/><path d="M836.51,81.65c.58,2.23,2.24,1.87,3.82,1.87,3,0,5.71-1.67,8.77-1.62a3.48,3.48,0,0,0,2.34-.54c1-.77,1.56-.2,1.58.89,0,1.43,0,2.85-.07,4.28s-.64,2.23-2.1,2.27c-2.54.06-5.09,0-7.63.15A8.78,8.78,0,0,0,835.83,93a3.1,3.1,0,0,0-.4,3.33A5.19,5.19,0,0,0,841.54,99a54.87,54.87,0,0,1,9.09-1.57c1.52-.17,2.19.59,2.17,2.06s-.14,2.75,0,4.11c.11,1.59-.86,1.9-2.07,2-3.27.17-6.55.3-9.82.47-1.22.07-2.59-.14-3.64.34-2.35,1.09-2.62,2-2.14,4.79.43,2.57.67,2.78,3.18,2.18a74.28,74.28,0,0,1,12.32-1.82c1.72-.12,2.29.19,2.56,2,.6,4.12-1,8.57,1.86,12.51a5.39,5.39,0,0,1,1.14-2.92c.56.63.32,1.25.34,1.81,0,1,1.17.5,1.47,1.19.14.31.54,0,.63-.31.38-1.19,1.54-2,1.72-3.23a76.7,76.7,0,0,0,.79-8.56c.11-3.19.11-3.07,3.25-3.25,2-.12,4.34.85,6.11-1.08.21-.24.51.14.65.41a1.15,1.15,0,0,0,.91.75c2.59.3,5.2-.15,7.79.4.58.13,1.92-.25.44-1.32a1.88,1.88,0,0,1-.46-1.82c.86-.26,1.57.37,2.38.41.11.35.27.7.68.63.16,0,.41-.37.37-.51-.11-.46-.49-.61-1-.58-.86-.66-1.88,0-2.79-.34l.12.16a.38.38,0,0,1-.12-.16c-.48-.4-.91-.85.16-.92a13.85,13.85,0,0,1,2.12.16c.72,0,1.43.08,1.6-1-2.38-.33-4.7-.78-7-.94a84.29,84.29,0,0,0-14-.25c-.9.08-1.06-.17-1.12-1a21.3,21.3,0,0,1,.68-5.28,1.88,1.88,0,0,1,2.06-1.77c2,0,3.93,0,5.9,0,2.42-.09,4.87.35,7.27-.37.53-.16,1.14-.46.58-.82-1.76-1.14-.48-2.52-.27-3.59.42-2.1.63-2.07-1.42-2.41a9.49,9.49,0,0,0-1.07,0c-3.67-.2-7.32-.8-11-.79-.83,0-1.2-.3-1.25-1.29a26.85,26.85,0,0,1,.72-7.58,2.78,2.78,0,0,1,2.09-2.12c2.81-.93,5.78-1.3,8.51-2.49a3.65,3.65,0,0,0,2.31-4c-.15-1.61-1.28-2.47-2.37-3.41-1.46-1.26-4.17-1.12-5.17.48a3.28,3.28,0,0,1-1.79,1.32,67,67,0,0,1-11,3.06c-5.07,1.08-10,2.78-15.22,3.27-1.73.16-3.57.15-5.2,1.06a1.82,1.82,0,0,0-1,2.69C835,80.87,836.29,80.83,836.51,81.65Z" fill="#231815" fill-rule="evenodd"/><path d="M812.9,81.27a13.8,13.8,0,0,1,1.76.16c2.54.51,5.11.94,7.6,1.63a5.3,5.3,0,0,0,4.15-.58c.77-.45.13-1.79,0-2.65-.14-1.29.81-2.34.4-3.64a6.89,6.89,0,0,0-3.15-3.71A26.5,26.5,0,0,0,813,68.87c-2.77-.32-6,2.31-6.38,5-.28,1.93,1.12,3.27,1.7,4.9C809.12,81,810.68,81.45,812.9,81.27Z" fill="#231815" fill-rule="evenodd"/><path d="M882.16,110.48c0,.07.31.17.44.13a2.88,2.88,0,0,0,.66-.42,3,3,0,0,0-.57-.22C882.36,110,882.12,110.13,882.16,110.48Z" fill="#231815" fill-rule="evenodd"/><path d="M854,125.82a.47.47,0,0,0-.3.31c0,.13.09.4.15.4.25,0,.39-.16.46-.47C854.22,126,854.1,125.81,854,125.82Z" fill="#231815" fill-rule="evenodd"/><path d="M1198.43,68.6c-3.29.12-6.49.58-9.82-.56-1.7-.57-2-.87-1.42-2.33a6.36,6.36,0,0,0,.28-.84c.32-1.07.5-2.12-.53-2.93a2.69,2.69,0,0,0-3.13-.49,3.66,3.66,0,0,1-2.92.16,16.63,16.63,0,0,0-3.16-.48A200.34,200.34,0,0,0,1156.38,60c-.86,0-1.52.05-1.07-1.27a4.89,4.89,0,0,0-4.69-6.24c-1.19,0-2.39.38-3.52.31-2.06-.12-2.43,2.06-4,2.51-.08,0-.13.32-.13.49-.06,1.41-1.09,2.44-1.46,3.72-.22.76-.76.91-1.51.89-2.92-.07-5.83.11-8.75.26a65.7,65.7,0,0,1-11.72-.53c-3.29-.41-5.73.29-6.91,4.1-.22.68-.39,1.37-.55,2.06a3.4,3.4,0,0,0,3.85,4c8.25-1.32,16.52-2.47,24.83-3.38a3,3,0,0,1,2.5.63,1.87,1.87,0,0,1,.56,1.79c-.1.49-.44.64-.9.7-1.59.21-3.19.39-4.75.7-2.89.59-5.81.25-8.72.58-5.33.62-10.56,2.62-16,1.27a1.72,1.72,0,0,0-.69.11c-3,.63-4.12,2.84-4.89,5.49a1.92,1.92,0,0,0,1.42,2.73,10.45,10.45,0,0,0,4.94,0c2.85-.48,5.39-2,8.3-2.39,4.48-.67,9-.6,13.49-1.29a30.66,30.66,0,0,1,7.1-.44,2.57,2.57,0,0,1,2,2.87c-.07,1.26-1.1,1-1.86,1.08-1.25.07-2.51-.07-3.75.06-7,.73-13.88,1.93-20.93,1.75-2.67-.06-4.55,1.5-4.79,3.77-.22,2.11,1,3.32,3.13,3.36,2.79.05,5.33-1.11,8-1.41,6-.66,12.06-1.21,18.09-1.77.75-.07,1.74-.4,2.21.25a5.22,5.22,0,0,1,1.13,3.64c-.15,1-1.49.67-2.32.83s-1.43.07-2.13.17c-3.13.49-6.29.23-9.42.5a61.36,61.36,0,0,1-9.58.36c-1.91-.13-3.81-.29-5.43,1.1a3.7,3.7,0,0,0-1.2,3.52c.21,1.19,1.58.71,2.45.73,3.69.08,7.34-.56,11-.47,4.93.12,9.88.17,14.81,0,1.9-.06,1.55,1.52,1.85,2.26.37.9-1,.65-1.54.7-3.81.41-7.63.72-11.45,1-3.45.23-6.9.48-10.35.53-3.28,0-5.39,2.15-5.16,5.39.08,1.19.52,1.62,1.79,1.53,2.38-.17,4.69-.72,7-1,4.73-.64,9.52-.6,14.25-1.27a32.82,32.82,0,0,1,4-.06c1.06,0,2,1.19,3.18.94a4.58,4.58,0,0,1,2.21.43c.85.2,1.28,1.5,2.47.9.18-.09.7.43.63.92s-.45.33-.71.31c-4-.23-7.84,1.25-11.83.77a3.74,3.74,0,0,0-1.41.12c-3.14.8-6.36.27-9.32-.33-3.21-.64-5,.83-7,2.56-1.4,1.21-.91,2.68-.89,4.28,0,2.55.51,5,.63,7.53.15,3.1.15,6.2.23,9.3,0,1.36.11,2.72.13,4.09a1.53,1.53,0,0,0,.86,1.44c.7.38.73-.37,1-.65a1.24,1.24,0,0,1,1.45-.21,7.42,7.42,0,0,0,5.9-.23c4.5-2.38,9.41-2.32,14.25-2.52,6-.24,12-.26,18-.32,2.19,0,4.55-.26,6.5.66,2.19,1,4.13,1.79,6.61,1s3.78-2.74,3-5.34a7.15,7.15,0,0,1-.16-1.22c-.35-3,1.25-6.13-.35-9.12-.09-.17.08-.46.07-.69,0-1.5.79-2.92.37-4.47a1,1,0,0,1,.64-1.32c.73-.26.69-.91.6-1.5s-.68-.83-1.2-.89a26.1,26.1,0,0,1-4.26-1.18c-2.58-.79-5.25-.6-7.89-.81-3.64-.29-7.24-.92-10.92-.89-1.29,0-2.59-.15-3.89-.23,1.24-1,2.13-1.91,2.21-3.43,0-.13.2-.29.34-.37a8.67,8.67,0,0,1,5.76-.77c2,.35,4-.67,5.91,0,.1,0,.32-.15.43-.28.69-.8,1.33-.77,2.13-.07a2.67,2.67,0,0,0,1.52.39c2.77.19,5.54.43,8.32.44.6,0,1.68.91,1.93-.3s-1.33-.18-1.55-1.11a3.13,3.13,0,0,0,2.26-2.87c.67.11.85,1.25,1.56.55a1.6,1.6,0,0,0,.49-1.24c-.2-.67-.94-.42-1.48-.57-1.09-.29-2.13.8-3,.2a4.72,4.72,0,0,0-2.54-.59c-2-.16-4-.11-6-.23-.82,0-2.33-.72-3,1a1.37,1.37,0,0,1-2.5-.39,1.07,1.07,0,0,0-1.19-.82c-2.58.57-5.19.25-7.79.36-.58,0-1.41.65-1.54-.33-.1-.82-.33-2,1-2.34.57-.15,1.17-.21,1.72-.36,1.52-.42,3,.08,4.45.11a84.53,84.53,0,0,0,13.77-.82,6.82,6.82,0,0,0,3.8-1.41c-.3-1-1.39-.14-1.81-1a13.49,13.49,0,0,1,1.64-.07c.79.06,1.77.17,2.08-.57s-.69-1.28-1-1.94c-.6-1.47-1.35-1.3-2.81-1.24a68.69,68.69,0,0,0-9,.49c-3.41.61-6.84-.22-10.22.68a3.78,3.78,0,0,1-3.29-.16c-1.22-.88-.21-2.23-.62-3.29s.14-1.4,1.08-1.47c1.89-.14,3.8-.24,5.67-.24,5.43,0,10.86-.52,16.3,0a3.21,3.21,0,0,0,2.6-.53l-1.44-.82a2.07,2.07,0,0,0,1.88-2.6c-.19-1.71.76-1.92,2-1.79a9.14,9.14,0,0,0,3.82-.18c3.39-1,6.37-3,9.75-4.09,1.35-.43,3.43-.49,2.74-2.95,0-.08.1-.21.15-.31C1201.71,70,1200.94,68.5,1198.43,68.6Zm-28.38,61.22a1.78,1.78,0,0,0-1.37.16,2.14,2.14,0,0,1-2.34,0c-1.29-.79-2.5.48-3.92.27a25.77,25.77,0,0,0-3.48.09c-2.47-1.48-4.94.07-7.4.09-5.07,0-10.16,1-15.26,1.26a2.59,2.59,0,0,1-1.58-.08c-.71-.42-1.09-.65-.13-1.48,3-2.64,6.62-3.18,10.31-3.49,7.92-.69,15.86-1.2,23.79-1.81a9.54,9.54,0,0,1,3.15.34c1.37.35.79,1.73.9,2.5C1173,129.41,1171.82,130.2,1170.05,129.82Zm-9.87-15.5c2.91.45,5.66-.43,8.4.08,1.73.32,3.46.64,5.18,1,.71.15.91.57.6,1.32a4,4,0,0,0-.42,2.24c.13.78-.28.94-1,1a17.83,17.83,0,0,1-4.26-.1c-3.92-.39-7.84.11-11.77,0a48.94,48.94,0,0,0-7.34.66,9.71,9.71,0,0,1-3.87-.07c-1.55-.41-2.94.63-4.51.65a16.82,16.82,0,0,1-6.12-.61c-.39-.14-1,.26-1.13-.49s.31-1,.86-1.19a33.63,33.63,0,0,1,6.7-2.18C1147.73,115.57,1154,114.87,1160.18,114.32Zm12-34.31c-2.73.16-5.5-.55-8.16.1-2.27.56-4.57,0-6.82.57-.83.24-2-.07-2-1.19s-.56-2.76,1.47-2.8c2.38,0,4.75,0,7.13,0a65.82,65.82,0,0,1,8.54.19c.85.12,1.93.09,1.85,1.15A2,2,0,0,1,1172.13,80Zm4.77-12.87a24,24,0,0,1-4.19.73c-5.28.16-10.48,1.31-15.78,1.1-1,0-2.28.4-2.3-1.38,0-1.61,1-2.09,2.29-2.13,3-.09,5.95,0,10.41,0a60.92,60.92,0,0,1,9.39.34c.4.06,1.08-.36,1.12.42C1177.87,66.75,1177.34,67.05,1176.9,67.14Z" fill="#231815" fill-rule="evenodd"/><path d="M752.91,66.62A109.45,109.45,0,0,0,739,65.13c-2.67-.21-2.68-.11-2.94-2.68,0-.24-.06-.47-.09-.71-.54-3.66-2.91-5.23-6.57-4.49-2.63.53-4.9,2.14-7.64,2.35a1.07,1.07,0,0,0-.69,1.7c.61.9.5,1.93.79,2.88.33,1.11,0,1.59-1.2,1.77-4.54.69-9.1,1-13.67,1.39a6.47,6.47,0,0,0-6.11,5.72,2.43,2.43,0,0,1-.16.86c-.31.65-.77,1.31-.12,2s1.5.41,2.33.15a3.65,3.65,0,0,1,4.77,2.66c.47,1.84.72,3.73,1.16,5.57.82,3.4.89,6.93,2,10.29a8.81,8.81,0,0,1,.27,4.32c-.2.95-1.7,1.12-2.62,1.61-2.29,1.22-3,3.27-3,5.62,0,1,.54,2,1.72,1.86,3.15-.45,6.3-1.09,8.77-3.28a5.07,5.07,0,0,1,2.33-1c2-.51,4-.86,6-1.48a37.34,37.34,0,0,1,16.5-1.31c.41.05,1.08-.22,1.23.39s-.49.89-.88,1.21a40,40,0,0,1-4.92,3.52c-4.26,2.63-4.28,2.7-7.74-1.19a4.84,4.84,0,0,0-4.6-1.64,2.12,2.12,0,0,0-2.08,1.54c-.31,1,.34,1.59.95,2.13a27.3,27.3,0,0,1,3.3,3.5c.28.37.78.76.55,1.24a1.42,1.42,0,0,1-1.38.62c-3.83,0-7.6.87-11.44.77a2.32,2.32,0,0,0-2.45,1.8c-.33,1,.07,2.22-.71,3.15a1.57,1.57,0,0,0-.1,2c.46.68,1.15.58,1.92.47,2.17-.32,4.18-1.25,6.43-1.28,2.61,0,5.21-.32,7.82-.54,1.3-.11,1.56.65,1.4,1.67-.68,4.34-2.37,8.09-6.45,10.28-1.32.71-2.84,1.87-4,1.87-2.8,0-5.3,1.26-8.21,1.08.83,1.49,1.49,2.8,2.91,3.45a1.58,1.58,0,0,1,.91,1.23,1.89,1.89,0,0,0,2.52,1.55,15.13,15.13,0,0,1,5.85-1.37c5.21-.47,9.17-2.68,11.23-7.71a31.29,31.29,0,0,0,2.52-9.94c.07-1.14-.07-2.7,1.56-2.7,3.83,0,7.61-1.33,11.48-.39.44.11,1.14.25,1.24-.56.07-.52.85-1.13,0-1.54s-.43-.45-.11-.91c.85-1.22.12-3.24-1.13-3.1-1.6.17-3.16-.1-4.74,0-1.9.11-3.81,0-5.72,0l-.12-.67c3-1.23,5.19-3.6,8-5.06a32.81,32.81,0,0,0,3.77-2.64,1.11,1.11,0,0,0,.42-1.08c-.07-2.45-1.86-3.49-3.71-4.24-1.26-.5-1.4-1-1-2.16a20.63,20.63,0,0,0,1.12-6.35c.07-4.48,1.4-8.81,1.68-13.29.23-3.5.57-3.48,4.12-3.53.12,0,.24,0,.36,0,1.51-.16,2.1-1.24,1.26-2.49-.36-.53-.47-1-.09-1.43C755.12,67.09,754,66.83,752.91,66.62Zm-15,27.8c-.26,1.22-.57,2.39-2.23,2.15A62.49,62.49,0,0,0,721.38,98c-.28.07-.57.15-.8-.13-1.09-1.33-.34-4.48,1.32-5A42.26,42.26,0,0,1,735,90.61C738.71,90.63,738.71,90.61,737.89,94.42Zm.83-11.17a11,11,0,0,0-.2,1.4c-.23,2.07-.54,2.34-2.53,2-.66-.12-1.24-.33-1.79.29a.87.87,0,0,1-.83.14c-2-1.47-3.75.51-5.58.25a17.42,17.42,0,0,0-5.94.39c-.6.12-1.34.32-1.62-.6s.29-1.42.88-2c2.34-2.17,5.34-2.33,8.25-2.72,1.23-.16,2.49-.15,3.73-.22a28.65,28.65,0,0,1,4.63-.18C738.55,82.07,738.93,82.38,738.72,83.25Zm1-6.66c-.17.58-.93.47-1.43.47a68.1,68.1,0,0,0-12.59.91c-1.59.27-3.29-.13-4.94-.14-1.15,0-1.12-.91-1.3-1.6-.91-3.3-.9-3.32,2.49-3.46,1.19,0,2.38,0,3.57,0,4,.34,8-.79,12-.8.9,0,2.12-.38,2.48.8A6.9,6.9,0,0,1,739.68,76.59Z" fill="#231815" fill-rule="evenodd"/><path d="M777.46,90.45c1.09-.54,1.84-1.69,2.63-2.12,1.43-.77,1.76-3,3.77-2.77.16,0,.42-.25.53-.45,1.25-2.31,4-3.25,5.14-5.75.93-2,.76-4.33-1.2-5.32a34.69,34.69,0,0,0-8.77-2.71c-5.62-1.14-11.27-.18-16.87.41-3.32.35-6.06,1.81-7.41,5.24-1.1,2.8-1.44,2.87,1.89,4.32a1.33,1.33,0,0,1,1,1.53c0,3.73-.28,7.45-.19,11.18.18,7.49-.27,15-.8,22.45a160.77,160.77,0,0,0,0,22.6c-.27,1.62.35,3.12-.39,4.54a.65.65,0,0,0,.41.88c.42.15.33-.36.51-.55a1.82,1.82,0,0,1,2.19-.57c2.05.76,3.06.25,3.27-1.81.36-3.52,1.29-7,1.13-10.53-.11-2.5.31-5,.4-7.44a9.56,9.56,0,0,0-.22-2.81,1.28,1.28,0,0,1,.8-1.73,8.14,8.14,0,0,1,3-.4,21.69,21.69,0,0,0,7.46-.42,23.63,23.63,0,0,0,5.65-2.11c3.24-1.65,6-3.51,7.11-7.23.82-2.8,1.41-5.55.09-8.36-1.87-4-5.26-6.32-9.08-8.1-.64-.3-1.21-.7-1.86-1C777.26,91.26,777,90.7,777.46,90.45Zm5.29,13.4c.87,1.47.2,2.76-.77,3.9a3.64,3.64,0,0,0-1.08,2.08,4,4,0,0,1-2.83,2.93A117.87,117.87,0,0,1,766,116.58c-1.57.43-1-1-1.31-1.57.69-5,.86-10,1.07-15,.08-1.83.09-3.67.12-5.5,0-.28-.19-.61.19-.77s.55.13.78.3a1.54,1.54,0,0,1,.13.12c1.91,2.83,5,3,7.94,3.51C778.72,98.37,781,100.79,782.75,103.85ZM767.89,90.23c-.32.26-.68.47-1,.72-.74.53-1.08.28-1.13-.56-.21-3.47.58-6.82,1.28-10.17.29-1.36,1.9-1.43,3-1.83a16.7,16.7,0,0,1,5.24-.67c1.46-.23,3,.29,4.62.4.35,0,.74.12.85.5s-.22.5-.43.7C776.26,83.07,772.15,86.74,767.89,90.23Z" fill="#231815" fill-rule="evenodd"/><path d="M1008.65,125.64c-.49-.94-1.5-.83-2.53-.62.33.8,1.2.28,1.36,1.08-.74.36-1.54-.53-2.25.05.37,1.56,1.37,1.27,2.46.88C1008.39,126.78,1009,126.22,1008.65,125.64Z" fill="#231815" fill-rule="evenodd"/><path d="M1006.2,128.11c-1.84.85-3-.29-4.25-1.31.62-.25,1.39-.42,1.36-1.29a1.66,1.66,0,0,0-1.45-1.59c-.46-.11-.93-.17-1.39-.29-2.07-.56-4.1-1.27-6.2-1.68-3.17-.62-5.56-2.78-8.41-4a54.3,54.3,0,0,1-7.4-4.12A55.84,55.84,0,0,1,966.63,104a5.3,5.3,0,0,1-1-5.27c.85-2.87,2.38-5.44,3.55-8.16,1.26-2.93,2.29-5.94,3.53-8.88s2.19-5.86,3.2-8.82a2.69,2.69,0,0,0-1.68-3.62,7.9,7.9,0,0,0-4.72-.39,3.66,3.66,0,0,0-2.89,2.37c-.35,1.48-.88,2.92-1.19,4.39-1,5-3.31,9.59-5.62,14.07-1.72,3.34-3.7,6.56-5.43,9.91a133.17,133.17,0,0,1-7.62,13.73c-.82,1.22-1.22,2.69-2.31,3.76-.23.22-.48.75-.37.94a27.76,27.76,0,0,1,1.65,3.43c.32.82,1.24,0,1.91.14,2.88.47,7.55-2.07,8-4.76.54-3,2.71-4.9,4.15-7.29.58-1,1.11-.84,1.84-.3a6.4,6.4,0,0,1,1.39,1.36c1.41,1.91,2.82,3.82,4.33,5.65,3.28,4,7.07,7.54,10.53,11.37,2,2.24,4.14,4,7.3,3.92,4.28-.08,8.54,1.16,12.83.2.53-.12.72.29,1,.6.58.71,1.23.36,2,.21a1.28,1.28,0,0,0-1.37-.53c-.59-1.11.25-.66.69-.63,1.37.07,3,.69,3.32-1.5a.36.36,0,0,1,.51-.33.53.53,0,0,1,.39.68.91.91,0,0,0,.62,1.27c.57.15.74-.48,1-.8a3.15,3.15,0,0,0,.79-.94c.16-.44.9-.71.6-1.18A1.25,1.25,0,0,0,1006.2,128.11Z" fill="#231815" fill-rule="evenodd"/><path d="M942.09,86a6.15,6.15,0,0,0-5.48-.36c-.31.12-.49.3-.93.2a70.82,70.82,0,0,0-13-1.31,46.23,46.23,0,0,0-8,0,2.54,2.54,0,0,1-1.53-.39,8.06,8.06,0,0,0-5.58-.87c-2.76.56-4.12,3-6.05,4.67-.34.3-.13.62,0,.95,1.28,2.58,1.2,5.31.89,8.06-.05.47,0,1,.48,1,.89.14.83.8,1,1.41,1.11,3.71,1.28,7.56,1.61,11.39a5.73,5.73,0,0,0,.15,1.14c1.88,0,1,1.51,1.15,2.32a14.14,14.14,0,0,1-.59,8c-.26.62-.14,1.16.33,1.37a6.11,6.11,0,0,0,4.59.59c2.9-1,5.69-2.46,8.64-3.35s6.14-1.83,9.3-.49a7.55,7.55,0,0,0,3.26.68c2.6.1,5.4-1.88,6.76-4.09.81-1.31.68-2-.27-3a2.77,2.77,0,0,1-.46-2.48c.6-3.19,1.13-6.39,1.47-9.61a36.09,36.09,0,0,1,3.25-12C943.92,88.25,943.64,86.82,942.09,86Zm-8.82,7a47,47,0,0,1-2.44,10.9c-.76,2.09-.64,4.31-1.52,6.38-.75,1.77-1.72,2.62-4,2.18-1.72.74-4,.67-6.14,1s-2.71.07-2.88-2.17c-.33-4.47-.45-9-1-13.4-.11-.94.43-1.48,1.1-2.2,2.74-3,6.37-3.16,9.93-3.29,2.05-.07,4-.9,6.12-.49C933.16,92,933.36,92.15,933.27,93Z" fill="#231815" fill-rule="evenodd"/><path d="M1304.28,86c-.16-3.25-.31-6.51-.71-9.74V75.21c0-2.92-.59-3.73-3.34-4.73-4.12-1.5-8.46-1.72-12.74-2.27-1.24-.16-2.47.18-1.86-1.78.1-.33-.19-.79-.29-1.19-.48-1.76-1.41-3.38-1.71-5.22a4.48,4.48,0,0,0-4.59-3.79c-1.87,0-4.7,2.1-4.69,4,0,2.22-.46,4.48.06,6.67.25,1.06,0,1.66-1,1.85-3.14.61-6.23,1.61-9.51.93-2.48-.51-4.77.89-6.29,2.91-.95,1.26-.83,2.81-1.74,4s-.8,3.71.47,4.2c1.6.62,1.22,1.71,1.12,2.73-.46,4.53-.88,9.08-2.81,13.31a2.21,2.21,0,0,0,0,1.38c.36,1.72,1.64,1.6,2.82,2,2.46.89,5.11-.08,5.38-2.49.2-1.82.59-3.62.66-5.46.14-3.72-.14-7.45.17-11.17.19-2.42.62-3.3,2.92-3.82a77.65,77.65,0,0,1,27.18-1.36c2.86.36,3,.78,3.19,3.72,0,.82.07,1.65.13,2.48.36,5.21.66,10.41-.32,15.58a9.49,9.49,0,0,0-.31,3.51c.06.32-.26.75.18.94s.59-.27.83-.51c1.07-1.11,2.16-2.12,3.94-1.59.33.1,1,.33,1.24-.53A38.42,38.42,0,0,0,1304.28,86Z" fill="#231815" fill-rule="evenodd"/><path d="M1254.72,76.41c.46-1.54.47-2.94-1-4-3-2.35-6.18-4.45-8.44-7.74-1.26-1.83-1.78-3.85-2.76-5.72-.44-.84-.91-1.66-1.91-1.66a9.43,9.43,0,0,0-5.68,2.47c-1.65,1.33-3,3.16-4.61,4.62a46.16,46.16,0,0,1-6.52,4.52,20.93,20.93,0,0,1-5.28,2.33c-2.52.77-5.24,1.09-7.24,3.36-1.73,2-1.69,4.48-2.82,6.57,0,0,.09.24.18.27,1.32.54,1.26,1.78,1.62,2.88.47,1.43,1.41,2.48,3.2,2.19A27.23,27.23,0,0,0,1217,86a3,3,0,0,1,3.92,1.4,1.58,1.58,0,0,0,2.41.66,3.29,3.29,0,0,1,1.2-.26c3.64-.6,7.18-1.73,10.89-2,2.66-.22,5.33-.87,8-.29,1.57.35,3,.47,4-.83.55-.65,0-4.76-.59-5.28-.08-.07-.24-.16-.31-.12-1.22.64-2.41-.17-3.64-.06-3.73.35-7.48.54-11.09.78h-1.92c-.7,0-1.67.1-1.88-.62s.66-1.18,1.24-1.54a33,33,0,0,0,6.64-5.9c1.45-1.54,2.92-1.88,4.52-.55,2.61,2.18,5.88,3.61,7.48,7,.85,1.82,3.07,1.62,4.22-.1a2.74,2.74,0,0,1,1.9-1.48C1254.32,76.76,1254.6,76.82,1254.72,76.41Z" fill="#231815" fill-rule="evenodd"/><path d="M1250.76,125.26a11.2,11.2,0,0,0-4.88-.67c-.89,0-1.78,0-2.67,0-1.12.05-1.39-.36-1.21-1.5.33-2,.29-4,.68-6,.29-1.44-.66-1.8-1.48-2.31s-3.59-.18-3.58.45c0,1.35-1.36,2.25-.87,3.74a8.22,8.22,0,0,1,0,2.85c-.09,2.09-1.09,3-3.14,2.81a20,20,0,0,0-3.1-.08c-.82,0-2.34.38-2.7-1.23a17.57,17.57,0,0,1-.34-4.74c.08-1.7.59-3,2.63-3.24,1.21-.13,2.36-.68,3.56-.89,2.53-.46,5.16-1.45,7.61-.93a20.4,20.4,0,0,0,5.54.5c2.45-.14,3.3-1,3.28-3.38,0-2.66-.44-5.36,1.29-7.76.26-.35.11-1,.06-1.56a29.32,29.32,0,0,1,.21-8.63c.58-2.69-.54-4.61-3.33-4.43-2,.12-4,.15-6,.16a66.23,66.23,0,0,0-10.43,1.08c-1.21.2-2.47.71-3.69.25-2.64-1-4.91,0-7.1,1.26s-2.77,4.27-1.6,6.58a3.33,3.33,0,0,1,.33,1.88,74.42,74.42,0,0,0-.23,12.84c.35,6.91.89,13.81.68,20.75-.07,2.2.8,3.12,2.64,2.73a65,65,0,0,0,7.55-1.62,49.75,49.75,0,0,1,17-3,7.6,7.6,0,0,0,3.35-.35,3.62,3.62,0,0,0,2.36-3.07C1253.32,126.25,1252.09,125.72,1250.76,125.26Zm-8.93-19.63c-.16,1.79-.59,3-2.54,3.34-3.48.56-6.91,1.35-10.37,2-.44.09-1.08.34-1.31-.14a3,3,0,0,1,0-1.56.8.8,0,0,1,.44-.52c3.94-2,7.68-4.5,12.35-4.45C1241.41,104.34,1242,104.68,1241.83,105.63Zm-12.71-8.49a21.33,21.33,0,0,1,9.31-3.31,5.38,5.38,0,0,0,2.33-.76c.91-.6,2.82.47,2.84,1.45.06,3.39-2.08,5.18-5.62,5.17a61.17,61.17,0,0,0-7.36.83c-.11,0-.22.08-.34.1-1,.15-2.28.31-2.68-.64C1227.11,98.77,1228,97.86,1229.12,97.14Z" fill="#231815" fill-rule="evenodd"/><path d="M1294.57,113.76a5.93,5.93,0,0,0-4.66-.45c-1.53.62-3.32-.23-4.73,1-.27.23-.68,0-.74-.47s-.37-.56-.77-.49c-2.59.44-5.21.27-7.82.46-.76.06-2,.73-2.06-.76s-1.11-3.23,1.1-4c1.56-.52,3.21-.78,4.79-1.27,1.93-.59,4-.39,5.9-1,.62-.19,1-.52,1.46.09s1.07.43,1.65.51a.79.79,0,0,0,.89-.45c.17-.35-.15-.5-.32-.73-1.22-1.56-1-2.31.93-2.76a1.87,1.87,0,0,0,1.47-2c-.83-2.35,0-4.47.68-6.53,1.08-3.33-.35-6.74.64-10a.7.7,0,0,0,0-.53c-1.31-2.1-3.75-.11-5.33-1.46a1,1,0,0,0-1.48.58c-.42,1.36-1.23,1.38-2.49,1.21-2.15-.27-4.32-.19-6.37-1.22-1.11-.56-2.36-1.22-3.66-.73a13.88,13.88,0,0,0-3.09.42,1.87,1.87,0,0,0-1.4,1.25c-.67,1.47-.46,3-.87,4.49a4.46,4.46,0,0,0,.62,3c.71,1.56,1.37,3.46.22,5.2a5.13,5.13,0,0,0-.55,2c-.3,1.4.76,2.76.36,4-.92,2.9-.35,5.86-.6,8.77-.46,5.22-.54,10.47-.75,15.7a10.22,10.22,0,0,1-.91,4.46c-.76,1.49.34,3.16.08,4.7a3,3,0,0,0,1.18,2.87c.92.91,2.4,0,3.27,1,.3-1.52,2.16-2,2.43-3.43s1.17-1.89,2.44-2.1a16.67,16.67,0,0,1,6.74-.22c2.24.55,4.54-1.06,6.72.32.55.35,1-.07,1.38-.46a7.62,7.62,0,0,0,2.25-5.82,31.57,31.57,0,0,1,2.17-10.52C1296,116.5,1295.74,114.27,1294.57,113.76Zm-20.7-13.65a9.55,9.55,0,0,0,.12-2.83c-.26-5.38,1.36-5.2,5.51-6.55a15.67,15.67,0,0,1,2.77-.39c1.65-.23,2.58.25,2.21,2.14s-.59,3.78-1,5.66a3,3,0,0,1-3.23,2.55,22.51,22.51,0,0,0-5,1c-.65.16-1.29.37-1.81-.19S1273.76,100.53,1273.87,100.11Zm14.49,22.08a12.92,12.92,0,0,0-.72,3.2c.06,2-1.24,2.18-2.54,2.06a52.8,52.8,0,0,0-10.21.4c-1.27.13-1.84-.33-1.43-1.63a15.29,15.29,0,0,0,.17-3.7c0-.53-.09-1.09.73-1.11A48.47,48.47,0,0,0,1283,120a5.14,5.14,0,0,1,1.24,0,9.81,9.81,0,0,0,1.93-.2C1287.27,119.51,1288.64,121.06,1288.36,122.19Z" fill="#231815" fill-rule="evenodd"/><path d="M1096.9,63.59a11.15,11.15,0,0,0-3.55.09,22.75,22.75,0,0,1-10.85-.15,28.55,28.55,0,0,0-12.5.23.81.81,0,0,1-.64-.21,2.08,2.08,0,0,0-1.85-.44c-3.62.21-7.24-.26-10.87.32a47,47,0,0,1-6.92.45c-4.11,0-8.21-.05-12.31.24a59.05,59.05,0,0,1-8.2,0c-3.33-.23-6.44-.45-9.2,2.19s-3.37,4.62-2.06,8.06a15.46,15.46,0,0,1,1.18,4c.34,3.85.23,7.76.8,11.54.88,5.84,0,11.73,1.08,17.55.91,4.91.14,10,.59,14.92.11,1.23-.53,3,.37,3.6,1.6,1.09.84,2.19.67,3.36s-.69,2.2-.17,3.14a5.74,5.74,0,0,1,.51,3.55,1.3,1.3,0,0,0,0,1.14,3.76,3.76,0,0,0,2.24,1,27,27,0,0,0,8.69-.07c8.6-1.87,17.36-1.52,26-1.86,4.06-.16,8.24-.08,12.37.13,6.21.32,12.44-.57,18.64.46,1.62.26,4.42-1.34,4.18-2.32-.37-1.47.41-1.93,1.91-2.51-1.82-.2-1.49-1.2-1.43-2,.33-4.53.17-9.08.64-13.62a54.73,54.73,0,0,0,0-8.59c-.14-2.81-.21-5.61-.3-8.42a47.51,47.51,0,0,1-.06-6.75,20.78,20.78,0,0,0,.3-5.81c-.38-2.1-.07-4.13-.22-6.18,0-.59,0-1.19-.13-1.77-.61-3.43-.43-6.57,2.49-9.1.75-.65,1.89-1.36,1.88-2.58A3.76,3.76,0,0,0,1096.9,63.59Zm-46.19,65.49a3,3,0,0,0-3,.34c-.7.55-1.62.23-2.44.23s-1.43-.58-2.15.31c-.29.37-1,0-1.2-.64a.8.8,0,0,1,.84-1c1.45.06,3.38.27,4-.74s.37-2.89.19-4.35c-.49-4.12-.09-8.26-.36-12.38-.13-2,1.28-2.11,2.54-2.44s1.82.53,2.15,1.68a18.44,18.44,0,0,1,.76,5.76,40,40,0,0,0,.28,11.77C1052.5,128.83,1052.46,129.73,1050.71,129.08Zm11.33-1.36c0,.71-.47.94-1.18,1.24-1.46.61-2.69.76-3.95-.32-.19-.17-.56-.13-.87-.19.12-.78.9-1,.83-1.7s-.44-1.73.6-1.94c1.37-.27,3-.68,4.16-.06C1062.58,125.23,1062.09,126.69,1062,127.72Zm-.08-8.39c-.44,1-1.58.49-2.35.61-2.76,0-3-.23-2.73-2.37a1.19,1.19,0,0,1,1.22-1.21,14.59,14.59,0,0,1,1.94-.27c.66,0,1.59-.53,2,.28A3.8,3.8,0,0,1,1062,119.33Zm-3.06-7.43c-.89-.12-1.27-.4-1.19-1.29a5.51,5.51,0,0,0-.06-.7c-.07-2.46,1.34-3.74,3.8-3.48.57.06.66.4.68.84s0,1.06,0,1.14C1062.35,111.85,1061.82,112.29,1058.9,111.9Zm12.47,15.45c-.1,1.65-1.11,1.15-2,1-1.72.66-1.54-.31-1.31-1.48.76-3.93.61-7.9.68-11.88,0-2-.1-4.12.72-6.06a2.58,2.58,0,0,0,.07-1.23c-.07-2,0-2.06,2.15-2,.79,0,1,.29,1,1Q1072,117,1071.37,127.35Zm17-53.48c-1.08,4.92-1.24,10-1.56,14.95-.39,6.08.1,12.22.13,18.33,0,4.63.11,9.27-.19,13.87-.15,2.32-.56,4.62-.55,7,0,1.07-1.07,1.06-1.76.91a28.8,28.8,0,0,0-4.24-.31c-.29,0-.67-.16-.87,0-2.8,1.81-2-.92-1.82-1.69.41-2.19-.4-4.54.87-6.62a.92.92,0,0,0-.19-1.14,1.16,1.16,0,0,1,0-1.74c.76-.91.15-2,.21-3,.28-4.14.11-8.31.83-12.42.21-1.24-.41-2-1.58-1.69-3.68.85-7.34.39-11,.15a75.28,75.28,0,0,0-14.54.61,11.91,11.91,0,0,1-2.67,0c-1.65-.16-3.31-.67-4.63,1-.58.73-1.67.32-2.49.76-2.18,1.17-3,2.26-2.39,4.4.82,2.71.65,5.43.56,8.14-.13,3.7.11,7.38.22,11.07,0,.06,0,.11,0,.17.16,3.1-.11,3.39-3.15,3.44-.47,0-1,0-1.43,0v0c-1.48.12-3,.16-4.44.39-1.09.17-1.17-.2-1.06-1.13.68-5.69.33-11.39.12-17.09-.14-3.56.46-7.11.16-10.69-.53-6.19-.28-12.43-1-18.63a31.56,31.56,0,0,1,0-5.14,3.37,3.37,0,0,1,2.57-2.87,64.31,64.31,0,0,1,17.58-3.43c5-.31,10-1.05,15.09-1.1,4.57,0,9.15.09,13.72,0,2.09-.06,4.22.46,6.32-.49.89-.41,1.89.66,2.63,1.13S1088.66,72.76,1088.41,73.87Z" fill="#231815" fill-rule="evenodd"/><path d="M1077.09,91.27c-1,0-2,2.43-3.22.12,0-.06-.28-.08-.34,0-.93,1-1.79.18-2.71,0a3,3,0,0,0-2.82.53,14.79,14.79,0,0,1-3.93-.68,1.31,1.31,0,0,1,0-.35,3.2,3.2,0,0,1,3.5-3.6c1.78.1,3.55.24,5.33.38,1.49.11,4.25-1,4.41-2.1.44-3,2-5.53,3.14-8.26.62-1.53.06-2.36-1.22-3a4.71,4.71,0,0,0-3-.33,21,21,0,0,1-5.87.17,37.47,37.47,0,0,0-8.2.06c-5.74.54-11.47,1.18-17.19-.16a2.72,2.72,0,0,0-2.62.78,12.88,12.88,0,0,0-2.24,2.72c-.56,1-1.63,2.25-.76,3.44a12.74,12.74,0,0,1,2.25,8,3.16,3.16,0,0,0,4.73,2.81c3.22-1.49,6.46-3,10-3.47.67-.09,1.85-.74,1.8.78,0,1.15.79,2.82-1.45,2.94-1.18.07-2.37.17-3.53.34-5,.73-10.09,1.45-15.12,2.26-1.55.26-3.29.23-4.51,1.43A3.07,3.07,0,0,0,1033,100c.86,1.54,2.29,1.35,3.61.89,6.11-2.16,12.48-2.79,18.86-3.41.57-.06,1.34-.66,1.67-.1.69,1.17,1.31.39,2,.18a9.09,9.09,0,0,1,1.91-.43q8-.57,16-1.1c1.77.12,3.57-.29,5.26.59.62.32,1,0,1.35-.47s-.39-3.77-.79-4.14C1081.1,90.33,1079,91.29,1077.09,91.27Zm-24.24-6.88c-.87.13-1.85.21-2.18-.66s.36-1.52.93-2.09c2.22-2.24,5.2-2.41,8.05-2.76,3.13-.38,6.28-.5,9.43-.73v.09a2.16,2.16,0,0,1,.36,0c1,.21,2.45-.85,2.93.47s-1.67,4-3.22,4.13c-1.89.17-3.79.28-5.68.31A82.24,82.24,0,0,0,1052.85,84.39Z" fill="#231815" fill-rule="evenodd"/><path d="M847,121c-.09.29-.22.59-.57.57s-.47-.3-.39-.64.33-.44.66-.4S847.05,120.74,847,121Z" fill="#231815" fill-rule="evenodd"/><path d="M847.88,122.72c0,.38,0,.76,0,1.14-.39-.21-.71-.59-1.23-.55Z" fill="#231815" fill-rule="evenodd"/><path d="M845.52,124c.37.43.74.79.49,1-.4.42-.56,0-.58-.37A3.86,3.86,0,0,1,845.52,124Z" fill="#231815" fill-rule="evenodd"/></svg>