<svg xmlns="http://www.w3.org/2000/svg" viewBox="0 0 909.12 70.27"><title>logo</title><path d="M191.87,31.68a17.5,17.5,0,0,0-2.58-6.36V41.48h-4.58v2.23l4.57-1.28v2.11a17.46,17.46,0,0,0,2.77-7.64,18.28,18.28,0,0,0-.18-5.22Zm-3.34-7.43a17.79,17.79,0,0,0-3.87-3.73v3.73Zm-5.28-4.63a18,18,0,0,0-5.77-2.15v.7l-.28,1.45Zm-109.11.84a9.13,9.13,0,0,1,4,.82V19.74l14.64,0c5.42.71,7.19,3.94,7.19,8.61l3.91-5.09a15.15,15.15,0,0,1,1.48-1.41l.62-.44a11,11,0,0,1,5.51-1.67,15.8,15.8,0,0,1,4.39.3,13,13,0,0,1,1.8.67l1.06.75.87-1.32,2.25-2.9h-61c0,.23,0,.46,0,.69V29.76l3.78-5.4A13.52,13.52,0,0,1,66,23a10.06,10.06,0,0,1,4.74-2.29,18.27,18.27,0,0,1,3.39-.2Zm8.14,11.67V52.65h.47V32.13ZM96.35,52.65h8.44a10.57,10.57,0,0,1-.66-2.42V42.56L96.35,52.65ZM16.7,65.72l-.9,0c-2.89.08-5.85.31-8.28-1.51-.3-.24-.58-.49-.86-.76A7.35,7.35,0,0,1,4.82,60a13.45,13.45,0,0,1-.24-2V18.34L0,19.77V4.6l14.67,0,1.4.2,1,.34a7.3,7.3,0,0,1,2.85,2,10.39,10.39,0,0,1,1,1.39,9.16,9.16,0,0,1,.9,3.29v39a14.19,14.19,0,0,0,2.59-1.57A14.39,14.39,0,0,0,27,46.27a27.34,27.34,0,0,0,4.32-11.11c.1-.87.17-1.74.23-2.62.38-6.64.52-13.29.51-19.94,0-2.85,0-5.71,0-8.56Q85.65,4,139.23,4a49.23,49.23,0,0,1,6.88-2.52l3.12-.74,3.08-.49,3-.23,3,0,2.89.28,2.8.55,2.69.86,2.58,1.2L170.87,4h3.07a32,32,0,0,1,10.63,1.77c.94.34,1.86.71,2.77,1.12a32.49,32.49,0,0,1,4,2.2A32,32,0,0,1,199,16.13c.6.79,1.16,1.59,1.69,2.41a32.4,32.4,0,0,1,2.42,4.68,30.54,30.54,0,0,1,2.18,8.65A31.79,31.79,0,0,1,205,40a30.12,30.12,0,0,1-2.84,8.67,32.4,32.4,0,0,1-4.29,6.4,33.06,33.06,0,0,1-7.56,6.34,31.77,31.77,0,0,1-11,4,35.45,35.45,0,0,1-5,.42H154.81a56.59,56.59,0,0,1-10.36,3.48,35.83,35.83,0,0,1-9.63.87,26,26,0,0,1-10.45-2.87,26.41,26.41,0,0,1-2.44-1.48h-49l-2.46-.56a8.9,8.9,0,0,1-3.14-1.81,10.26,10.26,0,0,1-1.11-1.34,8.44,8.44,0,0,1-1.07-2.76L65,58.07V49.72l-11,16.15H43.66V43.36a41.12,41.12,0,0,1-1.62,4A37.71,37.71,0,0,1,30.43,61.43a23.11,23.11,0,0,1-4,2.18,28.55,28.55,0,0,1-8.83,2q-.45,0-.9.06Z" fill="#1d2088" fill-rule="evenodd"/><path d="M164,35.5a70,70,0,0,1-8.55,6.17A45.5,45.5,0,0,1,145.92,46c-1.73.5-3.75.86-5.44.07a48.57,48.57,0,0,1-7.94,1.24,3.35,3.35,0,0,0,1.73,2.11,7.77,7.77,0,0,0,3.67.49,32,32,0,0,1,4.25-.24,5.31,5.31,0,0,1,2.22.77l14.36-7.35a10.73,10.73,0,0,1,4.46-2,8.78,8.78,0,0,1,2.1.23l.81.43c1.23-.86,2.46-1.73,3.7-2.58v-.14h-4.63V34.48c-.35.37-.8.69-1.18,1Zm10-13.47h8.21v4.62h4.62V39.07H182.3V46.8c.34,0,.67-.12,1-.2l3.56-1v5.08a21.35,21.35,0,0,0,4.77-5.35,21.8,21.8,0,0,0,2.17-4.92l.25-1a20.33,20.33,0,0,0,0-9.05,21.09,21.09,0,0,0-1.93-5,21.61,21.61,0,0,0-3.17-4.3,22.32,22.32,0,0,0-2.17-2A19.67,19.67,0,0,0,175,14.86l.07.36,0,2.71-.52,2.74-.5,1.36Zm4.34,32.6-1.39,0a9.89,9.89,0,0,1-3.49-.9,7.23,7.23,0,0,1-2-1.62,7.94,7.94,0,0,1-2.58,3c3,0,6.58.19,9.45-.43ZM97.59,27.28v8.15l8.15-10.58.64-.68a7.84,7.84,0,0,1,4.16-1.92,22.48,22.48,0,0,1,3.48-.08,6.77,6.77,0,0,1,2.49.66l.9.64a4.85,4.85,0,0,1,1.4,2.49l.58-1.05,2.2-3.35L124,18.49l2.55-2.78.91-.85H57.68A6,6,0,0,1,58.51,18V37.4l8.08-11.57.62-.72a7.79,7.79,0,0,1,3.27-1.94,13.82,13.82,0,0,1,1.43-.26c.85-.06,1.69-.05,2.55-.05a6.52,6.52,0,0,1,3.06.77,6.13,6.13,0,0,1,1.26,1.12,7.16,7.16,0,0,1,.78,1.47,8,8,0,0,1,.31,2.06V55.06H116l-.19-.43H112.4a8.78,8.78,0,0,1-3.31-.79l-1-.66A6.39,6.39,0,0,1,107,51.74a6.71,6.71,0,0,1-.47-1.7l0-14.52L91.79,54.63H85.15V29.73H80.58V22.15l12.08,0c3,.39,4.82,2.08,4.93,5.11ZM43.71,20.45,43.28,31.2l-.61,6.39a32.51,32.51,0,0,1-2.8,8.68,37.42,37.42,0,0,1-8.65,11.51,27.25,27.25,0,0,1-2.49,1.9A22.87,22.87,0,0,1,19.65,63a33.68,33.68,0,0,1-4.49.35H12.4a6.52,6.52,0,0,1-3.06-.77,6.4,6.4,0,0,1-1.26-1.12A6.68,6.68,0,0,1,7.3,60,8,8,0,0,1,7,58V15.16c-.33.05-.64.13-1,.21L2.4,16.5V7H14.5l1.05.16A5.36,5.36,0,0,1,18,8.48a6.27,6.27,0,0,1,.95,1.38,7.1,7.1,0,0,1,.49,2.07l0,42.06a6.44,6.44,0,0,0,1.24-.22,16.24,16.24,0,0,0,5.26-2.71,17.19,17.19,0,0,0,2.9-3.18,31.3,31.3,0,0,0,4.55-10.46A39.39,39.39,0,0,0,34,31.1c.19-3.85.31-7.7.38-11.55.08-4.36,0-8.73,0-13.1q52.65,0,105.32-.07l1-.49,3-1.18,3-.94,2.94-.69,2.9-.46,2.84-.22,2.75,0,2.66.26,2.55.5,2.42.77L168.09,5l2.06,1.36h3.78a30.8,30.8,0,0,1,8.16,1.09,32.36,32.36,0,0,1,5.21,2,32.83,32.83,0,0,1,4.66,3,33.21,33.21,0,0,1,4,3.78,32.83,32.83,0,0,1,3.21,4.47,32.09,32.09,0,0,1,2.31,5.06,31.5,31.5,0,0,1,1.29,5.51c.08.73.14,1.44.19,2.17a30.44,30.44,0,0,1-.7,7.9,32.2,32.2,0,0,1-1.82,5.3,32.37,32.37,0,0,1-2.77,4.77c-.41.56-.83,1.1-1.27,1.64A30.79,30.79,0,0,1,189.71,59c-.59.37-1.18.72-1.79,1a30.43,30.43,0,0,1-7.9,2.88,31.78,31.78,0,0,1-5.76.58h-20a49,49,0,0,1-14,4.16,33.34,33.34,0,0,1-4.69.22,23.91,23.91,0,0,1-9.92-2.51,22.75,22.75,0,0,1-3-1.87H73.21l-2-.47a6.8,6.8,0,0,1-2-1,6.71,6.71,0,0,1-1.1-1.33,7.1,7.1,0,0,1-.57-1.6L67.43,58V41.89L52.8,63.47H46.07v-43ZM147.08,31.21a47.62,47.62,0,0,0,6.11-4c.59-.55,1.17-1.09,1.71-1.68a17.36,17.36,0,0,0-3.53.22l-2.67.62-2.84,1-2.8,1.37-1.38.83-1.34.92-1.29,1a24.69,24.69,0,0,0-3.78,4.13c1.08-.24,2.15-.51,3.21-.82a43.26,43.26,0,0,0,8.6-3.61Z" fill="#fff" fill-rule="evenodd"/><path d="M167.62,36.67V29.06h4.62V24.43h7.61v4.63h4.63v7.61H179.9v4.62h0v6.09c0,1.86,1.52,2.31,4.57,1.39v3.46h-6.71c-3.35,0-5.19-1.54-5.48-4.63-.89.7-1.82,1.37-2.74,2a2.62,2.62,0,0,1-.34,1.76,9,9,0,0,1-2.35,2.25,52.12,52.12,0,0,1-6,3.83h10.88c.76,0,1.52,0,2.27-.09v.09h.25a22.8,22.8,0,0,0,16.07-6.62,22.33,22.33,0,0,0,0-31.84,22.8,22.8,0,0,0-16.07-6.62H174v.08h-2.13l.39.88.43,2.11,0,2.25L172.22,20l-.87,2.39-1.3,2.47-1.73,2.54-2.17,2.63L163.5,32.8a74.7,74.7,0,0,1-8.4,6.29,47.52,47.52,0,0,1-7,3.6c-1,.39-2,.77-3,1.07-1.27.34-3.07.75-4.16-.26a45.12,45.12,0,0,1-11,1.51h-.11a8.24,8.24,0,0,0,2,5.59c2.41,2.27,5.93,1.81,8.94,1.51a4.29,4.29,0,0,1,2,.14A2.42,2.42,0,0,1,144,53.38l15.92-8.13a16.46,16.46,0,0,1,2.87-1.59,3,3,0,0,1,1.77,0l.78.41.61.82,3.65-2.54c.89-.62,1.78-1.26,2.69-1.84V36.67Zm-13.84,24.4q-2.59,1.18-5.3,2.16a35.57,35.57,0,0,1-13.66,2.18,22.55,22.55,0,0,1-7.18-1.79,20.25,20.25,0,0,1-4.12-2.55H73.46V61c-2.42-.12-3.62-1.13-3.62-3.05V37.48c0-2-.73-2.34-1.86-.68L51.52,61.07H48.47V20.33A2,2,0,0,0,46.19,18H43.9V15h9.15q3.06,0,3.06,3v27L68.32,27.56a5.14,5.14,0,0,1,4.57-2.3h1.53c2,0,3,1,3,3.06v27.3a2.22,2.22,0,0,0,.7,1.84h42a21.19,21.19,0,0,1-2.73-5.23H113c-2.73,0-4.09-.93-4.09-2.77v-18c0-1.85-.62-2.05-1.86-.62L90.61,52.23H87.55V29.4c0-1.38-.76-2.08-2.28-2.08H83V24.56h9.16c2,0,3,.92,3,2.76V42.49L107.4,26.63A5.3,5.3,0,0,1,112,24.56h1.53c2,0,3,.92,3,2.76V38.4a33.44,33.44,0,0,1,1.33-5l1.68-3.75,1.89-3.46,2.1-3.19,2.27-2.91,2.42-2.64L130.79,15l2.64-2.11.68-.46H41.42c-.06,10.65-.49,21.7-1.27,25.56A31.78,31.78,0,0,1,34.53,50.5c-2.84,3.9-5.78,6.63-8.82,8.16a24,24,0,0,1-11,2.31H12.44c-2,0-3-1-3-3.06V14.75q0-3-4.58-1.52V9.41H14c2,0,3,1,3,3.05v42.4a1.35,1.35,0,0,0,1.53,1.53h.76c1.58,0,3.68-.72,6.26-2.18a18,18,0,0,0,6.69-7.35A33.16,33.16,0,0,0,36,36.69c.59-3.35.89-16.78.89-19.72V8.85q51.74,0,103.47-.06l1.42-.69L144.57,7l2.81-.89,2.77-.65L152.87,5l2.64-.2h2.55l2.43.24,2.3.45,2.15.69,2,.91,1.77,1.17.52.5h5.05a26.4,26.4,0,0,1,18.6,7.68,25.91,25.91,0,0,1,0,36.94,26.4,26.4,0,0,1-18.6,7.68H153.78Zm-4.42-28.38A52.66,52.66,0,0,0,154.75,29c1.37-1.28,2.85-2.59,3.47-4.4.06-.52,0-.53-.41-.84-2.12-1-4.62-.72-6.87-.41l-2.92.67L145,25.14l-1.54.7-1.54.8-1.5.91-1.47,1-1.41,1.12-1.35,1.22-1.26,1.33-1.17,1.43-1.07,1.54a22.35,22.35,0,0,0-1.85,3.61,50.68,50.68,0,0,0,9.2-1.93,47.89,47.89,0,0,0,9.36-4.19Z" fill="#fff" fill-rule="evenodd"/><path d="M167.62,36.67V29.06h4.62V24.43h7.61v4.63h4.63v7.61H179.9v4.62h0v6.09c0,1.86,1.52,2.31,4.57,1.39v3.46h-6.71c-3.66,0-5.52-1.84-5.52-5.54v-10ZM83,24.56h9.16c2,0,3,.92,3,2.76V42.49L107.4,26.63A5.3,5.3,0,0,1,112,24.56h1.53c2,0,3,.92,3,2.76V47.38c0,1.39.76,2.08,2.28,2.08h2.3v2.77H113c-2.73,0-4.09-.93-4.09-2.77v-18c0-1.85-.62-2.05-1.86-.62L90.61,52.23H87.55V29.4c0-1.38-.76-2.08-2.28-2.08H83V24.56ZM174.25,8.77a26.4,26.4,0,0,1,18.6,7.68,25.91,25.91,0,0,1,0,36.94,26.4,26.4,0,0,1-18.6,7.68H73.46V61c-2.42-.12-3.62-1.13-3.62-3.05V37.48c0-2-.73-2.34-1.86-.68L51.52,61.07H48.47V20.33A2,2,0,0,0,46.19,18H43.9V15h9.15q3.06,0,3.06,3v27L68.32,27.56a5.14,5.14,0,0,1,4.57-2.3h1.53c2,0,3,1,3,3.06v27.3a2.22,2.22,0,0,0,.7,1.84h96.08a22.8,22.8,0,0,0,16.07-6.62,22.33,22.33,0,0,0,0-31.84,22.8,22.8,0,0,0-16.07-6.62H174v.08H41.42c-.06,10.65-.49,21.7-1.27,25.56A31.78,31.78,0,0,1,34.53,50.5c-2.84,3.9-5.78,6.63-8.82,8.16a24,24,0,0,1-11,2.31H12.44c-2,0-3-1-3-3.06V14.75q0-3-4.58-1.52V9.41H14c2,0,3,1,3,3.05v42.4a1.35,1.35,0,0,0,1.53,1.53h.76c1.58,0,3.68-.72,6.26-2.18a18,18,0,0,0,6.69-7.35A33.16,33.16,0,0,0,36,36.69c.59-3.35.89-16.78.89-19.72V8.85q68.72,0,137.39-.08Z" fill="#e60012" fill-rule="evenodd"/><path d="M172.61,40.27l.56-.32a3.17,3.17,0,0,1,2.25-.38l.78.33.68.75.29.77A3.1,3.1,0,0,1,177,43.1a4.91,4.91,0,0,1-.95,1.27,48.58,48.58,0,0,1-6.46,5.25,2.62,2.62,0,0,1-.34,1.76,9,9,0,0,1-2.35,2.25,69.42,69.42,0,0,1-10.38,6.14,70.56,70.56,0,0,1-8,3.46,35.57,35.57,0,0,1-13.66,2.18,22.55,22.55,0,0,1-7.18-1.79,20,20,0,0,1-4.38-2.77l-.71-.63a21.17,21.17,0,0,1-6.23-12.56,31.61,31.61,0,0,1-.07-7.21,33.3,33.3,0,0,1,1.63-7.09l1.68-3.75,1.89-3.46,2.1-3.19,2.27-2.91,2.42-2.64L130.79,15l2.64-2.11,2.73-1.86,2.78-1.6,2.81-1.36L144.58,7l2.8-.89,2.77-.65L152.87,5l2.64-.2h2.55l2.43.24,2.3.45,2.15.69,2,.91,1.77,1.17,1.52,1.43,1.21,1.7.85,1.93.43,2.11,0,2.25L172.22,20l-.87,2.39-1.3,2.47-1.73,2.54-2.17,2.63L163.5,32.8a74.7,74.7,0,0,1-8.4,6.29,47.52,47.52,0,0,1-7,3.6c-1,.39-2,.77-3,1.07-1.27.34-3.07.75-4.16-.26a45.12,45.12,0,0,1-11,1.51h-.11a8.24,8.24,0,0,0,2,5.59c2.41,2.27,5.93,1.81,8.94,1.51a4.29,4.29,0,0,1,2,.14A2.42,2.42,0,0,1,144,53.38l15.92-8.13a16.46,16.46,0,0,1,2.87-1.59,3,3,0,0,1,1.77,0l.78.41.61.82,3.65-2.54c1-.71,2-1.43,3.06-2.07Zm-23.25-7.58A52.66,52.66,0,0,0,154.75,29c1.37-1.28,2.85-2.59,3.47-4.4.06-.52,0-.53-.41-.84-2.12-1-4.62-.72-6.87-.41l-2.92.67L145,25.14l-1.54.7-1.54.8-1.5.91-1.47,1-1.41,1.12-1.35,1.22-1.26,1.33-1.17,1.43-1.07,1.54a22.35,22.35,0,0,0-1.85,3.61,50.68,50.68,0,0,0,9.2-1.93,47.89,47.89,0,0,0,9.36-4.19Z" fill="#fff" fill-rule="evenodd"/><path d="M122.53,49a16.13,16.13,0,0,0,1,2.94,13.37,13.37,0,0,0,2.88,4.17A13,13,0,0,0,130.84,59,16.18,16.18,0,0,0,136.72,60c5.61-.08,10.77-1.86,15.78-4.27A96.35,96.35,0,0,0,164,49.09c2.51-1.65,5-3.38,7.43-5.1.92-.65,1.85-1.32,2.83-1.88a3.18,3.18,0,0,1,.37-.18s.14,0,.19,0,0,.12,0,.16a2.21,2.21,0,0,1-.23.36,27.07,27.07,0,0,1-2.15,2c-.83.71-1.69,1.38-2.57,2-2,1.45-4,2.83-6,4.21a93.24,93.24,0,0,1-10.59,6.38,60.45,60.45,0,0,1-5.65,2.52c1.94-.65,3.85-1.44,5.77-2.3.7-.31,1.39-.65,2.07-1,2.77-1.38,5.46-2.88,8.14-4.42,1-.58,2-1.19,3-1.68l.39-.15c.05,0,.15,0,.2,0s0,.13,0,.16a3.1,3.1,0,0,1-.27.34,24.72,24.72,0,0,1-2.36,1.86c-.92.65-1.87,1.26-2.83,1.83-2.18,1.3-4.43,2.48-6.71,3.63-.34.18-.69.36-1,.52-5.5,2.6-11,4.57-17.14,4.7a19.54,19.54,0,0,1-7-1.17,16.28,16.28,0,0,1-5.59-3.42,17.11,17.11,0,0,1-3.7-5.1,20.49,20.49,0,0,1-1.79-6,28.37,28.37,0,0,1,1.42-13.11c15.81-39.52,71.13-31.46,41.73-3.19-5.13,4.4-10.57,8.18-17.06,10.27a9.18,9.18,0,0,1-1.63.38,2,2,0,0,1-.49,0,.38.38,0,0,1-.25-.08,15.64,15.64,0,0,1,2-1.14c1.38-.71,2.71-1.43,4-2.18-1,.43-2,.84-3,1.23-.4.16-.82.3-1.23.44a48.65,48.65,0,0,1-12.51,2.55,27.79,27.79,0,0,1-4.28-.07,17.87,17.87,0,0,0,0,3.87,12,12,0,0,0,.92,3.43c.1.23.22.45.34.67a8.08,8.08,0,0,0,1.39,1.85A7.69,7.69,0,0,0,132.66,54a12.06,12.06,0,0,0,4,.76,26.6,26.6,0,0,0,3.57-.18c.38,0,.76-.09,1.14-.11a1.22,1.22,0,0,1,.33,0,.21.21,0,0,1,.15,0,3.55,3.55,0,0,1-.78.32,9.36,9.36,0,0,1-1.18.33,15.9,15.9,0,0,1-3.22.37,12.3,12.3,0,0,1-4.29-.7,9.77,9.77,0,0,1-2-1,8.1,8.1,0,0,1-1-.77,9.4,9.4,0,0,1-2.06-2.78,12.22,12.22,0,0,1-.69-1.71,12.12,12.12,0,0,0,.59,1.76,9.74,9.74,0,0,0,1.92,3,12.42,12.42,0,0,0,3,2.2l.4.25s.14.1.14.16a2.93,2.93,0,0,1-.66-.1,8,8,0,0,1-3.39-2,10,10,0,0,1-2.2-3.17,15,15,0,0,1-1-3.77c0-.1,0-.2,0-.3a18.29,18.29,0,0,1,1.24-9.75,27.84,27.84,0,0,1,5.73-9.29l.45-.57.15-.17-.17.15a27,27,0,0,0-6.49,9.75,21.31,21.31,0,0,0-1.36,9.93,13.58,13.58,0,0,0,1.15,4.2,10.77,10.77,0,0,0,2.31,3.29,10.2,10.2,0,0,0,3.49,2.17,13.43,13.43,0,0,0,4.86.82A32.17,32.17,0,0,0,149.06,54c.67-.29,1.33-.6,2-.92,2.94-1.44,5.75-3.08,8.54-4.8,1-.64,2.07-1.31,3.13-1.92a4.69,4.69,0,0,1,.81-.4s.13,0,.17,0,0,.11,0,.14a19.19,19.19,0,0,1-2,1.71c-.95.71-1.92,1.39-2.92,2A82.39,82.39,0,0,1,151.57,54c-4.35,2.22-8.81,4-13.68,4.49.5,0,1-.07,1.5-.13a44.3,44.3,0,0,0,12.46-3.76c1-.42,1.89-.87,2.86-1.26a3,3,0,0,1,.7-.23s.11,0,.13,0,0,.1,0,.13a14.23,14.23,0,0,1-1.39,1c-.62.38-1.25.74-1.89,1.07A44.36,44.36,0,0,1,141.87,59a24.19,24.19,0,0,1-5.16.62,16.36,16.36,0,0,1-5.76-.92A12.84,12.84,0,0,1,126.54,56a13.49,13.49,0,0,1-2.94-4A16.85,16.85,0,0,1,122.53,49Zm6.12-11.36a21.67,21.67,0,0,0-1.06,3.84h0c1.48-.12,3-.25,4.43-.45a50.11,50.11,0,0,0,11.44-2.88,51,51,0,0,0,12.8-7.32c16.58-14.47-18.73-14.66-27.66,6.81Z" fill="#1d2088"/><polygon points="169.79 35.87 169.79 29.86 173.04 29.86 173.04 26.6 179.05 26.6 179.05 29.86 182.31 29.86 182.31 35.87 179.05 35.87 179.05 39.12 173.04 39.12 173.04 35.87 169.79 35.87 169.79 35.87" fill="#fff" fill-rule="evenodd"/><polygon points="170.75 34.9 170.75 30.82 174.01 30.82 174.01 27.56 178.09 27.56 178.09 30.82 181.35 30.82 181.35 34.9 178.09 34.9 178.09 38.16 174.01 38.16 174.01 34.9 170.75 34.9 170.75 34.9" fill="#e60012" fill-rule="evenodd"/><path d="M791.21,48.14l0-.16.1-.38.29-.39.43-.41,1.06-.86.5-.48.46-.66-.27-.83-.34-.62L793,42.8l-.48-.49-.54-.43-.56-.38-.58-.33-.64-.31-.64,0-.57,0-.55.06-.54.1-.54.13-.52.16-.5.18-.5.21-.49.22-1,.48c-.76.4-1.52.82-2.29,1.22l-.48.22-.35.09H781l-.15-.06-.12-.11-.11-.18-.1-.26-.07-.33-.06-.37c0-.42-.09-.83-.13-1.24l-.06-.41-.09-.39-.13-.36-.29-.45-.53,0-.3.1-.25.14-.2.19-.16.19c-.14.22-.29.44-.44.65l-.14.77-.09.7,0,.69v.69l0,.67.08.67.11.65.15.64.18.64.21.62.23.61.26.6.27.59.3.57.31.57.47.78.63-.19.32-.23.23-.27.16-.29.29-.52.16-.21.31-.27.21-.63,0-.56-.1-.51-.17-.46-.19-.44-.16-.41-.09-.41v-.3l.2-.21.32-.26.33-.22L783,45l.39-.16.4-.13.42-.11.44-.09.9-.13c.89-.1,1.79-.16,2.67-.3l.29.29,0,.25-.09.42-.11.42-.13.41-.16.41-.18.39-.2.39-.23.36-.25.34-.28.32-.29.29-.32.26-.34.23-.36.19-.38.16-.54.15-.28.36-.19.29-.17.31-.14.32-.11.33-.07.35,0,.35.06.64c.21,0,.43,0,.64.05h.31l.19,0,.18-.12h.26l.42-.07.4-.11.38-.13.37-.15L788.2,51l.32-.14.32-.12.31-.1.31-.06.31,0,.32,0,.28.05.46.29,0,.09-.06.11-.32.26-.5.31-.53.37-.46.46-.39,1.08,1-.18,2-.28.84-.14.41-.09.42-.12.4-.13.4-.17.38-.19.36-.23.34-.27.4-.39,0-.46v-.38l0-.4-.06-.41-.11-.4-.15-.39-.21-.36-.31-.38-.58-.2-.51-.1-.5,0-.48,0-.48.06-1,.16Zm-13-12c1-.06,2-.08,3-.14l.83-.08.82-.13.41-.09.41-.1.4-.13.41-.15.4-.17.35-.18.35-.23.35-.27.31-.31.25-.38.14-.45,0-.49-.27-.64-.81-.12-.61,0-.6,0-.56.09-.56.14-.53.18-.52.2-2,.9-.49.2-.49.19-.5.15-.5.12-.8.11-.08.48v.25l.05.24.09.21.12.19.16.15.19.13.25.11Zm24.14-7c-.82-.34-1.64-.68-2.46-1-.53-.24-1.06-.49-1.58-.76l-.76-.43-.37-.24-.36-.24-.36-.26-.7-.55-.44-.11H795l-.36,0h-.29l-.19,0L794,25.4l-.21-.44-1.2-.55-1.1-.47-1.11-.41-.56-.2-.57-.17-.57-.16-.57-.14-.58-.13-.58-.1-.59-.09-.59-.06-.6,0h-.39l-.14-.24-.15-.38-.08-.37,0-.39,0-.39.07-.4.12-.41.14-.42c.22-.59.46-1.18.67-1.78l.14-.47.11-.48.06-.49v-1l-1.06.32-.55.32-.45.42-.38.46-.33.5-.58.95-.49.73.25.16-.35.1-.92,1c-.41.48-.81,1-1.21,1.46s-.76,1-1.13,1.49c-.48.66-1,1.33-1.42,2l-.68,1c-1.65,2.55-3.21,5.15-4.85,7.71q-.48.75-1,1.5l-.53.54-.54.58-1,1.19-1,1.22-2,2.46q-.75.91-1.53,1.83l-.53.6-.55.59-1.64,1.69,1.91-.69.44-.27.37-.31.69-.62L765,44l.35-.18.54-.12c1.46-1.52,2.92-3,4.35-4.56l1.2-1.32q.88-1,1.74-2l.56-.69.55-.69.53-.71.49-.66.64-.45.64-.58.57-.64.52-.68.48-.7,1.35-2.08.46-.64.48-.59.5-.52.55-.43.6-.35.67-.24.75-.13h.79l.79.4.89.39.9.35,1.38.46L792,27.76c.46.15.91.3,1.35.46l.89.35.86.38.84.43.42.24.4.25.4.27.39.28.38.31.46.39.61.09.48.11.47.15.45.18.45.21.44.24.43.26.44.28,2.16,1.52.45.3.45.29.3.17V35l0,.07-.08,0-.2.06-.3.06-.35.09-.37.2-.35.43.17.71.3.43.4.27.41.17.4.12.35.12.29.16.32.32.54.15.48,0,.48-.06.45-.14.44-.2.4-.27.35-.33.34-.4.24-.67V35.8l-.17-.51-.28-.42-.64-.73-.28-.37-.25-.48-.36-.41-.34-.36-.36-.33-.36-.32-.37-.3-.37-.28-.77-.52-.8-.46c-.4-.21-.8-.42-1.21-.61l-1.23-.55Z" fill="#231815" fill-rule="evenodd"/><path d="M750.24,44.45c-2.47-1.05-1.79,2.19-3.16,3-1.18,2.61-4.11,1.79-6.17,2.66-1.74-.51-3.79-.14-5.12-1.65-2.24-.91-3.2-3.29-3.52-5.49-1-2.69-.77-5.89-.82-8.95,1.37-1.74.23-4.12.37-6.17a14.19,14.19,0,0,0,1-4.62c.22-.55,1-.92.68-1.65,1.46-.55.6-2.33,1.33-3.33a9.65,9.65,0,0,0-1.19-1c-.92-.36-2.24.09-3-.82-.55,0-1.78-.23-1.33.82a32.78,32.78,0,0,1-.5,12c.32,4.89-.59,9.69.18,14.4,1.42,2.24,1.7,5.11,4.16,6.81,5.94,3.56,14.45,2,19.89-1.65,1.23-2.24-1.88-2.88-2.79-4.34ZM734.28,31c3.25-.91,6.54-1.65,9.28-3.79,1.15-1.47-.64-2.93-.5-4.67-.46-.82-.91-1.92-1.83-2.33a3.11,3.11,0,0,0-1.14,2.33,12.62,12.62,0,0,0-4,5c-.36,1.41-3.47,1.87-1.83,3.47Zm-15.87-7.77c-.92-.55-1.1-2-2.2-1.83-1.14,1.78-1.05,4.07-2,6-1.88,1.55-1.65,4.07-3.48,5.62.28,2-3.43,2.24-1.82,4.3,1.37,0,1.92-1,3-2,1.28.09,1.78-1.73,3-1.83,1.28.87,1.05,2.52.82,3.8-.37,3.61,0,6.35-.32,10,0,.82-.59,1.69-.13,2.52,1.36.45,1.27,2.56,3,2.28,2.38-2-.32-4.62.32-7.27-2-3.88,1.19-7.36,0-11.47-.64-.55-2.37-1-1.82-2.33,1.32-2.19,5.44-3.2,3.65-6.31-.32-.87-1.5-.41-2-1.46Z" fill="#231815" fill-rule="evenodd"/><path d="M682,35.84c0,.34,0,.67,0,1-.08.87-.26,1.73-.4,2.59l-.12.85,0,.35-.38.21-.2.09-.2.07-.2,0h-.2l-.2,0-.18,0-.17-.07-.15-.1-.14-.1-.22-.25a4,4,0,0,1-.34-.56c-.13-.24-.24-.49-.36-.73a2.69,2.69,0,0,0-.67-1l-.07-.05-.39-.2c.11-.47.22-.94.35-1.41a22.19,22.19,0,0,1,1.06-3l.52-1.16.47,1.46c.1.44.18.89.32,1.32a1,1,0,0,0,.26.46l1.56-1c0,.39.09.78.12,1.16Zm8.53,1a6.55,6.55,0,0,1-.39.53c-.39.47-.82.92-1.19,1.41l-.21.32c-.1.18-.19.35-.27.53l-.12.4,0,.22,0,.31c-.09.16-.19.31-.28.46a18.36,18.36,0,0,0-1.25,1.82,3.9,3.9,0,0,0-.2.47,2.42,2.42,0,0,0-.09.6,2.53,2.53,0,0,0,.07.48,2.74,2.74,0,0,0,.57.11h.31a7.79,7.79,0,0,0,1.66-.28c.4-.1.8-.19,1.2-.26a5.49,5.49,0,0,1,.7,0l.35,0,.09-.11.2-.14.21-.08.21,0h.47a1,1,0,0,0,.24,0c.11,0,.15-.14.2-.24l.24-.67.71.36a8.61,8.61,0,0,0,1.08.58l.22.08a4.18,4.18,0,0,0,.61,0l.31.54A14.33,14.33,0,0,1,697,46c.12.31.22.63.32.95l-.28.39-.18.21-.2.18-.19.16-.21.12-.22.1-.22.07-.21,0h-.43l-.21,0-.39-.1c-.26-.09-.49-.19-.73-.3a5.59,5.59,0,0,0-1.37-.54l-.23,0a1.67,1.67,0,0,0-.32.08l-.3.16-.57-.19a10.32,10.32,0,0,0-1.34-.29c-.32,0-.63-.07-1-.08s-.51,0-.77,0a9,9,0,0,0-1.16.19,10.14,10.14,0,0,0-1,.3c-.3.12-.59.25-.88.39l-.34-.33a.62.62,0,0,0-.36-.18,1.29,1.29,0,0,0-.68.23l-.58.36a3.43,3.43,0,0,1-.55.25l-.16,0-.16,0h-.18l-.18,0-.18,0-.17-.07-.17-.1-.13-.1a8.39,8.39,0,0,0-1.08.33c-.68.27-1.34.56-2,.79l-.64.17-.44.07-.45,0-.46,0-.23,0-.22-.06-.23-.09-.23-.1-.32-.2-1.64-.18V47.3l.51-.14.22,0h.21l.53.11a1.68,1.68,0,0,0,.54.11.45.45,0,0,0,.27-.16l.27-.33c.26,0,.51.06.76.07s.45,0,.67,0,.44-.09.67-.15a7.92,7.92,0,0,0,1-.37,14.43,14.43,0,0,0,1.35-.72c.38-.23.75-.47,1.11-.71.39-.53.76-1.07,1.11-1.63s.71-1.18,1-1.79.64-1.24.94-1.86c.84-1.77,1.59-3.56,2.35-5.36.14-.35.29-.71.44-1.06V29.77l1,1.74.14.16.15.11.17.07.21,0c.25,0,.5,0,.76.06l.29,0,.31.07.31.14.27.22.22.3.14.38.07.45v.5l0,.29v.59l0,.28,0,.26-.06.25-.16.46-.21.42-.12.2ZM668.62,37c.06,2.87.11,5.73.09,8.59,0,1.5-.05,3-.11,4.48-.05,1-.12,2-.2,3l-.14.18c-.07.14-.11.28-.17.42l-.09.21-.19.22-.33.13-.51-.05-.36-.62a10.31,10.31,0,0,1-.52-1.18l-.3-1c-.08-.35-.15-.69-.21-1s-.11-.89-.14-1.34,0-1.11,0-1.66.06-1.1.12-1.66c0-4.46.08-8.93,0-13.39,0-.76-.06-1.51-.09-2.27l.8.2.23.08.22.11.2.13.18.15.16.16.15.17.13.19.22.4a5.4,5.4,0,0,1,.25.67l.13.47c.25,1.17.3,2.36.44,3.54,0,.23.06.47.1.7Zm26.2-11.41-.26.24-.3.19-.15.08-.16.05-.16,0-.16,0h-.17l-.31-.06-.29-.1a3.18,3.18,0,0,1-.4-.23,17.66,17.66,0,0,0-3.85.3,6.86,6.86,0,0,0-.91.28l-.4.17-.6-.07c-.23,0-.45,0-.68,0s-.43,0-.65.07l-.44.08c-1,.23-1.94.58-2.93.83-.33.08-.67.14-1,.19l-.53.06h-.77a1.91,1.91,0,0,0-.88.48c-.31.26-.61.54-.93.8a4.3,4.3,0,0,1-.45.29l-.17.08-.18.06-.19,0h-.2l-.21,0-.2-.06-.19-.11-.18-.13-.16-.16-.15-.18-.15-.22-.14-.24-.14-.28-.21-.5.24-.35.14-.18.15-.15.16-.13.17-.12.18-.09.18-.07.19,0,.36-.05h.53c.48.05.94.15,1.42.18a2.48,2.48,0,0,0,.39,0l.24-.05a1.44,1.44,0,0,0,.33-.16l.11-.08.2-.18c.79-.25,1.58-.47,2.39-.68a44.92,44.92,0,0,1,5-1c.26-.19.52-.37.79-.53a6.38,6.38,0,0,1,.69-.35l.46-.18a6.22,6.22,0,0,1,.71-.19l.48-.07.48,0,.48,0,.47.07.47.11a7.23,7.23,0,0,1,.7.26,5.58,5.58,0,0,1,.69.35c.23.14.45.28.67.44l.37.29v.95Zm-24.63-5.13.06.43,0,.36v.35l0,.33,0,.32-.06.29-.09.29-.1.27-.12.25-.14.24-.3.44c-.17.21-.34.4-.52.59-.47.46-1,.88-1.46,1.33-.16.16-.32.32-.47.49l-.26.35-.22.38-.09.21-.12.32-.35.31a7.87,7.87,0,0,0-.71.82c-.49.66-.92,1.35-1.41,2l-.24.29a5,5,0,0,1-1.23,1,12.11,12.11,0,0,1-.8,1.26l-.33.43c-.18.19-.35.38-.54.56l-.2.17-.2.14-.21.13-.21.11-.56.22-.11-.19a2.34,2.34,0,0,1-.13.68,1.51,1.51,0,0,1-.15.28l-.27.29h-.79a4.41,4.41,0,0,1-.08-.73c0-.14,0-.26,0-.39l.08-.24a2.23,2.23,0,0,1,.2-.33l.1-.09.12-.08.14-.07.15,0,.24,0a2.42,2.42,0,0,1-.07-.54,3.23,3.23,0,0,1,.08-.53,4.87,4.87,0,0,1,.28-.72,11.66,11.66,0,0,0,.65-1.33l0-.15c.57-1,1.11-1.93,1.65-2.91.6-1.14,1.19-2.29,1.75-3.44.72-1.49,1.39-3,2-4.51.38-.92.76-1.85,1.11-2.77l.34-.87a6.45,6.45,0,0,1,.82.34,3,3,0,0,1,.38.24,4.4,4.4,0,0,1,.67.62,7,7,0,0,1,.67.88A12,12,0,0,1,670,20l.21.47Zm16.08-4.26a8.24,8.24,0,0,1,.5.8,5.86,5.86,0,0,1,.26.57,5.09,5.09,0,0,1,.24.93c0,.22,0,.43.05.66a5.22,5.22,0,0,1-.2,1.25c-.06.11-.12.23-.17.34a7.7,7.7,0,0,1-.51,1.09c-.14.2-.31.38-.47.57l-.53-.28-.41-.27c-.19-.15-.37-.3-.54-.46s-.33-.35-.48-.53c-.6-.73-1.09-1.52-1.65-2.27-.18-.23-.36-.45-.56-.67a5.76,5.76,0,0,0-.44-.41,4.07,4.07,0,0,0-.48-.33l-1.47-.78,1.57-.08a.7.7,0,0,0,.22-.2c.19-.26.36-.53.54-.8l.16-.2.19-.2.25-.17.32-.09.35,0,.31.18.2.19a1.39,1.39,0,0,1,.45-.14h.19l.18,0,.35.09.31.12.72.35c.19.22.38.44.55.67Z" fill="#231815" fill-rule="evenodd"/><path d="M846.78,24.11l-.15.17-.18.15-.21.14-.24.12-.28.1-.31.08-.31.05-.26.34a4.28,4.28,0,0,0-.54.67l0,.09,0,.12v.15l0,.13.09.16a2.29,2.29,0,0,0,.45.43l.09,0,.11,0,.14,0,.16,0,.21-.11a1.56,1.56,0,0,0,.2-.16c.15-.15.28-.31.42-.47a5.27,5.27,0,0,1,.5-.55,2.39,2.39,0,0,1,.26-.21l.13-.08a1.33,1.33,0,0,1,.3-.11,1.27,1.27,0,0,1,.28,0l.26,0,.23-.33a5.76,5.76,0,0,1,.41-.44l.39-.34.57-.39c.4-.25.81-.51,1.2-.79l.21-.17.31.1.53.12.78.12.51.07a4.24,4.24,0,0,1,1.51.48l.23.15.32.31.2.29v.31l0,.29-.06.26-.07.25-.1.22-.11.22-.13.19-.15.19-.16.16-.17.16-.39.28-.49.27-.61.26c-.49.18-1,.33-1.48.5a8.9,8.9,0,0,0-1.58.61l-.35.2-.48.33c-.5.3-1,.57-1.5.87l-.44.31-.21.18-.17.19-.15.21-.13.22-.09.25-.11.44a3.42,3.42,0,0,1-.23-.42,5.94,5.94,0,0,0-.35-.82l-.12-.18c-1.11-.21-2.23-.44-3.35-.61l-.41-.06a12.6,12.6,0,0,0-1.37-.09,6.37,6.37,0,0,0-1,.05l-.38.06h-.8l.41-.25.3-.25.22-.28a2.76,2.76,0,0,0,.27-.58c0-.16.09-.31.13-.47.11-.6.19-1.21.32-1.8a4.75,4.75,0,0,1,.18-.57l.2-.38.11-.17.13-.17a2.37,2.37,0,0,1,.37-.34,2.92,2.92,0,0,1,.37-.24l.2-.11c.07-.23.13-.45.18-.68s.13-.72.18-1.09a7.59,7.59,0,0,1,.39-1.63c0-.09.08-.18.12-.28a2.47,2.47,0,0,1,.44-.63l.11-.11.09-.35a4.54,4.54,0,0,0,.09-.51,4.42,4.42,0,0,0,0-1.09,5.62,5.62,0,0,0-.09-.57,5.94,5.94,0,0,0-.24-.79,7.12,7.12,0,0,0-.35-.74c-.16-.27-.32-.54-.51-.8s-.52-.67-.8-1l-.37-.41.61-.12.31,0a4.69,4.69,0,0,1,1,0c.22,0,.44.08.65.14a7,7,0,0,1,.77.27c.41.18.79.37,1.17.58s1,.62,1.57.93l.81,2.67-.15.24-.11.22-.08.23-.11.46,0,.5v.52c0,.7.14,1.4.19,2.09v.5l0,.23,0,.23,0,.22-.07.21-.1.19-.13.19Zm7.62,10.5,1.11.38a2.78,2.78,0,0,1,.49.24,1,1,0,0,1,.22.19l.07.1.05.11,0,.11,0,.13V36l0,.15,0,.16-.06.17-.2.39a3.68,3.68,0,0,1-.16.54,4.18,4.18,0,0,1-.31.64,2.75,2.75,0,0,1-.19.28,3.78,3.78,0,0,1-.56.64,7.56,7.56,0,0,1-.69.58l-.38.24a8.33,8.33,0,0,1-1.34.66l-.43.15c0-.3,0-.59,0-.88a4,4,0,0,0-.08-.48l-.1-.35-.13-.24a2,2,0,0,0-.19-.22l-.08-.09-.31-.09-.28,0h-.23l-.2,0-.17.07-.15.09-.14.13-.22.31-.24.52c-.11.24-.21.49-.34.72l-.1.19-.25,3.57.71-.06.61-.09.6-.14.3-.09a5.44,5.44,0,0,0,.66-.28,4.37,4.37,0,0,0,.55-.32l.16-.12.1.17a1.87,1.87,0,0,1,.08.34,2.1,2.1,0,0,0,.16.69l0,.07a.84.84,0,0,0,.18.15,13.52,13.52,0,0,0,1.51.66l.54.23.23.12.23.14.22.16.2.17.18.2.17.23.14.25.17.48.1.46,0,.39v.18l0,.18,0,.18-.06.16-.09.14-.11.11-.14.08-.17,0h-.19a5.25,5.25,0,0,1-.6-.17l-.25-.09a12,12,0,0,1-1.52-.77l-.72-.42a17.29,17.29,0,0,0-1.89-1,4.85,4.85,0,0,0-1.1-.35c-.25-.05-.49-.07-.74-.1l-.2.45c-.12.3-.22,3.83-.28,4.15-.14.61-.2,1.25-.28,1.87-.05.34-.09.68-.17,1,0,.11,0,.21-.08.32a5.05,5.05,0,0,1-.27.74l-.21.38-.26.37-.15.17-.19.18-.21,0-.15,0-.29-.1-.12-.07L845.9,55l-.21-.24a3.21,3.21,0,0,1-.19-.31,6.46,6.46,0,0,1-.26-.69c-.1-.35-.19-.7-.3-1a3.61,3.61,0,0,0-.3-.73l-.19-.3c0-.25.08-.51.14-.76.17-.7.38-4.63.58-5.32l.29-1.13a8.09,8.09,0,0,0,.15-1.3c0-.17,0-.34,0-.5s-.07-.47-.13-.7l-.14-.47-.23-.51.15-.24.19-.37c.06-.17.12-.34.17-.5a5.16,5.16,0,0,0,.1-.67v-.4c0-.31,0-.61-.07-.92a11.06,11.06,0,0,1-.1-2l.08-.46a2.13,2.13,0,0,1,.13-.43l.12-.28-.55-1.25h.44l.3.06.25.11.21.16.19.18.17.21c.24.37.45.76.7,1.13l.15.19.17.16.19.13.22.1.34.06,0,.25a.72.72,0,0,0,.07.28,2.41,2.41,0,0,0,.36.48l.58-.56a9.78,9.78,0,0,1,1.2-.92A20,20,0,0,1,853.69,34l.16.23.14.13.27.17.14.06Zm-23.21-8c-.5,1-1,2-1.49,2.95L828.57,32l-.52,1.21-.49,1.22-.32.86.85.64.55.5.5.54.43.57.38.59.32.63.27.65.22.66.17.69.13.7.08.72,0,.72v.73l0,.72-.07.73-.1.67-.14.26-.2.3-.24.29-.27.28-1,1-.48-.08-.55-.2-.48-.3-.43-.38-.39-.45-.33-.5-.29-.54-.24-.53c-.14-1-.17-1.93-.25-2.9,0-.33-.07-.66-.11-1l-.12-.63-.09-.3-.26-.82-.76.72-.33.43-.3.45-.31.42-.3.33-.31.2-.31.07L822,41.7h-.48l-.24-.1-.19-.19-.15-.29-.12-.39-.21-.87-.1-.29c.18-.55.36-1.09.55-1.63s.43-1.15.66-1.72c.85-2.13,1.76-4.23,2.62-6.36.23-.58.45-1.17.67-1.76l.42-1.19c.2-.61.38-1.21.56-1.82l.32-1.23.15-.62.12-.63.12-.63.1-.63.49-3.61.35.38.51.5c.52.48,1,.95,1.58,1.42l.5.48.47.48.42.49.37.5.29.52.21.53.12.55,0,.58-.1.63-.22.68-.58,1.15Z" fill="#231815" fill-rule="evenodd"/><path d="M887.14,21a.81.81,0,0,1,.68.37,2.19,2.19,0,0,1,.42,1.46,17.94,17.94,0,0,1-.73,3.81,68,68,0,0,0-.37,7.88,63.67,63.67,0,0,0,.42,6.68c.31,2.33.47,3.8.47,4.44s-.23,1-.67,1a3.23,3.23,0,0,1-1.88-.89c-.67-.49-1-1-1-1.41a88.76,88.76,0,0,0,.63-10.44,50.5,50.5,0,0,1,1.67-12.32c0-.38.16-.58.36-.62Zm16.08-5.48q1.56,0,3,2.25c.8,1.32,1.42,3.77,1.88,7.36q.89,8,1,21.91a12.17,12.17,0,0,1-.84,4.59c-.48,1.15-1.11,1.73-1.88,1.73a4.51,4.51,0,0,1-2.76-1.1,17.78,17.78,0,0,0-3.29-1.82c-.69-.18-1.05-.4-1.05-.69s.36-.26,1.05-.26c1.85,0,3-.24,3.6-.73a2.06,2.06,0,0,0,.78-1.72q0-9.39-.41-18.47a80.83,80.83,0,0,0-.68-8.15c-.21-1.14-.49-1.72-.84-1.72a21.53,21.53,0,0,0-4,.73c-2.83.73-4.33,1.1-4.55,1.1a.69.69,0,0,1-.78-.78c0-.24,1.08-.87,3.23-1.88,3.34-1.56,5.52-2.35,6.53-2.35Zm-11.48,7.1c.59,1,1,1.51,1.3,1.51a5.68,5.68,0,0,0,2.66-1.3,7.59,7.59,0,0,1,3.6-1.21c1.53,0,2.3.48,2.3,1.41a4.57,4.57,0,0,1-1.41,3,4.36,4.36,0,0,1,1.31.42,1.81,1.81,0,0,1,.94,1.41c0,.45-.15.73-.42.83a36.64,36.64,0,0,0-5,1.36l-.21,2.35A6.56,6.56,0,0,1,899,31.8c1.12.07,1.68.62,1.68,1.66a1.25,1.25,0,0,1-1.2,1.31,46.35,46.35,0,0,0-5.69,1,2,2,0,0,1,.63,1.67,9.76,9.76,0,0,1-.11,1.25,6,6,0,0,0-.11,1.05c0,.83.3,1.25.89,1.25a7.47,7.47,0,0,0,1.83-.58,2.2,2.2,0,0,1,.88-.31c2,0,3,.54,3.08,1.51a1.35,1.35,0,0,1-.93,1.26,5.75,5.75,0,0,1-2.35.62c-2.41,0-3.85-.24-4.33-.73-.91-.49-1.36-1.49-1.36-3v-.42a5.07,5.07,0,0,0-.32-2c-.1-.28-.18-.53-.25-.73-.49.14-1,.29-1.52.47-.14,0-.21-.15-.21-.42s.4-.75,1.2-1.31,2.19-1.21,3.76-2l-.11-2.51q-2.61.95-5.84,2.24c-.13,0-.21-.09-.21-.2,0-.35.28-.78.83-1.31a64.86,64.86,0,0,1,6.22-3.8c1.7-1.68,2.55-2.7,2.55-3.08s-.14-.58-.41-.58a3.4,3.4,0,0,0-1.41.52,5.75,5.75,0,0,0-1.77,1.88,1.69,1.69,0,0,1-1.42.89,1.29,1.29,0,0,1-1.25-.94,4.24,4.24,0,0,1-.41-2.14c0-1,.11-1.62.36-1.72ZM867.61,48.66l-.06.46c-.07.29-.15.58-.22.87l-.06.34v.36l.06.38.15.36.12.25.17.25.21.21.23.19.26.15.28.11.3.06.38,0,.41-.19.3-.21.25-.26.2-.28.15-.3.11-.31.07-.33.06-.33.06-.68c0-.43,0-.86.08-1.29l0-.3.08-.43-.48-.74-.56-.29-.56.15-.44.35-.74.83-.34.31-.5.28Zm8.74-3.11-.53,0-.35.21-.21.31-.12.33-.18.87-.13.3.13.92.09.41.12.42.16.4.22.39.29.37.37.35.24.13.25.08.26,0h.27l.27,0,.26-.09.24-.14.23-.23.13-.35.07-.32.05-.32V49l-.05-.33-.07-.31-.12-.33-.22-.32-.54-.87-.2-.31-.24-.3-.27-.29-.42-.37Zm4.18-3.33L880,43.35c.16.45.32.9.49,1.35s.25.61.39.91l.32.6.18.3.2.29.22.28.24.28.27.26.28.26.34.27.18.09.2.07.22.06.24,0,.26,0,.25-.1.23-.19.16-.27.09-.29.07-.29,0-.3v-.6l0-.3-.07-.29-.1-.32-.41-.51-.41-.47-.44-.45-.46-.43-.5-.39-.51-.34-.55-.28-.84-.32Zm-5.29-4.16s-.06-.05-.06-.08v0c1-1.88,2.06-3.79,3.11-5.67l.65-1.13c.49-.85,1-1.69,1.53-2.52l.4-.53c.38-.45.77-.89,1.14-1.35l.22-.29.21-.3.18-.31.17-.32.14-.34.1-.36.07-.38,0-.46-.23-.5-.27-.39-.31-.36-.34-.31-.36-.29-1.12-.83-.26,0h-.17l-.16,0-.16.05-.16.07-.14.09-.13.11-.19.2,0,.31,0,.21.06.19.16.3.14.23-.07.34-.11.43-.12.43-.15.42-.16.42-.18.41-.2.4-.21.4-.47.77-.52.76c-.28.38-.56.76-.85,1.12l-.35.43-.2.64-.21.55-.24.54-.25.54c-.46.9-1,1.78-1.42,2.68l-.27.55-.26.56L873,36l-.2.58-.17.61-.13.62-.07.58-.13.29-.18.28-.23.25-.27.23-.31.22-1.08.66-.13.32-.07.26,0,.26v.54l0,.27.07.26.17.42.5,0h.3l.32,0,.32,0,.33-.08.32-.11.31-.13.26-.15c.5-.2,1-.41,1.48-.64s1-.48,1.5-.74.72-.4,1.08-.62l.69-.44c.31-.22.62-.44.93-.68l0,.36.1.33.18.3.26.24.42.21.68-.21.48-.25.39-.33.32-.37.25-.41.2-.44.16-.45c.13-.45.26-.91.38-1.36l.14-.43.16-.41.18-.37.23-.34.27-.29.42-.32.21-.38.06-.36,0-.33-.09-.3c-.11-.24-.23-.47-.34-.7l-.1-.33-.31-.2-.22-.14-.23-.11-.23-.1-.25-.09-.25-.07-.26,0-.46-.06-.4.55-.24.4-.2.42-.17.42-.15.43-.13.43c-.19.71-.34,1.44-.52,2.15l-.11.42-.12.4-.15.39-.16.38-.21.39-.12.31,0,.07-.22-.41-.47-.3-.53,0-.5.11-.94.31-.41.08h-.28l-.1-.11Zm-1.67-8.54-.23-.17-.6-.39c.17-.28.35-.55.54-.83.38-.54.77-1.07,1.19-1.6s.9-1.1,1.37-1.64l.16-.5.19-.39.24-.38.28-.37.32-.35c.34-.36.69-.72,1-1.07l.34-.37.33-.39.29-.41.24-.45.18-.47.11-.52,0-.55-.09-.66-1.69-1.84-.65-.26-.56.09-.39.35-.24.44-.37.89-.19.35-.34.33-.17.73-.18.6-.22.58-.24.58-.28.57-.6,1.14q-.64,1.14-1.26,2.28l-.3.59-.28.6-.24.62-.22.63-.16.61-.16.3-.2.29-.53.63-.26.35-.23.39-.16.45-.06.68,1.2.73.37.2.39.18.42.13.45.09.52,0,.33-.13.27-.13.27-.16.25-.2.22-.26.15-.32.06-.37,0-.45L874,30l-.2-.25-.23-.21Z" fill="#231815" fill-rule="evenodd"/><path d="M253.13,30.75c-3.73,1-7.69,1.45-11.54,2.17l-.24-.24c1.56-3.49-3.49-3.13-3.37-6.25-.24-.61-.72,0-1.08,0s-1.44.24-1.8-.37c-.48-2,1.8-3,2.88-4.08.73,1.56.24,4,2.53,4.45a2,2,0,0,0,2.4-1.09c1.21,1.81-2,4.45,1.21,5.29,1.92,1.08,2.4-1.32,3.12-2.4,1.8.24,2.89,1.92,4.93,1.56.48-.48.12-1.32.24-2-.72-1.57-2.53-1.57-3.73-2.77.12-2.4.84-5.17.6-8,1.21-1.08,2.41.6,3.73,0,.12-.72.84-1.2.72-2.16-.6-1.57-2.52-1.57-4.09-1.69-1.56,2.17-2.88-1-4.56-.72-1,.6-.48,1.8-1.33,2.41A6.52,6.52,0,0,1,241,21.62c-1.08-.24-3,.48-3.61-1.2-2.16-1,0-3.49-1.2-4.93-.72-1.93-3-1.21-4.33-2.05v.48c1.69,1.81,1,5,.49,7.22s-3.13,2.4-4.69,3.48c-1,.6-1-.84-1.33-1.2-.6,1.2-1.56,2.16-1.56,3.49a4.2,4.2,0,0,0,2.41,2.16c2.16,1,2.16-2.16,4-2.28a12,12,0,0,1-1.32,5.41c-.12.72-1.08,1.56-1.56.72-.48,1.44.6,1.8,1.2,2.64.36,1.68-1.44,3.13-2.52,4.09-.36-.6.12-1.08.36-1.44a2.19,2.19,0,0,0-.36-2.41c-1.57.48-1.93,2.16-3,3.13-.6,3.36-4.21,6.61-2,10.09a1.53,1.53,0,0,0,1.44,0c1.56-4.08,4.21-7.57,6.73-11.18,3.37.12,5.77-2.4,9-2.28.72,1.32.48,3.13.48,4.81-1.93,1.56-4.45,1.56-6.73,2.16a14.94,14.94,0,0,0,3.6,1.93c.84.36,2.05,0,2.77.36.48,2.52.12,5.41.24,8.17l-.6.72a3.67,3.67,0,0,1-2.89-.6c-.48-.72.48-1.44.24-1.92-1.44.48-2.28,2-3.84,2.28-.49-.84-.85-2-1.81-2.28-1.56,1.56-.24,3.36-.48,5.29a3.08,3.08,0,0,0,2.77,1.44c1.56-.12,1.68-1.92,2.16-3,.6-2.64,2.64.12,4.09,0,1.08,1,1.2,2.77,2.64,3a2.57,2.57,0,0,0,1.08-2.17c-1.2-4.08-1-8.41-.72-12.74,1.8-2.28,4.93-2.88,6.61-5.41,2.41-.72,4.57-2,7-2.76,1.21-.6,3.25.72,3.37-1.2-.6-2.53-3.73-2.17-5.89-2.89Zm-21,4.33c-.24-1.08,1-1.92,1.21-3l1.2-4.2c1.44,1.08,2.16,2.88,3.48,4.2.37.61,1.33.37,1.33,1.21a37.4,37.4,0,0,1-7.22,1.8Zm14.31,3.13-3-.49c-.48.37.48.73,0,1.21a2.16,2.16,0,0,1-1.08.48c-.36-1.2.24-3-.6-4.09-.24-1,.72-1,1.2-1.32,2.77-.36,5.53-1.2,8.42-.84-1.08,2-2.77,4.32-4.93,5.05Z" fill="#231815" fill-rule="evenodd"/><path d="M246.64,48.06l.48,1.2c-.36.36-.72,0-1.08,0,.6,2.05,3.12,3.49,3.36,5.65,1,.36,1.57,1.69,2.77,1.45,1.44-.36,1.2-1.93,1.08-2.89-.84-3-4-4.45-6.61-5.41Z" fill="#231815" fill-rule="evenodd"/><path d="M278.86,18.45c3.34-.26,6.25-1.7,9.73-1.83,1.46,1.18-.58,2.75,0,4.19,1.6-2.1,5.67-2.88,6.25-5.64-1.89-1.44-4.36-1.31-7.12-1.31-2.61,2-6.39,2.1-9.44,2.89-.15.52-.44,1.57.58,1.7Z" fill="#231815" fill-rule="evenodd"/><path d="M306.76,50.7c-.58-.13-.87.39-1.45.53-6.69-2.23-11.78-8.92-15.41-14-1.74-.92.44-2.36-.58-3.41a2.63,2.63,0,0,0-1.45.13,2.34,2.34,0,0,1-.58-2c2.61-2.36,6.83-1.44,9.59-3.93.29-.39,0-.92-.44-1.31-3.92-2.62-6.83,1.31-10,2.36a1.89,1.89,0,0,1-.87-2c.73-1.05,1.6-2.88,3.64-2.49a1.31,1.31,0,0,0,.43-1.44c-.29-1.44-2.32-1.18-2.91-2.36-1.45,1.84-4.35.92-6.1,1.57-.43.66.15,1.31.73,1.71,5.23.52-.29,4.19,2.18,6.55-2.76,1.58-6,2-9.16,2.63-1.45-1.18-.29-2.76-.43-4.2-.73-2.49,1-5-1-6.95-.29-.26-1.16-.26-1.16.26-.29,9.18-4.22,19.93.87,28.32,2,.79,2.76-1.57,4.36-2.49.87-1.84,2.9-3.15,3.63-5l6.25-6c2.33-.79,1.74,2,3.34,2.62,3.49,5.9,7.7,11.8,13.37,16.26,1.75-.14,3.49,1.18,4.36-.66-.58-1.44.29-3.54-1.16-4.72ZM286,35.49,277,44c-.58.26-1.16.78-1.89.52-1.6-2.75-1.45-5.64-1.45-8.92.43-1.83,3.05-.39,4.21-1.31,2.47-.39,4.51-2,7.27-1.83l1,1.44L286,35.49Z" fill="#231815" fill-rule="evenodd"/><path d="M350.93,30.05c-1.26-1.22-2.95-2.44-5-1.73a2.82,2.82,0,0,1-1.88-.43c.43-1.38,1.53-2.44,1.33-4.05-2.28-2.32-4.56.55-6.84.86-.24-.16-.12-.47-.12-.75a21.42,21.42,0,0,1,2.6-2c2-1.1,5-2.44,5.35-5.07a5,5,0,0,0-3.19-1c-.51-.59.12-1.45.16-2.2a1.21,1.21,0,0,0-1.73-.71c-1.65,1.18-4.6.55-5.08,3.19a15.5,15.5,0,0,1,3-1.14c.4,0,.55.47.59.86-.71,1.26,0,2.68.59,3.78-.12.67-.86.86-1.34,1.3a2.65,2.65,0,0,1-.86-1.62,4.35,4.35,0,0,0-4.64-2.16c-.75-.27-.24-1.18-1-1.45-4.13-3-7,2.12-10.43,3.61-.23.71.55.71.87,1s-.12.86-.16,1.29a3.9,3.9,0,0,1-1.14,3.94c-.94,1.65.95,2.63,1.73,3.62-.75.9-1.85,1.84-3.07,1.45-.47-3.93.79-8.65-2.75-11.17l-.27.43c-.75,5.82-2,11.41-2.32,17.43,0,2.16-.75,5,1.14,6.53.59.39,1.1-.16,1.77,0a4.58,4.58,0,0,0,2-4.21c.2-.4.55-.32.91-.32,1.92.91,3.1-1,4.75-1.14,2.64,1.14,5.24-.31,7.83-.43.2,1,1.73.59,1.46,1.73-1,1.61-.71,3.89-2.76,4.92l-.27-.28c.08-1.3.19-2.67,1.57-3.34l-.43-.59a3.23,3.23,0,0,0-1.73.9l-1.89-.31c-.27.55-.59,1.06-.86,1.61,1.21.16,1.45,1.53,1.73,2.48-.48.51-.75,1.26-1.46,1.57l-.27-.27a17.57,17.57,0,0,0-1-3.78,2.4,2.4,0,0,0-1.73-.43,31.55,31.55,0,0,1,.59,8c.4,2.2-1,5,1.14,6.65.44.19.71-.32.87-.43.86-2.44-.47-5.24.59-7.56.23-.47-.43-.74,0-1.14a5,5,0,0,0,2.48-.27c.66.47-.12,1.06.15,1.73-.35,1.81,1.58.86,2.32,1.73.2.59-.47.75-.74,1.18-1.42.43-2.05-1.38-3-2.05h-.32c0,1.54,1,2.72,1.46,4.05,2.63,1.22,4.76,3.82,8,3.62,2.75.08,3.93-3,4.92-4.91.16-3.62.94-7.32.47-10.9a3.7,3.7,0,0,0-3.22-2c-1.3-.4-3.19.27-3.9-1.18-.16-.51-.86-.71-.86-1.3,1.18-.63,2.91-.47,3.61-1.73-.31-1.06-1.69-1-2.63-1.18a19.57,19.57,0,0,1-3.62,1.61c-2.44.28-4.72,1.57-7.24,1.3v-.28c2-1.1,3.7-2.67,5.94-3.06,4,.39,7.16-1.22,9.87-3.9,2.6.2,4.84,1.3,7.56,1.3a1.13,1.13,0,0,0,.43-1.18ZM336.85,42c.67-.51.63-1.62,1.61-1.77,1,.08,2-.2,2.75.47.59,3.42.08,7.12-.15,10.58-.55.9-.44,2.08-1.62,2.75-1.65.75-3.38,0-4.75-.86.59-1.62,3.73-1.1,2.87-3.19-.59-1.1-2.8-.71-2.32-2.2.67-1.06,2-2.09,1.45-3.46-1.34-.51,0-1.58.16-2.32Zm-12.47-8.14c-.75,1.41-1.26,3.54-3.34,3.34-.28-1.57-.91-4.13.59-5.23,1.3.43,2.52-.87,3.3,0l-.55,1.89Zm3.46.43h-.27a4.52,4.52,0,0,1,1.3-2.6c.86-.08,1,.91,1.29,1.46.2,1.49-1.69.43-2.32,1.14Zm9.72-3.62c-1,1-2.24,2.09-3.78,1.61-1.06-1.61-3.22-.67-4.48-1.77-.2-2,2.16-2,3.34-2.75.59-.51,1.18-1.14.71-1.89-2.36-.15-.47-4.28-3.46-2.75-1,0-2,.63-2.91.31-.47-.59-1.26-1-1.46-1.77a18,18,0,0,1,6.69-2.16c1.49.28,2.52,1.65,3.18,2.91-.19,1-.9,2.05-.43,3.19-.2,1.22,1.65,2.55.16,3.46.27,1.22,3.07,0,2.44,1.61ZM340,27.3c-.62.94-1.77.82-2.75,1-.71-.28.12-.67.16-1a14.53,14.53,0,0,1,3.18-2.05A3,3,0,0,1,340,27.3Z" fill="#231815" fill-rule="evenodd"/><path d="M446.75,30.05c-1.26-1.22-2.95-2.44-5-1.73a2.82,2.82,0,0,1-1.88-.43c.43-1.38,1.53-2.44,1.33-4.05-2.28-2.32-4.56.55-6.84.86-.24-.16-.12-.47-.12-.75a21.42,21.42,0,0,1,2.6-2c2-1.1,5-2.44,5.35-5.07a5,5,0,0,0-3.19-1c-.51-.59.12-1.45.16-2.2a1.21,1.21,0,0,0-1.73-.71c-1.66,1.18-4.6.55-5.08,3.19a14.89,14.89,0,0,1,3-1.14c.39,0,.55.47.59.86-.71,1.26,0,2.68.59,3.78-.12.67-.86.86-1.34,1.3a2.65,2.65,0,0,1-.86-1.62,4.35,4.35,0,0,0-4.64-2.16c-.75-.27-.24-1.18-1-1.45-4.13-3-7,2.12-10.43,3.61-.23.71.55.71.87,1s-.12.86-.16,1.29a3.9,3.9,0,0,1-1.14,3.94c-.94,1.65.94,2.63,1.73,3.62-.75.9-1.85,1.84-3.07,1.45-.47-3.93.79-8.65-2.75-11.17l-.27.43c-.75,5.82-2,11.41-2.32,17.43,0,2.16-.75,5,1.14,6.53.59.39,1.1-.16,1.77,0a4.58,4.58,0,0,0,2-4.21c.2-.4.55-.32.91-.32,1.92.91,3.1-1,4.75-1.14,2.64,1.14,5.24-.31,7.83-.43.2,1,1.73.59,1.46,1.73-1,1.61-.71,3.89-2.76,4.92l-.27-.28c.08-1.3.19-2.67,1.57-3.34l-.43-.59a3.23,3.23,0,0,0-1.73.9l-1.89-.31c-.28.55-.59,1.06-.86,1.61,1.21.16,1.45,1.53,1.73,2.48-.48.51-.75,1.26-1.46,1.57l-.27-.27a17.57,17.57,0,0,0-1-3.78,2.4,2.4,0,0,0-1.73-.43,31.55,31.55,0,0,1,.59,8c.4,2.2-1,5,1.14,6.65.44.19.71-.32.87-.43.86-2.44-.47-5.24.59-7.56.23-.47-.43-.74,0-1.14a5,5,0,0,0,2.48-.27c.66.47-.12,1.06.15,1.73-.35,1.81,1.58.86,2.32,1.73.2.59-.47.75-.74,1.18-1.42.43-2.05-1.38-3-2.05H426c0,1.54,1,2.72,1.46,4.05,2.63,1.22,4.76,3.82,8,3.62,2.75.08,3.93-3,4.92-4.91.16-3.62.94-7.32.47-10.9a3.7,3.7,0,0,0-3.23-2c-1.29-.4-3.18.27-3.89-1.18-.16-.51-.86-.71-.86-1.3,1.18-.63,2.91-.47,3.61-1.73-.31-1.06-1.69-1-2.63-1.18a19.57,19.57,0,0,1-3.62,1.61c-2.44.28-4.72,1.57-7.24,1.3v-.28c2-1.1,3.7-2.67,5.94-3.06,4,.39,7.16-1.22,9.87-3.9,2.6.2,4.84,1.3,7.56,1.3a1.13,1.13,0,0,0,.43-1.18ZM432.67,42c.67-.51.63-1.62,1.61-1.77,1,.08,2-.2,2.75.47.59,3.42.08,7.12-.15,10.58-.55.9-.44,2.08-1.62,2.75-1.65.75-3.38,0-4.75-.86.59-1.62,3.73-1.1,2.87-3.19-.59-1.1-2.8-.71-2.32-2.2.66-1.06,2-2.09,1.45-3.46-1.34-.51,0-1.58.16-2.32ZM420.2,33.83c-.75,1.41-1.26,3.54-3.34,3.34-.28-1.57-.91-4.13.59-5.23,1.3.43,2.52-.87,3.3,0l-.55,1.89Zm3.46.43h-.27a4.52,4.52,0,0,1,1.3-2.6c.86-.08,1,.91,1.29,1.46.2,1.49-1.69.43-2.32,1.14Zm9.72-3.62c-1,1-2.25,2.09-3.78,1.61-1.06-1.61-3.22-.67-4.48-1.77-.2-2,2.16-2,3.34-2.75.59-.51,1.18-1.14.71-1.89-2.36-.15-.47-4.28-3.46-2.75-1,0-2,.63-2.91.31-.47-.59-1.26-1-1.46-1.77A18,18,0,0,1,428,19.47c1.49.28,2.51,1.65,3.18,2.91-.19,1-.9,2.05-.43,3.19-.2,1.22,1.65,2.55.16,3.46.27,1.22,3.07,0,2.44,1.61Zm2.47-3.34c-.62.94-1.77.82-2.75,1-.71-.28.12-.67.16-1a14.53,14.53,0,0,1,3.18-2.05,3,3,0,0,1-.59,2.05Z" fill="#231815" fill-rule="evenodd"/><path d="M378,21.42c1.3-.71,2.59,1.18,3.89.47.83-.47,2.13-.59,2.6-1.53,1.06-.95.47-1.54.23-2.83-1.88-1-4.72-2.25-6.72-.59.12.82,1.06.7,1.41,1.65s-.47,2.24-1.41,2.83Z" fill="#231815" fill-rule="evenodd"/><path d="M387.31,24.49c2.24-1.54,5.54-.83,7.9-2.24.12-1.18.12-2.6-.82-3.43-2.13-1.29-5-.47-7.08.12H390c.59.24,1.89.83,1.42,1.77l-4.13,3.78Z" fill="#231815" fill-rule="evenodd"/><polygon points="377.28 21.77 376.69 22.25 376.81 22.25 377.28 21.77 377.28 21.77" fill="#231815" fill-rule="evenodd"/><path d="M364.07,22.25c0,.82.7,1.41,1.29,2,4.49,1.06,1.54,6.37,2,9.44l-.47.59c-3.42-.83-.71-4.36-1.18-6.49-.12-.71-.83-1.06-1.42-1.3a2,2,0,0,0-2.36.24c.59,5.19.12,11.68.47,16.87.24,3.42-.82,6.37.95,9.2A1.6,1.6,0,0,0,365.48,54c2.6-1.88,1.3-5.42,1.42-8.37l-.59.59c-1.42-2.6-.95-6.37-.83-9.21.83.24,1.18,1.54,2.12,1.77.48-.59,1.54.24,1.89-.82.59-4.25,1.65-8.14,1.77-12.63-.94-2.95-4.6-2.36-7.19-3.06Z" fill="#231815" fill-rule="evenodd"/><path d="M376.81,32a9.17,9.17,0,0,0,7.67.12c1.41-1.65,4.24-.95,4.83-3.42-3.65-3.31-6.48,2.59-10.38,2.12-3.54-1.06.47-4.37.47-6.25a12.07,12.07,0,0,1-3.18,3.3c-.83-1.3-1.77-2.6-1.42-4.37-2.12,1.54-.94,4.25-.71,6.49-.11,2.13,2,.48,2.72,2Z" fill="#231815" fill-rule="evenodd"/><path d="M398.64,43.48c-1.3,2.36-2.25,6-5.55,6.49-2.12.12-4.72,1.18-6.25-.94-.83-2.48-.36-5,.11-7.43.12-.83,1.3-1.3.71-2.25a12.44,12.44,0,0,1-2.48-.47c.71-2.71,5.43-2.36,5-6-1.89-2.48-4.13,1.06-6.13.94a37.68,37.68,0,0,1-6.61,3.89c-.59.12-1.54.24-2-.23,0-.12-.12-.36.12-.48h-.24c-1.77-.11-1.53,1.77-1.53,2.95.47,3.19,3.42,1.3,5.43,1.77-1.77,4.13-5.31,7.44-8,11.09v1h.59c4.61-3.89,7.44-9.56,11.92-13.81.71-.47,1.18.24,1.65.71-.23,3.19-.94,6.37-.23,9.32.11,1.42,1.77,2,2.83,2.6,3.89.59,8.85.47,11.68-2.48,1.18-2.24-.24-4.6-.94-6.61Z" fill="#231815" fill-rule="evenodd"/><path d="M493.73,32.86c-1.53-.61-2.88-1.75-4.72-1.53l-.12.18c-.62.08-1.84.48-2.15-.31A9,9,0,0,1,488.27,27c-.26-1.7.48-3.41.44-5.16l.3-.3a6.25,6.25,0,0,1,.75-3.36c-.26-.79-1.31-1-2-1.49-1.44.17-2.71-1-4.06-.18s-3.37.13-5,.18c-.17-1.71,1-3.23.18-4.85L477.65,11c-1.48-.92-1.79.92-2.88,1.36v.3c.09,0,.13-.17.3-.13,1.27,1.44.05,3.76.44,5.77-.48,2.18-2.88,3.06-4.67,3.63,0-.27-.57-.49-.18-.75-.39-.91.26-2.53-.74-2.88-.79.48-1.66-.35-2.45-.79-.09.35-.39.62-.3,1.1,1.66,3.53.56,8.25,1.53,12.1-.44,1.05.43,2.71-.92,3.19-1-1.49-.44-3.67-.92-5.46-.74-1,0-2.67-1.35-3.32-.88.61.13,2.27-1.23,2.4-.35-.57-1.18-.09-1.48-.88-2-.21.08,1.19-.79,2,1.84,1.05,1.53,3.24,2,5,.18,1.4,2,1.71,2.1,3.06-1.05.66-2.41.79-3.5,1.36l.18.13c1.05.65,2.09,0,3.19.61,1.79-.13,3.54-2.32,5.28-.74a1,1,0,0,0,.44-1.05c.39-.74,1.14-.53,1.71-.79,2.57-.61,5.06-1.79,7.86-2a20.37,20.37,0,0,1,6.51-.62,6.13,6.13,0,0,1-2.1,2.28l-.61-.31c-.13.39-.35.83-.78.92,0,.17,0,.39.17.48,2.62-.61,5.16-.09,7.87-.48.7.57,1.13-.4,1.83-.31.44-.17.44-.78.61-1.22-.35-.7-.39-1.53-1-2.1ZM468,35.44l.13-.31c.4,0,.31.44.48.61-.3.09-.43-.17-.61-.3Zm9.7-6.51c-.61,1.31-.57,2.88-1.52,4.06-.4.22-.4-.3-.62-.44.48-1.57-.22-3.23,0-4.71a4.47,4.47,0,0,0-2.58-.88c-1.31,1.14.27,2.75-.43,4.24.35.13-.05.35,0,.61.17.88.13,2,1.22,2.41.13,0,.35,0,.44.17-.74.09-1.71,1.09-2.58.31-.57-1.1.48-2.23-.31-3.19.44-2-.78-3.59-.13-5.47a3,3,0,0,1,.13-2.44c.44.17.88-.31,1.23,0,.61-.18,1.09-.75,1.79-.75.17,1.14-1.44,1.93-.44,3A3.74,3.74,0,0,0,475.38,27c.79-.17,1.31-1,2.27-.78.66.82,0,1.83,0,2.75Zm7.74-9.27a1.34,1.34,0,0,1-.48,1.23c-1.1-.48-2.27.26-3.32-.18-.18.4-.57.31-.92.31l-.13-.13c-.7.26,0,.7,0,1.05.52.48,1.26.26,1.79.74.17.44-.74.79,0,1.09,1,.66,1.92-.7,2.75,0l-.48,2A8.53,8.53,0,0,0,481,27.09c.62.75,1.62,1.58,2.58,1.23l.75.13a2.48,2.48,0,0,1-1.05,2.27c-.57.44-1.53-.48-2,.48l1.05,1.18c-1.22.26-2.8.66-4.24.92,0-.75,1-.66,1.09-1.36.83-1.44.09-3.54,1.18-4.85-.3-1.09.53-2.14.48-3.32-.7-.52-1.35-1.53-2.27-.92-1,.09-.52-1-.61-1.52a27.32,27.32,0,0,0,3-2,19.06,19.06,0,0,0,3.81-.61.74.74,0,0,1,.61.91ZM461.88,44.4a6.52,6.52,0,0,0-.18-2c.18-.44.4-.7,0-1.09-1.44.35-.56-1.49-1.66-1.66l-.74,2.14c-.48,1.48-2.71,3.28-.74,4.85.83.35,1.66-.35,2.4-.79a1.37,1.37,0,0,1,.92-1.48ZM479.11,43c.52-.28,1-.55,1.58-.79s1.06-.44,1.61-.62a4,4,0,0,1,.59-.16c.22,0,.44,0,.67,0a2.76,2.76,0,0,0,.49-.07l.18-.06.17-.1.16-.14.13-.18.08-.2.07-.34-.15-.32a2.79,2.79,0,0,0-.4-.61l-.2-.18-.25-.15L483.7,39l-.24,0-.26-.23-.28-.17-.31-.11-.3,0a3.1,3.1,0,0,0-.43,0,5.45,5.45,0,0,0-.79.22,4.18,4.18,0,0,1-1.3.35l-.27,0c-2.14.54-4.28,1-6.44,1.51l-2,.45c-.26-.12-.57-.17-.61-.35-.19-.89-.93-1-2.21-.2a6.33,6.33,0,0,0-.44.46l-.23.31c-.11.18-.2.35-.29.53l-.12.39,0,.2,0,.21v.21l0,.21,0,.21.11.36.07.15.1.13.1.12.12.09a1.7,1.7,0,0,0,.35.19c.2.07.41.11.61.19l.27.14.75-.41,2.85-1.27,5.08-1.92.77-.33a2,2,0,0,0,.49,0,5.37,5.37,0,0,1,.57,0,11.53,11.53,0,0,0-1.31.88,32.35,32.35,0,0,1-2.77,2c-.17.1-.33.19-.5.27l-.51.23-.29.19-.26.23a3.79,3.79,0,0,0-.3.4,3.68,3.68,0,0,0-.21.45l-.09.32,0,.32v.32l.27.27.18.13.2.09.2,0,.19,0,.49,0a1.68,1.68,0,0,1,.5,0,.85.85,0,0,1-.19.14,20.07,20.07,0,0,0-2,.76l-.52.13-.53.32-2.57,1.12-.7.37A7.85,7.85,0,0,0,468,50l-.47.43-.44.53-.14.31a2.09,2.09,0,0,0-.11.43c0,.15,0,.29,0,.44a5.77,5.77,0,0,0,.11.92l.08.33.32.13.28.06a3.49,3.49,0,0,0,.56,0,.73.73,0,0,1,.36,0l.24.18.39-.14.12,0h.11l.22,0a1.78,1.78,0,0,1,.36.19c.29.21.55.46.83.7l.35.25.31.15c.62.34,1.19.77,1.82,1.11l0,0,.18.21-.1.34a4.87,4.87,0,0,1,.56.28c.36.28.6.67.93,1,.06.09.11.19.16.28a4.9,4.9,0,0,0,.53.88l.18.18.31.24c.24-.14.47-.27.72-.39s.69-.37,1-.58a4.7,4.7,0,0,0,.5-.38l.29-.31.14-.18.13-.21.13-.33.66-1,.19-.36.08-.2a2.59,2.59,0,0,0,.12-.73c1.27-1.07,2.86-1.61,4.16-2.64a4.14,4.14,0,0,0,1.5-.84,2,2,0,0,1,.33-.15l.1,0,.26,0,.22-.19.12-.14.1-.15.14-.29.08-.27a3.24,3.24,0,0,1,.22-.81l.12-.19,0-.26,0-.19,0-.17-.07-.15-.16-.25-.17-.19a1.79,1.79,0,0,1-.39-.49l-.05-.19-.18-.2-.14-.12-.15-.1a2.53,2.53,0,0,0-.45-.19l-.27-.08a1.33,1.33,0,0,1-.63-.28l-.17-.2-.6-.09a11.42,11.42,0,0,0-1.3-.06c-1,0-2,.13-3,.14a8.7,8.7,0,0,1-1.69-.14,4.78,4.78,0,0,0-1.16-.56A2.91,2.91,0,0,1,476,45a3.91,3.91,0,0,0,.41-.3c.86-.59,1.74-1.15,2.66-1.66Zm-5.33,12a6,6,0,0,0-.69-.64c-.68-.54-1.45-1-2.1-1.57l-.18-.18-.3,0a1.24,1.24,0,0,1-.58-.4,3.25,3.25,0,0,1-.23-.29v-.2a8.42,8.42,0,0,1,2.19-1.13l.56-.26a5.75,5.75,0,0,0,1.2-.75,20.94,20.94,0,0,1,3.94-1.31L478,49c0,.24,0,.48,0,.71a18.3,18.3,0,0,1,.08,2.56,3.7,3.7,0,0,1-.1.58,3.48,3.48,0,0,1-.25.68l-.13.22a2.72,2.72,0,0,1-.38.29c-.26.14-.53.25-.8.38a4.3,4.3,0,0,0-.45.29l-.14.12-.14.15-.28.37-.31-.27-.35.25a.58.58,0,0,1-.26,0,4,4,0,0,0-.6-.13l-.12-.13Zm2.72.92.2-.06-.08.08-.12,0Zm4.62-8c.84,0,1.67.06,2.5.14,1.21,2.36-1.4,4.63-3.27,5.56-.07-.93,0-3.78-.13-4.7-.05-.31-.09-.63-.11-1,.34,0,.67,0,1,0Z" fill="#231815" fill-rule="evenodd"/><path d="M528.32,21.78c.54-.32,1-1,1.72-1.06a17,17,0,0,1,3.45-2.08c1.14-.33,1.28-1.6,1.69-2.52-1-1.13-2.21-.08-3.37-.81-.63.6-1-.38-1.6-.53-.23.32-.89.73-.84,1.32.32.16.64.39,1,.26.36.23,1,.58.73,1.18a17,17,0,0,1-2.82,3.65c0,.24-.35.48,0,.59Zm-4.74-3.56c.37-1.63,2.82-2.07,2.27-4.12-.88-.26-1.64-.95-2.52-1.26-1.39-.25-.09,1.31-.67,2.07,0,1.9-2.25,2.85-2.69,4.56.28.23.67.23,1,.42a3.78,3.78,0,0,1,2.58-1.67ZM526,45.63a6.08,6.08,0,0,0-5.14.41c-.71,0-1.54.53-2.17-.14.09-.83-.21-1.64.15-2.33,1.87-1.23,4.6.07,6.23-1.77a1.28,1.28,0,0,0-.49-1.06c-1.75-.44-3.54.24-5.16.68-.44-.46-.22-1.36,0-1.9a15.5,15.5,0,0,1,5.48-1.26c.44-.09.71-.55,1.21-.36a5.35,5.35,0,0,1,.39,3.12,22.47,22.47,0,0,0,0,3.93c-.18.22-.2.54-.49.68ZM542,31c-.2-.47-.67-.18-1-.26a1.78,1.78,0,0,1-1.05-1.44c-.45-.55-1-1.41-1.77-1.43-.53-1-1.39-.5-2.35-.84-1-1.4-2.4.76-3.22-.65-.88-.38-1.74.15-2.61.2-.32-.23-.53-.82-1-.57-.93.84-2.09.23-3,.64-.4,0-.74.53-1.15.14A5.29,5.29,0,0,1,527,23.43c.3-.72-.52-.51-.73-1-.5-1.54-2.17-1.82-3.52-2.12-.26.92,1.06,1.53.92,2.6-1,3.1-3.8,4.78-5.69,7.5l.16.43c.6.07,1-.45,1.42-.73l.16.15c.18,0,.42,0,.62,0a5.6,5.6,0,0,0-.8.49c-2.23,1.74-3,4.54-2.78,7.47-1.09,2.66-.63,6-.59,8.85-.47,1.19-2.11.81-2.35,2l2.64.18c.5.23.11.76.2,1.16-.58,1-1.35,2.41-2.66,2.48-.84.74-2,1.33-2.45,2.3,0,.67.94.77,1.52,1,2.2-1.56,4.81-2.65,6.87-4.94,1.22-1.07-1.08-2.17.09-3a30.63,30.63,0,0,1,4.82-.44c.76.53.18,1.48.29,2.24,1.24,2.27,1.79,4.68,3.19,6.92.81-.22,1.16.47,1.86.56.46-.29,1.26.12,1.5-.5,1-1.84-.86-3.11-1.76-4.48-2.18-.62-1-2.8-1.18-4.32.47-2.9,0-5.95,0-8.88-.52-1.78-.3-3.83-.82-5.61-.87,0-1.42-.69-2.29-.75-.31,0-.3.38-.31.58,1.09.83.77,2,.49,3.24-.55,1.16-1.56-.3-2.43-.32a11,11,0,0,1-3.72,1.07c-1.41-.26-.68-1.8-1-2.69A1.63,1.63,0,0,1,520.1,34c.53.24,1.28-.23,2,0,1.07-.57,3-.75,2.94-2.46,0-.36-.41-.47-.68-.49s-.68-.43-.74-.79c-.21-1.25-1.92-.75-3.1-.16l0-.06c.69-1.6,2.42-2.26,3.88-2.68a22,22,0,0,0,4.84,1.06,24.78,24.78,0,0,0,6.57,2.07c1.92.95,3.53,2.55,5.86,2.39,1-.34-.06-1.15.28-1.91Zm-34.86-6c.88-1.4,1.05-3.15,2-4.55-.24-2.37,3.32-2.51,3-5a9.13,9.13,0,0,0-2.93-2.12c-.75-.07-2-.45-2.49.36,2.3,2.61,1,6.35.32,9.29.05.67-.76,1.68.16,2Zm6.77.79c.62-.68,1.35-1.72.82-2.79a2.66,2.66,0,0,1-1.13,1.33c-.28,2.1-2.23,3.56-3.11,5.44-.19.4-.06.91-.57,1.16-2.3-.32-.53-3.08-1.11-4.5-.24-.43.54-.92-.13-1,0,1.07-1,1.79-1.14,2.79.31,2.13-.77,3.69-1.77,5.29-.42,1.2.51,2.17,1,3.19l2.08.95c1-.53,1-1.76,1.1-2.79,1.21-.61.32-2.06,1.41-2.75-.11-1.94,1.57-3.12,1.94-4.86.39-.41-.14-1.19.57-1.44Z" fill="#231815" fill-rule="evenodd"/><path d="M589,38.42c1.06-1.5,1-3.3,1.68-4.94.2-1,.68-2.21.2-3A5.91,5.91,0,0,0,588,25.92c-.82-.05-1.28.38-2-.12-1.76.42-3,2.11-4.48,3.09-.41-.05-.9.39-1.19-.2.16-1.46,1.41-2.23,1.78-3.67.66-.9-.22-1.78-.65-2.49-.7-.11-1.37-.92-2.1-.28.59,2.22-.92,3.72-1,5.66-.84,1.18-1.15,2.92-2.54,3.44-.74-.2-.28-1.07-.84-1.37s-1-.87-1.53-.34c-.3-.11-.79-.15-.63-.73a9.09,9.09,0,0,0,1-2.33c.78-1.48,1.76-3.54,3.22-4.12,0-1.4,1.27-2,1.82-3.19,1.8.1,1.19-2.39,2.89-2.51.22-.85,1.12-1.28,1.19-2a7,7,0,0,0-3.21-1.46c-2.39-.26-3.87,2.07-6,2.62-1.52,1.77-3.48,3.31-4.61,5.39-2.21,1.91-2.47,4.79-4.47,6.77,0,1.27-1.34,2.1-1.53,3.34-1.68,1.3-2,3.31-3.31,4.92-1.67-.07-.69-2.53-1.46-3.55.12-1-1-1.26-1.37-2.24-1.06.4-1.55-1.09-2.69-.54l.23,1.25.45,5.7a60.84,60.84,0,0,0-.52,6.23c.67,1.26,2.1,1.83,3.18,2.6,1.8-.43,1.43-2.5,1.72-4,.68-3.71,4.09-6.43,4.23-10.31.27-1.21,1.64-1.82,2-2.9,1-.67.8-2.18,1.8-2.85,1.42-1.62,2.9-2.54,4-4.53.88-.17,1.24-1.26,1.92-1.93.84-.17,1.15-2,2.39-1.67.1.17.39.23.32.45-.88,1.62-1.23,3.41-2.12,5-.19,1.77-1.8,2.93-2,4.66-1.81,3.37-2.93,7.68-6.36,9.67.21,2.61-1.67,4.49-2.27,6.74-.69,0-1.14,1-1.35,1.44-1.27.91-1.12,2.74-2.52,3.57.13,1.61-1.72,2.44-2.24,3.54.4,0,.88-.17,1.18.07,3.3-.48,4.8-4.66,6.87-6.87,1.12-1.28,1.24-3.23,2.47-4.22.1-1.85,2.16-3,2.26-4.81,1.5-.67-.11-2.4,1.39-3a.7.7,0,0,1,.79.28c.19,1.34.74,2.52.88,3.87,0,1.93,1.34,3.43,2.47,4.9,1.17-.2,1.93,1.18,2.93,1.48.44.36,1.2-.29,1.51.48.82,2.16-.17,4.49.43,7-.54.8-1,2.21-2.2,2a2.65,2.65,0,0,0,1.48,2.28c1.28-.34,1.58,1.34,2.88.83,0-.92.42-1.84-.06-2.72.51-1.27-.35-2.38.16-3.65-.5-1.18,0-2.33-.56-3.46,1.22-1.08-1-2.28.47-3.25,1.85.14,2.86-1.49,4.44-2,2,.13,1.41-2.23,2.1-3.39Zm-3.42-1.92c-.14,1.81-.15,4.18-1.68,4.93a3.66,3.66,0,0,0-3.37.67l-3.51.32c-.94-1-.55-2.71-.15-3.84a29.18,29.18,0,0,0,4.7-.26,6.46,6.46,0,0,0,2.72-1.22c.13-.93-1.37-.36-.83-1.2-1.74-1.9-4,.29-6.23.1-.25-.63-1-1.22-.6-2-.11-.35-.46-.62-.38-1.11,2.71-2.31,6.77-1.9,10.12-2.83l.5.57c-.58,1.94-.12,4.18-1.29,5.87Z" fill="#231815" fill-rule="evenodd"/><path d="M556.42,22.31c.74.59,1.67,0,2.33-.39.49-.48,1.67-.5,1.5-1.54h-.16c-.41-.05-.57-.51-.64-.9l-1-.88c-.8.69-1.94-.34-2.48.54.57,1-.15,2.12.42,3.16Z" fill="#231815" fill-rule="evenodd"/><path d="M593,50.63c-.1-1.79-1.76-1.07-2.55-2.31-1,.31-1.56-.64-2.42-.74l-.1.84c1.64.64.71,2.7,2.19,3.44.69.42.62,2.09,1.72,1.11,0-.13-.06-.21-.14-.29.52-.58,1.63-.9,1.3-2Z" fill="#231815" fill-rule="evenodd"/><path d="M574.46,49.81c-1.43,1.44-3.22-.58-4.69.91-.25.42-.94-.08-1.13.59.79,1.24,1.77,2.78,3.35,2.72,1.31-1,3.25-1.66,3.53-3.66a.84.84,0,0,0-1.06-.56Z" fill="#231815" fill-rule="evenodd"/><path d="M620.6,40.05a2.31,2.31,0,0,1,.72-2.6c.75-.3,2.43-1.08,2.19.55.16,1.53-1.87,1.56-2.91,2Zm3.3-23.42h2.39a2.87,2.87,0,0,1,1.52-.78,3.09,3.09,0,0,1,2.21.53,7.91,7.91,0,0,1,2,1.6,15.6,15.6,0,0,1,1.08,1.31l-.94,1.45c-.37.18-.78.41-1.24.69a14.23,14.23,0,0,0-2.49,2c-.89.87-1.61,1.65-2.18,2.33s-1,1.21-1.31,1.56a6.94,6.94,0,0,1-.78.41c-.29.13-.63.27-1,.41l-.34.12-.62,0a1.69,1.69,0,0,0-.27,1.48l.11.11c1.36-.48,2.39-1.78,4.1-1.48A6.7,6.7,0,0,1,628.88,30a7.47,7.47,0,0,1-3.18,3.67c0,.67.51,1.34.11,2-.19.3-.79.45-.55.93.39.82,1.31.48,1.87,1a17.23,17.23,0,0,1-3.07,8.27c1.2.56,2,1.85,3.23,2.3.55.22.91-.41,1.31-.15a4.06,4.06,0,0,0,.12,2.74A12.93,12.93,0,0,0,634.85,47c-.08-1.34-1.71-1.49-2.47-2.45A5,5,0,0,1,630,42.86c1.28-.48,2.35.34,3.5.41,1.2.37,2.39,1.64,3.66,1a44.23,44.23,0,0,0,3.19-4.19c-.08-.86.28-2-.88-2.34A10.22,10.22,0,0,0,634,41.12a1.62,1.62,0,0,1-1.31,0,1.54,1.54,0,0,1-.44-1.37c.52-.59,1.15-1.52,2-1.63a14.5,14.5,0,0,0,3.5-5.68l-.28-.3c-1.87,1.38-2.42,3-4.37,4.23-1.12.41-1.79-.59-2.31-1.22-1-2.12,1.35-3.23,1.59-5,1.27-2.19,1.63-4.75,2.47-7.08-.28-.75.47-1.64,0-2.41-.48-.53-.2-1.3-.72-1.79.4-.74-.28-2,.56-2.44a22.49,22.49,0,0,1,2.94,2.3c.36,0,.84,0,.88.4a13,13,0,0,1-.44,8.16c.32,1.38,1.27-.29,2-.14,1.23-.08,2.94-.08,3.62,1.22,0,3.08-3.7,4.75-4.66,7.46a1.13,1.13,0,0,0,1.16.15c1.51-.27,2.51.92,3.38,1.89.84,2.82-1.83,4.6-3.06,6.78-.52.3-.6.78-.76,1.23,1,1,2.07,1.3,3.06,2.3,1.28,1.82,4.58,2.71,3.78,5.42,0,.55-.51,1.11-.11,1.63-.08.07-.2.15-.16.29-1.48.23-1.28-1.44-2.47-1.78-2.43-1.52-4.14-4.23-6.85-5.41-1.59.7-2.86,2.15-4.81,2.15-1.27.82-3,.63-4.38,1.22-1.19.3-2.1-.81-3.18-1.22-1.19-.63-2.35-2.23-3.78-1.49-.2.34-.56.27-.87.27a16.49,16.49,0,0,1-5.26,1.63v-.26c1.67-.63,3-2,4.54-3,.12-1.07-1.19-1.07-1.75-1.59s-.28-1.38-.76-1.93a26.16,26.16,0,0,0-5.37,2.74c-1.75.49-3.1,2-5.25,1.6l-.72.7c-.32-.37-.48-.92-1-1.11a1.25,1.25,0,0,1-1.32-.52c.2-.89,1.44-.55,2.19-.81,1.24,0,1.83-1.52,3.19-1.38.36-1.07,1.23-.44,2-.81,2.39-.78,4.5-2.19,6.85-3,.8-.45.4-1.41.72-2-.16-.19-.16-.41-.44-.56-.92.11-1.24,1.67-2.47,1.12-2.19-.86-1.31-3.53-1.31-5.31.39-1-.24-3.26,1.71-1.93a6.19,6.19,0,0,0,2.82-1.33,3.17,3.17,0,0,0,.15-1.22l-.91.47a8.25,8.25,0,0,1-2,.78,2.15,2.15,0,0,1-1.81-.18,2.57,2.57,0,0,1-.94-1.26c-.16-.6-.35-1.35-.59-2.25s-.5-1.95-.8-3.14-.56-2.23-.8-3.13-.42-1.65-.58-2.26a1.87,1.87,0,0,1,.07-1.29,1.44,1.44,0,0,1,1.24-.84,2.85,2.85,0,0,1,1.86.31,5.39,5.39,0,0,1,1.34,1l.23.14.35.26a2.89,2.89,0,0,1,.35.26l.24.2,3.28-1.51-.42-3.24a1.86,1.86,0,0,1,1.15-1.07,2.86,2.86,0,0,1,2.23.21,3,3,0,0,1,1.71,1.47,2,2,0,0,1,.17,1.48Zm2.39,1.92-1.41.39a6.26,6.26,0,0,0-1.83.91,1.58,1.58,0,0,0-.84,1.33,1.89,1.89,0,0,0,.56,1.23,2.58,2.58,0,0,1-.31.82c-.16.32-.38.7-.63,1.11a3,3,0,0,0-.45,1.08,1.29,1.29,0,0,0,.08.76,3.44,3.44,0,0,0,1.31-.8,4.8,4.8,0,0,0,1.13-1.64c.31-.7.57-1.32.77-1.86a5.11,5.11,0,0,1,.68-1.31,2.83,2.83,0,0,1,.17-.42c.08-.16.16-.36.28-.59l.28-.59q.12-.25.21-.42Zm-7.23,3,.24-.95a5.76,5.76,0,0,1-.7.27c-.28.1-.61.23-1,.39a6.18,6.18,0,0,0-1,.53,4.56,4.56,0,0,0-.66.54l.85,5.37a3.53,3.53,0,0,0,.86-.35,2.26,2.26,0,0,0,.83-.8,2,2,0,0,0,.33-1,4.72,4.72,0,0,0,0-.73,1.52,1.52,0,0,0-.21-.39,1.8,1.8,0,0,0-.47-.43,3.21,3.21,0,0,0-.59-.33l-.47-.21a2.31,2.31,0,0,0,.33-.47c.13-.2.28-.42.47-.67a2.35,2.35,0,0,1,.59-.56,1.67,1.67,0,0,1,.58-.22Zm3.13,22.24c-.59.33-.35,1.37-1.31,1.22a1.08,1.08,0,0,1-1.31-.66,2.42,2.42,0,0,1,1.75-2.6c.52-.19,1.11-.11,1.43-.67.52.71-.24,1.86-.56,2.71Zm-.71-11.28c.79-.81,2-1.7,3.34-1.33a4.72,4.72,0,0,1-2.63,3.52L621,35a4.52,4.52,0,0,1,.44-2.45Zm-4.1,4.64c-1.19-.08-.68-1.52-1-2.3,0-.74.83-.67,1.27-.82.91-.15.4.71.75,1.08a2.55,2.55,0,0,1-1,2Z" fill="#231815" fill-rule="evenodd"/></svg>